<svg width="56" height="61" viewBox="0 0 56 61" fill="none" xmlns="http://www.w3.org/2000/svg">
<path d="M54.7413 18.4961C54.3421 18.094 53.867 17.7751 53.3436 17.5579C52.8202 17.3407 52.2589 17.2295 51.6923 17.2308H43.0769V15.0769C43.0769 11.0783 41.4884 7.2434 38.661 4.41593C35.8335 1.58846 31.9986 0 28 0C24.0013 0 20.1665 1.58846 17.339 4.41593C14.5115 7.2434 12.9231 11.0783 12.9231 15.0769V17.2308H4.30769C3.16522 17.2308 2.06954 17.6846 1.26169 18.4925C0.453844 19.3003 0 20.396 0 21.5385V50.6154C0 55.8654 4.44231 60.3077 9.6923 60.3077H46.3077C48.8472 60.3085 51.2862 59.3156 53.1031 57.5413C54.0174 56.669 54.7455 55.6205 55.2434 54.4591C55.7413 53.2976 55.9987 52.0473 56 50.7836V21.5385C56.0017 20.9733 55.8914 20.4135 55.6754 19.8912C55.4593 19.369 55.1418 18.8949 54.7413 18.4961ZM17.2308 15.0769C17.2308 12.2207 18.3654 9.48155 20.385 7.46192C22.4046 5.4423 25.1438 4.30769 28 4.30769C30.8562 4.30769 33.5954 5.4423 35.615 7.46192C37.6346 9.48155 38.7692 12.2207 38.7692 15.0769V17.2308H17.2308V15.0769Z" fill="#00712D"/>
</svg>
