<svg width="89" height="88" viewBox="0 0 89 88" fill="none" xmlns="http://www.w3.org/2000/svg">
<circle cx="44.0666" cy="44.0002" r="42.8268" stroke="white" stroke-width="2.34668"/>
<path d="M44.2348 28.6026C43.6854 28.6026 43.1414 28.7108 42.6338 28.9211C42.1262 29.1313 41.665 29.4395 41.2765 29.828C40.888 30.2165 40.5799 30.6777 40.3696 31.1853C40.1594 31.6929 40.0511 32.2369 40.0511 32.7863C40.0511 33.3357 40.1594 33.8797 40.3696 34.3873C40.5799 34.8949 40.888 35.3561 41.2765 35.7446C41.665 36.1331 42.1262 36.4413 42.6338 36.6515C43.1414 36.8618 43.6854 36.97 44.2348 36.97C45.3444 36.97 46.4086 36.5292 47.1931 35.7446C47.9777 34.96 48.4185 33.8959 48.4185 32.7863C48.4185 31.6767 47.9777 30.6126 47.1931 29.828C46.4086 29.0434 45.3444 28.6026 44.2348 28.6026ZM37.262 32.7863C37.262 30.937 37.9966 29.1634 39.3043 27.8558C40.612 26.5481 42.3855 25.8135 44.2348 25.8135C46.0841 25.8135 47.8577 26.5481 49.1654 27.8558C50.473 29.1634 51.2077 30.937 51.2077 32.7863C51.2077 34.6356 50.473 36.4092 49.1654 37.7168C47.8577 39.0245 46.0841 39.7591 44.2348 39.7591C42.3855 39.7591 40.612 39.0245 39.3043 37.7168C37.9966 36.4092 37.262 34.6356 37.262 32.7863ZM33.0783 46.7319C33.0802 46.2225 33.1322 45.7297 33.2345 45.2537L27.8124 46.704C27.2817 46.8464 26.7841 47.092 26.3483 47.4267C25.9124 47.7614 25.5467 48.1787 25.2722 48.6548C24.9976 49.1308 24.8196 49.6563 24.7482 50.2012C24.6767 50.7461 24.7134 51.2997 24.856 51.8305L25.9382 55.8719C26.2291 56.9563 26.7353 57.9711 27.4267 58.8558C28.118 59.7404 28.9803 60.4769 29.9622 61.0214C30.9442 61.5658 32.0256 61.9071 33.1422 62.0248C34.2588 62.1426 35.3876 62.0344 36.4615 61.7068C35.7156 60.9832 35.0744 60.1589 34.5566 59.2579C33.2427 59.3847 31.9263 59.0415 30.8417 58.2893C29.757 57.5371 28.9742 56.4245 28.6325 55.1495L27.5475 51.1053C27.4521 50.748 27.5025 50.3675 27.6877 50.0474C27.8729 49.7273 28.1776 49.4938 28.5348 49.3983L33.0783 48.1823V46.7319ZM52.2843 61.7876L52.0053 61.7095C52.75 60.9844 53.3943 60.1616 53.9131 59.2579C55.227 59.3847 56.5433 59.0415 57.628 58.2893C58.7127 57.5371 59.4955 56.4245 59.8372 55.1495L60.9194 51.1053C61.0149 50.7484 60.9648 50.3682 60.7802 50.0481C60.5956 49.7281 60.2916 49.4944 59.9348 49.3983L55.3913 48.1823V46.7319C55.3895 46.2225 55.3374 45.7297 55.2352 45.2537L60.6544 46.704C61.1855 46.8461 61.6833 47.0915 62.1195 47.426C62.5556 47.7606 62.9216 48.1779 63.1964 48.654C63.4713 49.1301 63.6496 49.6557 63.7212 50.2007C63.7928 50.7457 63.7562 51.2995 63.6137 51.8305L62.5315 55.8719C61.9563 58.0146 60.5538 59.8412 58.6321 60.95C56.7105 62.0589 54.4272 62.3619 52.2843 61.7876ZM27.5001 36.97C27.5001 36.2303 27.7939 35.5208 28.317 34.9978C28.84 34.4747 29.5495 34.1809 30.2892 34.1809C31.0289 34.1809 31.7383 34.4747 32.2614 34.9978C32.7845 35.5208 33.0783 36.2303 33.0783 36.97C33.0783 37.7097 32.7845 38.4191 32.2614 38.9422C31.7383 39.4653 31.0289 39.7591 30.2892 39.7591C29.5495 39.7591 28.84 39.4653 28.317 38.9422C27.7939 38.4191 27.5001 37.7097 27.5001 36.97ZM30.2892 31.3917C28.8097 31.3917 27.3909 31.9794 26.3448 33.0256C25.2986 34.0717 24.7109 35.4905 24.7109 36.97C24.7109 38.4494 25.2986 39.8683 26.3448 40.9144C27.3909 41.9605 28.8097 42.5482 30.2892 42.5482C31.7686 42.5482 33.1875 41.9605 34.2336 40.9144C35.2797 39.8683 35.8674 38.4494 35.8674 36.97C35.8674 35.4905 35.2797 34.0717 34.2336 33.0256C33.1875 31.9794 31.7686 31.3917 30.2892 31.3917ZM58.1805 34.1809C57.4408 34.1809 56.7313 34.4747 56.2083 34.9978C55.6852 35.5208 55.3913 36.2303 55.3913 36.97C55.3913 37.7097 55.6852 38.4191 56.2083 38.9422C56.7313 39.4653 57.4408 39.7591 58.1805 39.7591C58.9202 39.7591 59.6296 39.4653 60.1527 38.9422C60.6757 38.4191 60.9696 37.7097 60.9696 36.97C60.9696 36.2303 60.6757 35.5208 60.1527 34.9978C59.6296 34.4747 58.9202 34.1809 58.1805 34.1809ZM52.6022 36.97C52.6022 35.4905 53.1899 34.0717 54.236 33.0256C55.2822 31.9794 56.701 31.3917 58.1805 31.3917C59.6599 31.3917 61.0788 31.9794 62.1249 33.0256C63.171 34.0717 63.7587 35.4905 63.7587 36.97C63.7587 38.4494 63.171 39.8683 62.1249 40.9144C61.0788 41.9605 59.6599 42.5482 58.1805 42.5482C56.701 42.5482 55.2822 41.9605 54.236 40.9144C53.1899 39.8683 52.6022 38.4494 52.6022 36.97ZM40.0511 42.5482C38.9416 42.5482 37.8774 42.989 37.0928 43.7736C36.3082 44.5582 35.8674 45.6223 35.8674 46.7319V53.7048C35.8674 55.9239 36.749 58.0522 38.3182 59.6214C39.8874 61.1906 42.0157 62.0721 44.2348 62.0721C46.454 62.0721 48.5823 61.1906 50.1515 59.6214C51.7207 58.0522 52.6022 55.9239 52.6022 53.7048V46.7319C52.6022 45.6223 52.1614 44.5582 51.3768 43.7736C50.5922 42.989 49.5281 42.5482 48.4185 42.5482H40.0511ZM38.6566 46.7319C38.6566 46.3621 38.8035 46.0074 39.065 45.7458C39.3266 45.4843 39.6813 45.3374 40.0511 45.3374H48.4185C48.7884 45.3374 49.1431 45.4843 49.4046 45.7458C49.6662 46.0074 49.8131 46.3621 49.8131 46.7319V53.7048C49.8131 55.1842 49.2254 56.603 48.1793 57.6492C47.1331 58.6953 45.7143 59.283 44.2348 59.283C42.7554 59.283 41.3365 58.6953 40.2904 57.6492C39.2443 56.603 38.6566 55.1842 38.6566 53.7048V46.7319Z" fill="white"/>
</svg>
