<svg width="50" height="50" viewBox="0 0 50 50" fill="none" xmlns="http://www.w3.org/2000/svg">
<circle cx="25" cy="25" r="25" transform="matrix(-1 0 0 1 50 0)" fill="#00712D" fill-opacity="0.3"/>
<circle cx="25" cy="25" r="24" transform="matrix(-1 0 0 1 50 0)" stroke="white" stroke-opacity="0.5" stroke-width="2"/>
<path d="M17.6826 26.0007C17.1303 26.0007 16.6826 25.553 16.6826 25.0007C16.6826 24.4484 17.1303 24.0007 17.6826 24.0007V26.0007ZM33.0239 24.2936C33.4144 24.6841 33.4144 25.3173 33.0239 25.7078L26.6599 32.0718C26.2694 32.4623 25.6362 32.4623 25.2457 32.0718C24.8552 31.6813 24.8552 31.0481 25.2457 30.6576L30.9026 25.0007L25.2457 19.3439C24.8552 18.9534 24.8552 18.3202 25.2457 17.9297C25.6362 17.5391 26.2694 17.5391 26.6599 17.9297L33.0239 24.2936ZM17.6826 25.0007V24.0007H32.3168V25.0007V26.0007H17.6826V25.0007Z" fill="white" fill-opacity="0.5"/>
</svg>
