<svg width="22" height="14" viewBox="0 0 22 14" fill="none" xmlns="http://www.w3.org/2000/svg">
<path fill-rule="evenodd" clip-rule="evenodd" d="M12.6455 12.9848C12.2127 13.4171 11.626 13.6599 11.0143 13.6599C10.4025 13.6599 9.81583 13.4171 9.38301 12.9848L0.675783 4.2807C0.242942 3.84765 -0.000144238 3.2604 6.42093e-08 2.64812C0.000144366 2.03585 0.243507 1.44871 0.676552 1.01587C1.1096 0.583031 1.69685 0.339944 2.30912 0.340088C2.9214 0.340232 3.50854 0.583596 3.94138 1.01664L11.0143 8.08953L18.0872 1.01664C18.5223 0.59594 19.1053 0.362989 19.7106 0.367961C20.3158 0.372933 20.8949 0.61543 21.3231 1.04322C21.7513 1.47102 21.9944 2.04988 21.9999 2.65513C22.0054 3.26038 21.773 3.84359 21.3528 4.27916L12.6471 12.9864L12.6455 12.9848Z" fill="white"/>
</svg>
