<svg width="16" height="18" viewBox="0 0 16 18" fill="none" xmlns="http://www.w3.org/2000/svg">
<path d="M7 16.3174C7 16.8697 7.44772 17.3174 8 17.3174C8.55228 17.3174 9 16.8697 9 16.3174L7 16.3174ZM8.70711 0.976129C8.31658 0.585604 7.68342 0.585604 7.29289 0.976129L0.928933 7.34009C0.538408 7.73061 0.538408 8.36378 0.928933 8.7543C1.31946 9.14483 1.95262 9.14483 2.34315 8.7543L8 3.09745L13.6569 8.7543C14.0474 9.14483 14.6805 9.14483 15.0711 8.7543C15.4616 8.36378 15.4616 7.73061 15.0711 7.34009L8.70711 0.976129ZM8 16.3174L9 16.3174L9 1.68324L8 1.68324L7 1.68324L7 16.3174L8 16.3174Z" fill="white"/>
</svg>
