<svg width="50" height="50" viewBox="0 0 50 50" fill="none" xmlns="http://www.w3.org/2000/svg">
<circle cx="25" cy="25" r="24" fill="#00712D" stroke="white" stroke-width="2"/>
<path d="M32.3164 26.0008C32.8687 26.0008 33.3164 25.5531 33.3164 25.0008C33.3164 24.4485 32.8687 24.0008 32.3164 24.0008V26.0008ZM16.9752 24.2937C16.5846 24.6842 16.5846 25.3174 16.9752 25.7079L23.3391 32.0719C23.7296 32.4624 24.3628 32.4624 24.7533 32.0719C25.1439 31.6813 25.1439 31.0482 24.7533 30.6576L19.0965 25.0008L24.7533 19.3439C25.1439 18.9534 25.1439 18.3203 24.7533 17.9297C24.3628 17.5392 23.7296 17.5392 23.3391 17.9297L16.9752 24.2937ZM32.3164 25.0008V24.0008H17.6823V25.0008V26.0008H32.3164V25.0008Z" fill="white"/>
</svg>
