<svg width="50" height="50" viewBox="0 0 50 50" fill="none" xmlns="http://www.w3.org/2000/svg">
<circle cx="25" cy="25" r="25" fill="#00712D" fill-opacity="0.3"/>
<circle cx="25" cy="25" r="24" stroke="white" stroke-opacity="0.5" stroke-width="2"/>
<path d="M32.3174 26.0007C32.8697 26.0007 33.3174 25.553 33.3174 25.0007C33.3174 24.4484 32.8697 24.0007 32.3174 24.0007V26.0007ZM16.9761 24.2936C16.5856 24.6841 16.5856 25.3173 16.9761 25.7078L23.3401 32.0718C23.7306 32.4623 24.3638 32.4623 24.7543 32.0718C25.1448 31.6813 25.1448 31.0481 24.7543 30.6576L19.0974 25.0007L24.7543 19.3439C25.1448 18.9534 25.1448 18.3202 24.7543 17.9297C24.3638 17.5391 23.7306 17.5391 23.3401 17.9297L16.9761 24.2936ZM32.3174 25.0007V24.0007H17.6832V25.0007V26.0007H32.3174V25.0007Z" fill="white"/>
</svg>
