<svg width="50" height="50" viewBox="0 0 50 50" fill="none" xmlns="http://www.w3.org/2000/svg">
<circle cx="25" cy="25" r="24" transform="matrix(-1 0 0 1 50 0)" fill="#00712D" stroke="white" stroke-width="2"/>
<path d="M17.6836 26.0008C17.1313 26.0008 16.6836 25.5531 16.6836 25.0008C16.6836 24.4485 17.1313 24.0008 17.6836 24.0008V26.0008ZM33.0248 24.2937C33.4154 24.6842 33.4154 25.3174 33.0248 25.7079L26.6609 32.0719C26.2704 32.4624 25.6372 32.4624 25.2467 32.0719C24.8561 31.6813 24.8561 31.0482 25.2467 30.6576L30.9035 25.0008L25.2467 19.3439C24.8561 18.9534 24.8561 18.3203 25.2467 17.9297C25.6372 17.5392 26.2704 17.5392 26.6609 17.9297L33.0248 24.2937ZM17.6836 25.0008V24.0008H32.3177V25.0008V26.0008H17.6836V25.0008Z" fill="white"/>
</svg>
