<svg width="144" height="145" viewBox="0 0 144 145" fill="none" xmlns="http://www.w3.org/2000/svg">
<path d="M141.568 85.9195L127.255 68.0279C126.584 67.1901 125.734 66.5139 124.766 66.0493C123.799 65.5847 122.739 65.3438 121.666 65.3442H78.7258V51.0309H121.666C129.559 51.0309 135.979 44.6113 135.979 36.7176V15.2476C135.979 7.35384 129.559 0.934327 121.666 0.934327H21.4726C20.3994 0.933924 19.3398 1.17492 18.3722 1.63948C17.4047 2.10403 16.5541 2.78025 15.8833 3.61807L1.56999 21.5097C0.553724 22.779 0 24.3566 0 25.9826C0 27.6086 0.553724 29.1862 1.56999 30.4555L15.8833 48.3471C16.5541 49.1849 17.4047 49.8612 18.3722 50.3257C19.3398 50.7903 20.3994 51.0313 21.4726 51.0309H64.4125V65.3442H21.4726C13.5788 65.3442 7.15933 71.7637 7.15933 79.6574V101.127C7.15933 109.021 13.5788 115.441 21.4726 115.441H64.4125V144.067H78.7258V115.441H121.666C122.739 115.441 123.799 115.2 124.766 114.736C125.734 114.271 126.584 113.595 127.255 112.757L141.568 94.8653C142.585 93.596 143.138 92.0185 143.138 90.3924C143.138 88.7664 142.585 87.1888 141.568 85.9195ZM16.327 25.9826L24.9078 15.2476H121.666L121.68 36.7176H24.9078L16.327 25.9826ZM118.231 101.127H21.4726V79.6574H118.231L126.818 90.3924L118.231 101.127Z" fill="#00712D"/>
</svg>
