<svg width="122" height="147" viewBox="0 0 122 147" fill="none" xmlns="http://www.w3.org/2000/svg">
<path d="M24.3538 42.6189H73.0617V54.7959H24.3538V42.6189ZM24.3538 66.9729H97.4157V79.1498H24.3538V66.9729ZM24.3538 91.3268H42.5583V103.504H24.3538V91.3268Z" fill="#00712D"/>
<path d="M73.0619 18.2655L54.7964 0V12.177H12.177C8.94745 12.177 5.85018 13.4599 3.56656 15.7435C1.28293 18.0272 0 21.1244 0 24.354V121.77C0 124.999 1.28293 128.097 3.56656 130.38C5.85018 132.664 8.94745 133.947 12.177 133.947H36.5309V121.77H12.177V24.354H54.7964V36.531L73.0619 18.2655ZM48.7079 127.858L66.9734 146.124V133.947H109.593C112.822 133.947 115.92 132.664 118.203 130.38C120.487 128.097 121.77 124.999 121.77 121.77V24.354C121.77 21.1244 120.487 18.0272 118.203 15.7435C115.92 13.4599 112.822 12.177 109.593 12.177H85.2389V24.354H109.593V121.77H66.9734V109.593L48.7079 127.858Z" fill="#00712D"/>
</svg>
