<svg width="68" height="61" viewBox="0 0 68 61" fill="none" xmlns="http://www.w3.org/2000/svg">
<path d="M0.0234375 61V54.2222H67.8012V61H0.0234375ZM13.579 47.4444C11.7151 47.4444 10.1201 46.7814 8.79388 45.4552C7.4677 44.129 6.80347 42.5328 6.80122 40.6667V16.9444C6.80122 15.0806 7.46544 13.4855 8.79388 12.1593C10.1223 10.8331 11.7174 10.1689 13.579 10.1667H23.7457C23.7457 7.34259 24.7341 4.94213 26.7109 2.96528C28.6878 0.988426 31.0883 0 33.9123 0C36.7364 0 39.1369 0.988426 41.1137 2.96528C43.0906 4.94213 44.079 7.34259 44.079 10.1667H54.2457C56.1095 10.1667 57.7057 10.8309 59.0342 12.1593C60.3626 13.4878 61.0257 15.0828 61.0234 16.9444V40.6667C61.0234 42.5306 60.3603 44.1267 59.0342 45.4552C57.708 46.7836 56.1118 47.4467 54.2457 47.4444H13.579ZM50.8568 40.6667H54.2457V16.9444H50.8568V40.6667ZM28.829 10.1667H38.9957C38.9957 8.69815 38.5156 7.4838 37.5554 6.52361C36.5952 5.56343 35.3808 5.08333 33.9123 5.08333C32.4438 5.08333 31.2295 5.56343 30.2693 6.52361C29.3091 7.4838 28.829 8.69815 28.829 10.1667ZM16.9679 40.6667V16.9444H13.579V40.6667H16.9679ZM22.0512 16.9444V40.6667H45.7734V16.9444H22.0512Z" fill="white"/>
</svg>
