<svg width="20" height="20" viewBox="0 0 20 20" fill="none" xmlns="http://www.w3.org/2000/svg">
<path d="M20.0028 9.55606C20.0042 10.1097 19.8444 10.6518 19.5428 11.1161C19.2507 11.5853 18.8262 11.9576 18.3228 12.1861L4.17279 19.0461C3.77899 19.2447 3.34384 19.3475 2.90279 19.3461C2.71745 19.3461 2.53412 19.3261 2.35279 19.2861C1.73504 19.17 1.17273 18.8537 0.752785 18.3861C0.329813 17.9189 0.0699354 17.327 0.0122284 16.6994C-0.0454785 16.0719 0.102104 15.4425 0.432785 14.9061L3.87279 10.1261C3.95279 9.93606 3.99279 9.73206 3.99279 9.52606C3.99429 9.30385 3.94287 9.08447 3.84279 8.88606L0.662785 4.38606C0.334208 3.83957 0.196988 3.19921 0.272785 2.56606C0.34113 1.9581 0.600646 1.38751 1.01397 0.936447C1.42729 0.485387 1.97309 0.17713 2.57279 0.0560602C3.17585 -0.0621879 3.80069 0.0076261 4.36279 0.25606L18.3628 6.92606C18.8547 7.16727 19.2691 7.54157 19.559 8.00645C19.8489 8.47134 20.0026 9.00819 20.0028 9.55606Z" fill="#00712D"/>
</svg>
