<svg width="18" height="13" viewBox="0 0 18 13" fill="none" xmlns="http://www.w3.org/2000/svg">
<path d="M0.0955297 8.25888C1.00382 9.43459 2.56089 11.3031 3.75465 12.5208C4.32558 13.1087 5.33767 13.1507 5.98645 12.6468C9.80128 9.72852 13.3306 6.03341 17.5607 0.931649C17.7943 0.637721 17.6904 0.238817 17.3012 0.0708577C17.0157 -0.0551118 16.6265 -0.0131216 16.4188 0.196828C11.7217 4.20686 9.33416 6.11739 4.66294 9.26663C4.66294 9.26663 3.18372 8.51081 1.41904 7.35609C1.02977 7.10416 0.484798 7.16714 0.173383 7.48206C-0.0342264 7.71301 -0.0601776 8.02793 0.121481 8.27987L0.0955297 8.25888Z" fill="#00712D"/>
</svg>
