<svg width="15" height="15" viewBox="0 0 15 15" fill="none" xmlns="http://www.w3.org/2000/svg">
<path d="M7.5 15C6.48364 15 5.50234 14.8014 4.57944 14.4159C3.69159 14.0421 2.88551 13.493 2.19626 12.8037C1.50701 12.1145 0.969626 11.3084 0.584112 10.4206C0.186916 9.49766 0 8.51635 0 7.5C0 6.48364 0.198598 5.50234 0.584112 4.57944C0.957944 3.69159 1.50701 2.88551 2.19626 2.19626C2.88551 1.50701 3.69159 0.969626 4.57944 0.584112C5.50234 0.186916 6.48364 0 7.5 0C8.51636 0 9.49766 0.198598 10.4206 0.584112C11.3084 0.957944 12.1145 1.50701 12.8037 2.19626C13.493 2.88551 14.0304 3.69159 14.4159 4.57944C14.8131 5.50234 15 6.48364 15 7.5C15 8.51635 14.8014 9.49766 14.4159 10.4206C14.0421 11.3084 13.493 12.1145 12.8037 12.8037C12.1145 13.493 11.3084 14.0304 10.4206 14.4159C9.49766 14.8131 8.51636 15 7.5 15Z" fill="white"/>
<path d="M3.57425 8.46953C3.98313 9.12373 4.68407 10.1634 5.22145 10.841C5.47846 11.1681 5.93407 11.1915 6.22612 10.9111C7.94341 9.28728 9.5322 7.23121 11.4364 4.39242C11.5415 4.22887 11.4948 4.00691 11.3196 3.91345C11.1911 3.84336 11.0158 3.86672 10.9224 3.98354C8.8079 6.21485 7.73313 7.27794 5.63033 9.03027C5.63033 9.03027 4.96444 8.60971 4.17005 7.96719C3.99481 7.827 3.74949 7.86205 3.6093 8.03728C3.51584 8.16579 3.50416 8.34102 3.58594 8.48121L3.57425 8.46953Z" fill="#00712D"/>
</svg>
