<svg width="48" height="49" viewBox="0 0 48 49" fill="none" xmlns="http://www.w3.org/2000/svg">
<path d="M24 48.5C20.7477 48.5 17.6075 47.8645 14.6542 46.6308C11.8131 45.4346 9.23364 43.6776 7.02804 41.472C4.82243 39.2664 3.1028 36.6869 1.86916 33.8458C0.598131 30.8925 0 27.7523 0 24.5C0 21.2477 0.635514 18.1075 1.86916 15.1542C3.06542 12.3131 4.82243 9.73364 7.02804 7.52804C9.23364 5.32243 11.8131 3.6028 14.6542 2.36916C17.6075 1.09813 20.7477 0.5 24 0.5C27.2523 0.5 30.3925 1.13551 33.3458 2.36916C36.1869 3.56542 38.7664 5.32243 40.972 7.52804C43.1776 9.73364 44.8972 12.3131 46.1308 15.1542C47.4019 18.1075 48 21.2477 48 24.5C48 27.7523 47.3645 30.8925 46.1308 33.8458C44.9346 36.6869 43.1776 39.2664 40.972 41.472C38.7664 43.6776 36.1869 45.3972 33.3458 46.6308C30.3925 47.9019 27.2523 48.5 24 48.5Z" fill="#00712D"/>
<path d="M11.4384 27.6026C12.7468 29.696 14.9898 33.0231 16.7094 35.1914C17.5319 36.2381 18.9898 36.3129 19.9244 35.4157C25.4197 30.2194 30.5038 23.64 36.5973 14.5559C36.9337 14.0325 36.7842 13.3222 36.2234 13.0231C35.8122 12.7988 35.2515 12.8736 34.9524 13.2474C28.1861 20.3876 24.7468 23.7895 18.0178 29.397C18.0178 29.397 15.887 28.0512 13.3449 25.9951C12.7842 25.5465 11.9991 25.6587 11.5505 26.2194C11.2515 26.6306 11.2141 27.1914 11.4758 27.64L11.4384 27.6026Z" fill="white"/>
</svg>
