<svg width="25" height="25" viewBox="0 0 25 25" fill="none" xmlns="http://www.w3.org/2000/svg">
<path d="M12.5 0C5.59531 0 0 5.59687 0 12.5C0 19.4031 5.59531 25 12.5 25C19.4047 25 25 19.4031 25 12.5C25 5.59687 19.4047 0 12.5 0ZM18.2922 16.0828C18.5852 16.3758 18.7498 16.7732 18.7498 17.1875C18.7498 17.6018 18.5852 17.9992 18.2922 18.2922C17.9992 18.5852 17.6018 18.7498 17.1875 18.7498C16.7732 18.7498 16.3758 18.5852 16.0828 18.2922L12.5 14.7094L8.91719 18.2922C8.77242 18.4378 8.60029 18.5533 8.41071 18.6322C8.22112 18.711 8.01783 18.7516 7.8125 18.7516C7.60717 18.7516 7.40388 18.711 7.21429 18.6322C7.02471 18.5533 6.85258 18.4378 6.70781 18.2922C6.41489 17.9992 6.25033 17.6018 6.25033 17.1875C6.25033 16.7732 6.41489 16.3758 6.70781 16.0828L10.2906 12.5L6.70781 8.91719C6.41483 8.62421 6.25024 8.22684 6.25024 7.8125C6.25024 7.39816 6.41483 7.00079 6.70781 6.70781C7.00079 6.41483 7.39816 6.25024 7.8125 6.25024C8.22684 6.25024 8.62421 6.41483 8.91719 6.70781L12.5 10.2906L16.0828 6.70781C16.3758 6.41483 16.7732 6.25024 17.1875 6.25024C17.6018 6.25024 17.9992 6.41483 18.2922 6.70781C18.5852 7.00079 18.7498 7.39816 18.7498 7.8125C18.7498 8.22684 18.5852 8.62421 18.2922 8.91719L14.7094 12.5L18.2922 16.0828Z" fill="#00712D"/>
</svg>
