<svg width="63" height="75" viewBox="0 0 63 75" fill="none" xmlns="http://www.w3.org/2000/svg">
<path d="M14.0427 0L6.15915 2.32576L0 19.3068L4.73638 23.0375L8.64329 13.8117L11.0691 14.6351L8.925 39.8589H29.9634L31.2724 25.0876L31.4004 23.7264H32.0406L31.2724 14.6351L33.7053 13.8117L37.6037 23.0375L42.3415 19.3068L36.1809 2.32576L28.2988 0C27.5163 0.650339 26.563 1.04357 25.5244 1.33597C24.187 1.70735 22.6789 1.88044 21.1707 1.88044C19.6626 1.88044 18.1545 1.70735 16.8171 1.33597C15.7785 1.04357 14.8252 0.652019 14.0427 0ZM33.7053 26.7513L33.4919 29.1039H58.9309L58.7175 26.7513H33.7053ZM33.2215 32.1288L29.4228 74.8125H38.3435L44.9594 38.3633H47.4634L54.0793 74.8125H63L59.2012 32.1288H33.2215Z" fill="#00712D"/>
</svg>
