<svg width="89" height="88" viewBox="0 0 89 88" fill="none" xmlns="http://www.w3.org/2000/svg">
<circle cx="44.0392" cy="44.0002" r="42.8268" stroke="white" stroke-width="2.34668"/>
<path d="M29.4816 37.0636V32.6857C29.4816 31.8101 30.1979 31.0938 31.0735 31.0938H63.7086C64.5842 31.0938 65.3006 31.8101 65.3006 32.6857V49.4013C65.3006 50.2768 64.5842 50.9932 63.7086 50.9932H59.3308M25.1037 37.0636H57.7388C58.161 37.0636 58.5659 37.2313 58.8645 37.5299C59.163 37.8284 59.3308 38.2333 59.3308 38.6555V55.3711C59.3308 55.7933 59.163 56.1982 58.8645 56.4968C58.5659 56.7953 58.161 56.963 57.7388 56.963H25.1037C24.6815 56.963 24.2765 56.7953 23.978 56.4968C23.6794 56.1982 23.5117 55.7933 23.5117 55.3711V38.6555C23.5117 38.2333 23.6794 37.8284 23.978 37.5299C24.2765 37.2313 24.6815 37.0636 25.1037 37.0636ZM43.4112 47.0133C43.4112 47.5411 43.2015 48.0472 42.8283 48.4204C42.4552 48.7936 41.949 49.0033 41.4212 49.0033C40.8935 49.0033 40.3873 48.7936 40.0141 48.4204C39.6409 48.0472 39.4313 47.5411 39.4313 47.0133C39.4313 46.4856 39.6409 45.9794 40.0141 45.6062C40.3873 45.233 40.8935 45.0234 41.4212 45.0234C41.949 45.0234 42.4552 45.233 42.8283 45.6062C43.2015 45.9794 43.4112 46.4856 43.4112 47.0133Z" stroke="white" stroke-width="2.98492" stroke-miterlimit="10" stroke-linejoin="round"/>
</svg>
