<svg width="1236" height="146" viewBox="0 0 1236 146" fill="none" xmlns="http://www.w3.org/2000/svg">
<path d="M60.5916 61.7498C60.1816 61.8318 59.6896 61.6678 59.1156 61.2578C58.6237 60.8478 58.1727 60.3149 57.7627 59.6589C57.4347 59.2489 57.2708 58.798 57.2708 58.306C57.2708 57.814 57.5167 57.568 58.0087 57.568C64.8143 57.2401 71.9888 55.4772 79.5324 52.2794C87.0759 48.9996 94.0045 44.8588 100.318 39.8571C106.386 35.1834 110.977 30.4277 114.093 25.59C116.635 21.7363 117.906 18.4155 117.906 15.6276C117.906 15.0537 117.824 14.3567 117.66 13.5368C117.332 12.5528 116.799 11.7739 116.061 11.1999C115.651 10.7899 114.995 10.421 114.093 10.093C112.289 9.35502 109.993 8.98605 107.206 8.98605C103.352 8.98605 98.8832 9.765 93.7995 11.3229C88.7978 12.7988 83.5501 14.9307 78.0565 17.7185C67.9711 22.8842 58.5417 28.8288 49.7682 35.5524C40.9948 42.194 32.2213 51.4184 23.4478 63.2257C17.0522 71.8352 12.2965 79.9527 9.18073 87.5782C5.98293 95.5317 4.38403 102.706 4.38403 109.102C4.38403 112.546 4.794 115.497 5.61395 117.957C7.00786 122.385 9.54971 125.583 13.2395 127.551C16.5193 129.109 20.291 129.888 24.5548 129.888C26.5227 129.888 28.8595 129.683 31.5653 129.273C41.1588 127.715 52.4331 123.082 65.3883 115.374C78.3435 107.585 92.6106 96.4746 108.19 82.0435C108.436 81.8795 108.805 81.9205 109.297 82.1665C109.871 82.3305 110.403 82.6585 110.895 83.1505C111.633 83.8884 112.002 84.6264 112.002 85.3643C112.002 85.6103 111.92 85.8153 111.756 85.9793C96.0954 100.492 81.7052 111.644 68.5861 119.433C55.5489 127.223 44.1516 131.937 34.3942 133.577C31.6883 133.987 29.3105 134.192 27.2606 134.192C22.3409 134.192 17.9132 133.208 13.9774 131.24C7.90981 128.125 3.81006 123.205 1.67819 116.481C0.776248 113.366 0.325276 110.127 0.325276 106.765C0.325276 99.7954 1.96517 92.2519 5.24497 84.1344C8.11479 76.9188 12.9525 68.6784 19.7581 59.4129C28.6135 47.5237 37.469 38.2172 46.3244 31.4937C55.1799 24.7701 64.6503 18.8254 74.7357 13.6598C80.3933 10.7899 85.805 8.61707 90.9707 7.14116C96.1364 5.58326 100.769 4.80431 104.869 4.80431C108.149 4.80431 110.854 5.25528 112.986 6.15722C114.052 6.56719 115.282 7.26415 116.676 8.24809C119.136 10.216 120.735 12.5118 121.473 15.1357C121.719 16.1196 121.842 17.1445 121.842 18.2105C121.842 21.7363 120.53 25.426 117.906 29.2798C114.544 34.3635 109.871 39.2012 103.885 43.7929C97.4073 48.8766 90.3147 53.0993 82.6072 56.4611C74.8997 59.7409 67.5611 61.5038 60.5916 61.7498ZM114.594 71.9582C114.758 71.6302 115.086 71.5482 115.578 71.7122C116.152 71.8762 116.685 72.2041 117.177 72.6961C118.079 73.4341 118.53 74.254 118.53 75.156C118.53 75.4019 118.489 75.5659 118.407 75.6479L113.856 82.9045C117.3 81.1826 120.211 80.3216 122.588 80.3216C124.392 80.3216 125.704 80.8546 126.524 81.9205C126.852 82.2485 127.098 82.8635 127.262 83.7654C127.508 84.5854 127.713 85.2003 127.877 85.6103C128.123 85.9383 128.451 86.1023 128.861 86.1023C131.403 86.2663 134.437 85.8153 137.962 84.7494C138.7 84.5034 139.11 84.3804 139.192 84.3804C139.52 84.3804 139.848 84.5854 140.176 84.9953C140.504 85.4053 140.668 85.7743 140.668 86.1023C140.668 86.3483 140.381 86.5533 139.807 86.7172C138.085 87.2092 136.077 87.7012 133.781 88.1931C131.567 88.6031 129.804 88.8081 128.492 88.8081C126.688 88.8081 125.335 88.5621 124.433 88.0702C123.613 87.4962 122.424 86.3073 120.866 84.5034C120.293 83.7654 118.776 84.1754 116.316 85.7333C113.938 87.2092 111.191 89.3001 108.075 92.0059C107.255 93.1538 106.066 95.0807 104.508 97.7866C102.951 100.41 101.721 102.501 100.819 104.059C100.655 104.387 100.327 104.469 99.8348 104.305C99.2608 104.141 98.7278 103.813 98.2359 103.321C97.3339 102.583 96.883 101.763 96.883 100.861C96.883 100.615 96.924 100.451 97.0059 100.369L114.594 71.9582ZM142.873 84.2574C144.349 83.8474 146.194 83.1505 148.408 82.1665C150.786 80.9366 152.836 78.8457 154.558 75.8939L155.173 74.541C153.861 75.115 152.262 76.0989 150.376 77.4928C147.178 79.8707 144.677 82.1255 142.873 84.2574ZM151.606 86.2253C149.146 87.4552 146.604 88.3981 143.98 89.0541C141.357 89.6281 139.676 89.915 138.938 89.915C138.036 91.9649 137.585 93.5638 137.585 94.7117C137.585 97.1716 139.143 98.4015 142.258 98.4015C144.718 98.4015 147.793 97.6636 151.483 96.1877C155.173 94.7117 158.575 92.9899 161.691 91.022C164.807 88.9721 166.775 87.2092 167.595 85.7333C168.005 84.9953 168.538 84.6264 169.194 84.6264C169.604 84.6264 169.973 84.7904 170.301 85.1183C170.875 85.6923 171.162 86.1843 171.162 86.5943C171.162 86.7582 171.08 87.0042 170.916 87.3322C169.932 89.1361 167.841 91.268 164.643 93.7278C161.527 96.1877 158.084 98.3195 154.312 100.123C150.54 101.927 147.178 102.829 144.226 102.829C142.34 102.829 140.865 102.501 139.799 101.845C137.995 100.861 136.56 99.4675 135.494 97.6636C134.346 95.8597 133.772 93.9328 133.772 91.8829C133.772 90.079 134.264 88.2341 135.248 86.3483C136.15 84.3804 137.38 82.4945 138.938 80.6906C141.48 77.8208 144.144 75.4019 146.932 73.4341C148.736 72.2041 150.376 71.2612 151.852 70.6052C153.41 69.8673 154.517 69.5803 155.173 69.7443C156.321 69.9903 157.305 70.6052 158.125 71.5892C159.354 72.9831 159.846 74.459 159.6 76.0169C159.518 76.8369 159.108 77.9848 158.37 79.4607C157.633 80.8546 156.649 82.1665 155.419 83.3964C154.271 84.5444 153 85.4873 151.606 86.2253ZM188.53 83.8884C188.53 84.3804 188.284 84.6264 187.792 84.6264H187.423C186.931 84.4624 186.398 84.1754 185.824 83.7654C185.332 83.2735 184.963 82.7405 184.717 82.1665C184.143 81.5926 183.282 81.3056 182.134 81.3056C180.822 81.3056 179.346 81.6746 177.706 82.4125C176.148 83.0685 174.918 83.7654 174.016 84.5034C169.753 87.9472 166.924 92.5389 165.53 98.2785C166.924 97.8686 169.056 96.3106 171.926 93.6048C174.795 90.899 177.829 87.7012 181.027 84.0114C181.273 83.7654 181.642 83.7244 182.134 83.8884C182.626 84.0524 183.159 84.4214 183.733 84.9953C184.471 85.8973 184.84 86.6352 184.84 87.2092C184.84 87.4552 184.799 87.6192 184.717 87.7012C183.897 89.3411 183.487 91.104 183.487 92.9899C183.487 93.3178 183.569 93.9738 183.733 94.9577C183.979 96.6796 186.767 95.3677 192.096 91.022C197.508 86.6762 200.296 84.4624 200.46 84.3804C200.87 83.9704 201.321 83.7654 201.813 83.7654C202.223 83.7654 202.592 83.9294 202.92 84.2574C203.412 84.8314 203.658 85.3643 203.658 85.8563C203.658 86.2663 203.535 86.5942 203.289 86.8402C198.369 91.186 194.802 94.3018 192.588 96.1877C190.374 97.9915 188.53 99.3035 187.054 100.123C185.332 101.025 183.692 101.476 182.134 101.476C180.576 101.476 179.346 100.943 178.444 99.8774C177.542 98.8115 177.132 97.2946 177.214 95.3267C172.377 100 168.851 102.337 166.637 102.337C166.391 102.337 166.022 102.255 165.53 102.091C164.874 101.845 164.054 101.23 163.07 100.246C161.84 98.6885 161.348 96.9666 161.594 95.0807C161.676 93.6868 162.127 92.1289 162.947 90.407C163.767 88.6031 164.874 86.8402 166.268 85.1183C167.58 83.3145 169.015 81.7975 170.573 80.5676C171.803 79.5837 173.238 78.8047 174.877 78.2308C176.517 77.6568 178.157 77.3698 179.797 77.3698C181.847 77.3698 183.651 77.8208 185.209 78.7227C186.767 79.6247 187.792 81.0186 188.284 82.9045L188.53 83.8884ZM234.497 29.8948C234.661 29.6488 234.989 29.6078 235.481 29.7718C236.055 29.9358 236.588 30.2637 237.08 30.7557C237.9 31.5757 238.31 32.3546 238.31 33.0926C238.31 33.3385 238.269 33.5025 238.187 33.5845L236.219 36.4133C229.249 46.2527 223.961 54.2882 220.353 60.5199H228.716C229.126 60.5199 229.618 60.7248 230.192 61.1348C230.766 61.5448 231.217 62.0368 231.545 62.6107C231.873 63.0207 232.037 63.5127 232.037 64.0866C232.037 64.5786 231.791 64.8246 231.299 64.8246H217.524C207.931 79.3377 202.314 88.1522 200.674 91.268C199.034 94.3838 198.214 96.6386 198.214 98.0325C198.214 98.3605 198.296 98.7705 198.46 99.2625C198.706 99.6724 199.116 99.8774 199.69 99.8774C201.33 99.8774 204.077 98.6475 207.931 96.1877C211.784 93.7278 215.679 91.022 219.615 88.0702C223.633 85.0363 225.642 83.4784 225.642 83.3964C226.38 82.8225 227.117 82.9865 227.855 83.8884C228.183 84.2164 228.347 84.5444 228.347 84.8724C228.347 85.2823 228.101 85.6513 227.609 85.9793C224.494 89.0951 219.861 93.0718 213.711 97.9096C207.562 102.747 202.396 105.166 198.214 105.166C196 105.166 194.443 104.305 193.541 102.583C193.295 102.091 193.172 101.517 193.172 100.861C193.172 98.5655 194.279 95.0807 196.492 90.407C198.624 85.6513 202.027 79.8297 206.701 72.9421C206.783 69.9083 203.79 67.7354 197.722 66.4235C191.655 65.1116 184.234 64.5786 175.461 64.8246C175.051 64.8246 174.559 64.6196 173.985 64.2096C173.411 63.7177 172.96 63.1847 172.632 62.6107C172.304 62.2008 172.14 61.7498 172.14 61.2578C172.14 60.7658 172.386 60.5199 172.878 60.5199H214.449C218.303 53.7143 222.28 47.3597 226.38 41.456C230.561 35.4704 233.267 31.6166 234.497 29.8948ZM211.743 64.8246L196.369 64.2096C202.847 66.7515 206.742 68.9243 208.054 70.7282L211.743 64.8246ZM233.274 75.4019C233.602 75.156 234.012 75.156 234.504 75.4019C235.078 75.5659 235.611 75.9349 236.103 76.5089C236.759 77.3288 237.087 78.0258 237.087 78.5997C237.087 79.0097 237.005 79.2557 236.841 79.3377C235.365 80.6496 233.643 82.4945 231.675 84.8724C229.789 87.2502 228.231 89.6691 227.001 92.1289C226.099 94.0968 225.648 95.4907 225.648 96.3106C225.648 97.2946 225.976 97.9096 226.632 98.1555C228.108 98.4015 230.24 97.5816 233.028 95.6957C235.816 93.8098 238.562 91.6779 241.268 89.3001C243.974 86.9222 245.327 85.6513 245.327 85.4873C245.901 84.9134 246.352 84.6264 246.68 84.6264C247.008 84.6264 247.336 84.7904 247.664 85.1183C248.074 85.5283 248.279 85.8973 248.279 86.2253C248.279 86.4713 248.115 86.7582 247.787 87.0862C247.705 87.1682 246.762 88.1112 244.958 89.915C243.154 91.7189 240.243 94.2198 236.226 97.4176C232.29 100.615 228.846 102.214 225.894 102.214C224.09 102.214 222.778 101.476 221.959 100C221.385 98.9345 221.098 97.6636 221.098 96.1877C221.098 93.7278 221.795 91.186 223.188 88.5621C224.5 86.0203 226.099 83.5194 227.985 81.0596C229.953 78.5177 231.716 76.6319 233.274 75.4019ZM240.899 71.8352C240.653 72.1631 240.243 72.2451 239.669 72.0811C239.177 71.8352 238.685 71.4662 238.194 70.9742C237.374 69.9903 236.964 69.2113 236.964 68.6374C236.964 68.3914 237.046 68.1864 237.21 68.0224L244.097 60.1509C244.589 59.5769 245.491 59.8639 246.803 61.0118C247.541 61.8318 247.91 62.6107 247.91 63.3487C247.91 63.6767 247.869 63.8817 247.787 63.9636L240.899 71.8352ZM244.594 86.3483C243.938 85.5283 243.61 84.8314 243.61 84.2574C243.61 84.0114 243.692 83.8064 243.856 83.6424L250.375 77.2468C250.621 77.0008 251.154 77.0828 251.973 77.4928C252.875 77.9028 253.572 78.3948 254.064 78.9687C254.72 79.7887 255.048 80.4856 255.048 81.0596C255.048 81.3056 255.007 81.4696 254.925 81.5516C254.515 81.9615 252.875 84.3804 250.006 88.8081C247.136 93.1538 245.168 96.5976 244.102 99.1395C243.938 99.4675 243.897 99.7544 243.979 100C243.979 100.164 244.102 100.246 244.348 100.246C244.922 100.246 245.578 99.8774 246.316 99.1395C249.104 97.1716 252.383 94.1788 256.155 90.161C259.927 86.1433 263.576 81.7565 267.102 77.0008L267.839 75.8939C268.331 75.238 269.028 75.4019 269.93 76.3859C270.504 76.8778 270.996 77.5748 271.406 78.4768C271.898 79.2967 272.021 79.8297 271.775 80.0757C271.693 80.1576 270.832 81.3466 269.192 83.6424C267.635 85.8563 266.856 87.6602 266.856 89.0541C267.102 89.0541 267.594 88.9721 268.331 88.8081C269.151 88.5621 270.135 88.1932 271.283 87.7012C272.513 87.1272 273.702 86.3483 274.85 85.3643C274.932 85.2823 275.178 85.0773 275.588 84.7494C275.998 84.4214 276.449 84.2574 276.941 84.2574C277.269 84.2574 277.556 84.3804 277.802 84.6264C278.376 85.2003 278.663 85.7333 278.663 86.2253C278.663 86.4713 278.54 86.7172 278.294 86.9632C276.49 88.5211 274.563 89.833 272.513 90.899C270.545 91.9649 268.741 92.4979 267.102 92.4979C265.134 92.4979 263.699 91.5549 262.797 89.6691L262.674 89.4231C257.918 94.5888 253.736 98.4015 250.129 100.861C248.243 102.255 246.685 103.198 245.455 103.69C244.635 103.854 244.061 103.936 243.733 103.936C242.257 103.936 241.068 103.362 240.166 102.214C239.51 101.476 239.141 100.697 239.059 99.8774C238.567 97.7456 240.494 93.3178 244.84 86.5943L244.594 86.3483ZM283.96 75.4019C284.288 75.156 284.698 75.156 285.19 75.4019C285.764 75.5659 286.297 75.9349 286.789 76.5089C287.445 77.3288 287.773 78.0258 287.773 78.5997C287.773 79.0097 287.691 79.2557 287.527 79.3377C286.051 80.6496 284.329 82.4945 282.361 84.8724C280.475 87.2502 278.917 89.6691 277.688 92.1289C276.786 94.0968 276.335 95.4907 276.335 96.3106C276.335 97.2946 276.663 97.9096 277.319 98.1555C278.794 98.4015 280.926 97.5816 283.714 95.6957C286.502 93.8098 289.249 91.6779 291.955 89.3001C294.66 86.9222 296.013 85.6513 296.013 85.4873C296.587 84.9134 297.038 84.6264 297.366 84.6264C297.694 84.6264 298.022 84.7904 298.35 85.1183C298.76 85.5283 298.965 85.8973 298.965 86.2253C298.965 86.4713 298.801 86.7582 298.473 87.0862C298.391 87.1682 297.448 88.1112 295.644 89.915C293.841 91.7189 290.93 94.2198 286.912 97.4176C282.976 100.615 279.532 102.214 276.581 102.214C274.777 102.214 273.465 101.476 272.645 100C272.071 98.9345 271.784 97.6636 271.784 96.1877C271.784 93.7278 272.481 91.186 273.875 88.5621C275.187 86.0203 276.786 83.5194 278.671 81.0596C280.639 78.5177 282.402 76.6319 283.96 75.4019ZM291.586 71.8352C291.34 72.1631 290.93 72.2451 290.356 72.0811C289.864 71.8352 289.372 71.4662 288.88 70.9742C288.06 69.9903 287.65 69.2113 287.65 68.6374C287.65 68.3914 287.732 68.1864 287.896 68.0224L294.783 60.1509C295.275 59.5769 296.177 59.8639 297.489 61.0118C298.227 61.8318 298.596 62.6107 298.596 63.3487C298.596 63.6767 298.555 63.8817 298.473 63.9636L291.586 71.8352ZM330.825 29.8948C330.989 29.6488 331.317 29.6078 331.809 29.7718C332.383 29.9358 332.916 30.2637 333.408 30.7557C334.228 31.5757 334.638 32.3546 334.638 33.0926C334.638 33.3385 334.597 33.5025 334.515 33.5845L332.547 36.4133C325.577 46.2527 320.289 54.2882 316.681 60.5199H325.044C325.454 60.5199 325.946 60.7248 326.52 61.1348C327.094 61.5448 327.545 62.0368 327.873 62.6107C328.201 63.0207 328.365 63.5127 328.365 64.0866C328.365 64.5786 328.119 64.8246 327.627 64.8246H313.852C304.259 79.3377 298.642 88.1522 297.002 91.268C295.362 94.3838 294.542 96.6386 294.542 98.0325C294.542 98.3605 294.624 98.7705 294.788 99.2625C295.034 99.6724 295.444 99.8774 296.018 99.8774C297.658 99.8774 300.405 98.6475 304.259 96.1877C308.112 93.7278 312.007 91.022 315.943 88.0702C319.961 85.0363 321.97 83.4784 321.97 83.3964C322.708 82.8225 323.446 82.9865 324.183 83.8884C324.511 84.2164 324.675 84.5444 324.675 84.8724C324.675 85.2823 324.429 85.6513 323.937 85.9793C320.822 89.0951 316.189 93.0718 310.039 97.9096C303.89 102.747 298.724 105.166 294.542 105.166C292.328 105.166 290.771 104.305 289.869 102.583C289.623 102.091 289.5 101.517 289.5 100.861C289.5 98.5655 290.607 95.0807 292.82 90.407C294.952 85.6513 298.355 79.8297 303.029 72.9421C303.111 69.9083 300.118 67.7354 294.05 66.4235C287.983 65.1116 280.562 64.5786 271.789 64.8246C271.379 64.8246 270.887 64.6196 270.313 64.2096C269.739 63.7177 269.288 63.1847 268.96 62.6107C268.632 62.2008 268.468 61.7498 268.468 61.2578C268.468 60.7658 268.714 60.5199 269.206 60.5199H310.777C314.631 53.7143 318.608 47.3597 322.708 41.456C326.889 35.4704 329.595 31.6166 330.825 29.8948ZM308.071 64.8246L292.697 64.2096C299.175 66.7515 303.07 68.9243 304.382 70.7282L308.071 64.8246ZM386.793 109.225C387.285 109.307 387.777 109.594 388.269 110.086C388.843 110.496 389.294 110.988 389.622 111.562C389.868 112.054 389.991 112.464 389.991 112.792C389.991 113.284 389.704 113.53 389.13 113.53C377.159 112.546 366.623 112.054 357.521 112.054C346.944 112.054 337.76 112.628 329.971 113.776C325.297 121.647 321.033 128.166 317.18 133.331C313.244 138.497 310.292 141.08 308.324 141.08C305.536 140.998 302.995 140.26 300.699 138.866C298.321 137.554 296.517 135.791 295.287 133.577C294.385 131.937 293.934 130.216 293.934 128.412C293.934 127.428 294.057 126.485 294.303 125.583C295.205 122.877 297.214 120.458 300.33 118.326C305.987 114.309 314.72 111.398 326.527 109.594C329.561 104.51 332.513 99.3445 335.383 94.0968C331.037 97.8686 327.716 99.7544 325.42 99.7544C324.436 99.7544 323.37 99.4675 322.222 98.8935C319.68 97.4996 318.41 95.4907 318.41 92.8669C318.328 91.4729 318.738 89.7101 319.639 87.5782C321.197 83.6424 324.108 79.1737 328.372 74.172C328.618 73.844 328.987 73.803 329.479 74.049C330.053 74.213 330.586 74.541 331.078 75.033C331.898 76.0169 332.308 76.7959 332.308 77.3698C332.308 77.6158 332.226 77.8208 332.062 77.9848C327.962 82.6585 325.092 87.0042 323.452 91.022C323.288 91.35 323.206 91.9649 323.206 92.8669C323.206 93.8508 323.37 94.4658 323.698 94.7117C323.944 94.7937 324.313 94.8347 324.805 94.8347C327.429 94.8347 330.381 93.3588 333.661 90.407C336.94 87.4552 339.851 84.2164 342.393 80.6906C345.017 77.1648 346.124 75.238 345.714 74.91V75.033C346.206 74.459 347.067 74.705 348.297 75.7709C349.199 76.6729 349.65 77.4518 349.65 78.1078C349.65 78.3538 349.609 78.5177 349.527 78.5997L346.821 83.3964L346.698 83.5194C345.96 84.9953 344.279 88.1932 341.655 93.1128C339.031 97.9505 336.12 103.198 332.923 108.856C339.482 108.118 346.985 107.749 355.43 107.749C364.532 107.749 374.986 108.241 386.793 109.225ZM323.452 114.883C314.597 116.768 308.037 119.269 303.773 122.385C300.904 124.353 299.059 126.526 298.239 128.904C297.993 129.642 297.87 130.38 297.87 131.117C297.87 132.019 298.075 132.88 298.485 133.7C299.059 134.602 300.002 135.299 301.314 135.791C302.544 136.365 304.019 136.693 305.741 136.775C307.299 136.775 309.677 134.725 312.875 130.626C315.991 126.608 319.516 121.36 323.452 114.883ZM401.468 73.1881C401.058 73.1881 400.566 72.9831 399.992 72.5731C399.418 72.1631 398.967 71.6712 398.639 71.0972C398.311 70.6872 398.147 70.1953 398.147 69.6213C398.147 69.1293 398.393 68.8833 398.885 68.8833H433.446C433.856 68.8833 434.307 69.0883 434.799 69.4983C435.373 69.9083 435.865 70.4412 436.275 71.0972C436.603 71.5072 436.767 71.9172 436.767 72.3271C436.767 72.9011 436.48 73.1881 435.906 73.1881H401.468ZM507.552 130.872C507.798 130.626 508.167 130.585 508.659 130.749C509.233 130.995 509.766 131.404 510.258 131.978C510.913 132.798 511.241 133.536 511.241 134.192V134.438C521.819 125.665 540.186 107.954 566.342 81.3056C556.749 81.7975 547.401 82.0435 538.3 82.0435C514.849 82.0435 500.828 80.0347 496.236 76.0169C494.187 74.213 493.162 72.2041 493.162 69.9903C493.162 69.0883 493.367 68.1044 493.777 67.0385C494.924 64.0866 497.999 60.5609 503.001 56.4611C508.085 52.4434 514.07 48.6716 520.958 45.1458C530.551 40.1441 540.842 36.0444 551.829 32.8466C562.816 29.6488 573.189 28.0499 582.946 28.0499C594.343 28.0499 603.773 30.4687 611.234 35.3064C622.714 23.4991 631.2 14.8487 636.694 9.35503C642.269 3.77937 645.426 0.950543 646.164 0.86855C649.772 0.458575 651.576 2.30346 651.576 6.4032C651.576 8.45308 651.084 11.3229 650.1 15.0127C647.64 23.7861 642.105 38.5862 633.496 59.4129C631.938 63.4307 630.134 67.5714 628.084 71.8352L636.448 70.9742C636.858 70.8922 637.309 71.0562 637.801 71.4662C638.375 71.7942 638.867 72.2861 639.277 72.9421C639.687 73.5161 639.892 74.008 639.892 74.418C639.892 74.828 639.687 75.115 639.277 75.2789L627.1 76.5089C626.198 82.2485 624.476 88.3161 621.935 94.7117C617.671 105.699 611.849 116.358 604.47 126.69C602.502 129.478 600.739 131.691 599.181 133.331C597.623 135.053 596.516 135.996 595.86 136.16C593.892 136.652 592.539 135.586 591.801 132.962C591.555 132.06 592.047 130.339 593.277 127.797C594.589 125.255 596.803 121.155 599.919 115.497C608.282 100.656 615.006 87.9062 620.09 77.2468C601.559 78.9687 586.267 80.1576 574.214 80.8136C533.216 122.631 509.807 144.278 503.985 145.754C503.739 145.836 503.329 145.877 502.755 145.877C500.951 145.877 499.762 144.688 499.188 142.31C498.942 141.326 499.434 139.973 500.664 138.251C501.894 136.529 503.206 134.971 504.6 133.577C506.076 132.183 507.06 131.281 507.552 130.872ZM570.647 76.8778C579.42 68.0224 590.613 56.5431 604.224 42.44L609.143 37.3973C602.83 33.8715 594.917 32.1086 585.406 32.1086C576.058 32.1086 565.932 33.7075 555.027 36.9053C544.121 40.1031 533.872 44.2029 524.279 49.2046C517.637 52.5664 511.733 56.2971 506.568 60.3969C500.172 65.5626 496.974 69.7033 496.974 72.8191C496.974 73.0651 497.056 73.2701 497.22 73.4341C500.828 76.6319 512.471 78.2308 532.15 78.2308C541.744 78.2308 554.576 77.7798 570.647 76.8778ZM607.79 46.3757L599.919 54.4932C595.409 59.1669 588.317 66.4235 578.641 76.2629C590.367 75.5249 604.921 74.254 622.304 72.4501L623.534 69.8673C623.698 67.4074 623.779 65.5626 623.779 64.3326C623.779 60.8888 623.411 57.65 622.673 54.6162C621.115 48.7946 618.081 44.0389 613.571 40.3491L607.79 46.3757ZM648.87 5.17328C648.132 5.25528 636.981 16.3656 615.416 38.5042C620.91 43.1779 624.599 49.1226 626.485 56.3381C626.813 57.3221 627.141 58.88 627.469 61.0118C628.289 59.1259 628.986 57.4451 629.56 55.9691C638.252 35.0604 643.745 20.3423 646.041 11.8149C646.615 9.84699 647.271 8.24809 648.009 7.01817C648.747 5.78824 649.034 5.17328 648.87 5.17328ZM614.678 99.1395C612.956 102.501 610.086 107.79 606.069 115.005C609.102 110.168 611.972 104.879 614.678 99.1395ZM660.832 87.9472C660.668 88.2751 660.34 88.3981 659.848 88.3161C659.356 88.2341 658.864 87.9472 658.372 87.4552C657.88 87.0452 657.511 86.5943 657.265 86.1023C657.019 85.6103 656.896 85.2003 656.896 84.8724V84.5034C657.142 84.0934 657.511 83.2735 658.003 82.0435C658.577 80.8136 658.741 80.1986 658.495 80.1986C657.347 80.1167 655.666 80.8136 653.452 82.2895C651.238 83.7654 649.189 85.5693 647.303 87.7012C645.909 89.2591 644.679 90.94 643.613 92.7439C642.793 94.3018 642.301 95.9007 642.137 97.5406C642.137 98.7705 642.424 99.6724 642.998 100.246C643.654 100.738 644.433 100.984 645.335 100.984C650.091 100.984 655.912 98.4835 662.8 93.4818C669.769 88.4801 673.336 85.9383 673.5 85.8563C673.746 85.7743 674.074 85.5283 674.484 85.1183C674.976 84.7084 675.386 84.5034 675.714 84.5034H675.96C676.698 85.2413 677.067 85.9793 677.067 86.7172C677.067 86.9632 676.985 87.1682 676.821 87.3322C676.985 87.3322 674.976 88.8901 670.794 92.0059C666.613 95.1217 662.267 97.9505 657.757 100.492C653.329 102.952 649.517 104.182 646.319 104.182C644.433 104.182 642.957 103.69 641.891 102.706C639.267 100.328 638.037 97.7046 638.201 94.8347C638.201 93.0309 638.734 91.145 639.8 89.1771C640.62 87.7012 641.891 85.9383 643.613 83.8884C645.581 81.6746 647.754 79.7887 650.132 78.2308C652.509 76.6729 654.436 75.8939 655.912 75.8939C660.176 75.8939 662.308 77.8208 662.308 81.6746C662.308 83.6424 661.816 85.7333 660.832 87.9472ZM709.171 29.8948C709.335 29.6488 709.663 29.6078 710.155 29.7718C710.729 29.9358 711.262 30.2637 711.754 30.7557C712.574 31.5757 712.984 32.3546 712.984 33.0926C712.984 33.3385 712.943 33.5025 712.861 33.5845L710.893 36.4133C703.923 46.2527 698.634 54.2882 695.027 60.5199H703.39C703.8 60.5199 704.292 60.7248 704.866 61.1348C705.44 61.5448 705.891 62.0368 706.219 62.6107C706.547 63.0207 706.711 63.5127 706.711 64.0866C706.711 64.5786 706.465 64.8246 705.973 64.8246H692.198C682.604 79.3377 676.988 88.1522 675.348 91.268C673.708 94.3838 672.888 96.6386 672.888 98.0325C672.888 98.3605 672.97 98.7705 673.134 99.2625C673.38 99.6724 673.79 99.8774 674.364 99.8774C676.004 99.8774 678.751 98.6475 682.604 96.1877C686.458 93.7278 690.353 91.022 694.289 88.0702C698.306 85.0363 700.315 83.4784 700.315 83.3964C701.053 82.8225 701.791 82.9865 702.529 83.8884C702.857 84.2164 703.021 84.5444 703.021 84.8724C703.021 85.2823 702.775 85.6513 702.283 85.9793C699.167 89.0951 694.535 93.0718 688.385 97.9096C682.235 102.747 677.07 105.166 672.888 105.166C670.674 105.166 669.116 104.305 668.214 102.583C667.968 102.091 667.845 101.517 667.845 100.861C667.845 98.5655 668.952 95.0807 671.166 90.407C673.298 85.6513 676.701 79.8297 681.374 72.9421C681.456 69.9083 678.464 67.7354 672.396 66.4235C666.328 65.1116 658.908 64.5786 650.134 64.8246C649.724 64.8246 649.232 64.6196 648.659 64.2096C648.085 63.7177 647.634 63.1847 647.306 62.6107C646.978 62.2008 646.814 61.7498 646.814 61.2578C646.814 60.7658 647.06 60.5199 647.552 60.5199H689.123C692.977 53.7143 696.954 47.3597 701.053 41.456C705.235 35.4704 707.941 31.6166 709.171 29.8948ZM686.417 64.8246L671.043 64.2096C677.521 66.7515 681.415 68.9243 682.727 70.7282L686.417 64.8246ZM707.948 75.4019C708.276 75.156 708.686 75.156 709.178 75.4019C709.752 75.5659 710.284 75.9349 710.776 76.5089C711.432 77.3288 711.76 78.0258 711.76 78.5997C711.76 79.0097 711.678 79.2557 711.514 79.3377C710.038 80.6496 708.317 82.4945 706.349 84.8724C704.463 87.2502 702.905 89.6691 701.675 92.1289C700.773 94.0968 700.322 95.4907 700.322 96.3106C700.322 97.2946 700.65 97.9096 701.306 98.1555C702.782 98.4015 704.914 97.5816 707.702 95.6957C710.489 93.8098 713.236 91.6779 715.942 89.3001C718.648 86.9222 720.001 85.6513 720.001 85.4873C720.575 84.9134 721.026 84.6264 721.354 84.6264C721.682 84.6264 722.01 84.7904 722.338 85.1183C722.748 85.5283 722.953 85.8973 722.953 86.2253C722.953 86.4713 722.789 86.7582 722.461 87.0862C722.379 87.1682 721.436 88.1112 719.632 89.915C717.828 91.7189 714.917 94.2198 710.899 97.4176C706.964 100.615 703.52 102.214 700.568 102.214C698.764 102.214 697.452 101.476 696.632 100C696.058 98.9345 695.771 97.6636 695.771 96.1877C695.771 93.7278 696.468 91.186 697.862 88.5621C699.174 86.0203 700.773 83.5194 702.659 81.0596C704.627 78.5177 706.39 76.6319 707.948 75.4019ZM715.573 71.8352C715.327 72.1631 714.917 72.2451 714.343 72.0811C713.851 71.8352 713.359 71.4662 712.867 70.9742C712.047 69.9903 711.637 69.2113 711.637 68.6374C711.637 68.3914 711.719 68.1864 711.883 68.0224L718.771 60.1509C719.263 59.5769 720.165 59.8639 721.477 61.0118C722.215 61.8318 722.584 62.6107 722.584 63.3487C722.584 63.6767 722.543 63.8817 722.461 63.9636L715.573 71.8352ZM719.268 86.3483C718.612 85.5283 718.284 84.8314 718.284 84.2574C718.284 84.0114 718.366 83.8064 718.53 83.6424L725.048 77.2468C725.294 77.0008 725.827 77.0828 726.647 77.4928C727.549 77.9028 728.246 78.3948 728.738 78.9687C729.394 79.7887 729.722 80.4856 729.722 81.0596C729.722 81.3056 729.681 81.4696 729.599 81.5516C729.189 81.9615 727.549 84.3804 724.679 88.8081C721.81 93.1538 719.842 96.5976 718.776 99.1395C718.612 99.4675 718.571 99.7544 718.653 100C718.653 100.164 718.776 100.246 719.022 100.246C719.596 100.246 720.252 99.8774 720.99 99.1395C723.777 97.1716 727.057 94.1788 730.829 90.161C734.601 86.1433 738.25 81.7565 741.775 77.0008L742.513 75.8939C743.005 75.238 743.702 75.4019 744.604 76.3859C745.178 76.8778 745.67 77.5748 746.08 78.4768C746.572 79.2967 746.695 79.8297 746.449 80.0757C746.367 80.1576 745.506 81.3466 743.866 83.6424C742.308 85.8563 741.529 87.6602 741.529 89.0541C741.775 89.0541 742.267 88.9721 743.005 88.8081C743.825 88.5621 744.809 88.1932 745.957 87.7012C747.187 87.1272 748.376 86.3483 749.524 85.3643C749.606 85.2823 749.852 85.0773 750.262 84.7494C750.672 84.4214 751.123 84.2574 751.615 84.2574C751.943 84.2574 752.23 84.3804 752.476 84.6264C753.05 85.2003 753.337 85.7333 753.337 86.2253C753.337 86.4713 753.214 86.7172 752.968 86.9632C751.164 88.5211 749.237 89.833 747.187 90.899C745.219 91.9649 743.415 92.4979 741.775 92.4979C739.807 92.4979 738.373 91.5549 737.471 89.6691L737.348 89.4231C732.592 94.5888 728.41 98.4015 724.802 100.861C722.916 102.255 721.359 103.198 720.129 103.69C719.309 103.854 718.735 103.936 718.407 103.936C716.931 103.936 715.742 103.362 714.84 102.214C714.184 101.476 713.815 100.697 713.733 99.8774C713.241 97.7456 715.168 93.3178 719.514 86.5943L719.268 86.3483ZM758.634 75.4019C758.962 75.156 759.372 75.156 759.864 75.4019C760.438 75.5659 760.971 75.9349 761.463 76.5089C762.119 77.3288 762.447 78.0258 762.447 78.5997C762.447 79.0097 762.365 79.2557 762.201 79.3377C760.725 80.6496 759.003 82.4945 757.035 84.8724C755.149 87.2502 753.591 89.6691 752.361 92.1289C751.459 94.0968 751.008 95.4907 751.008 96.3106C751.008 97.2946 751.336 97.9096 751.992 98.1555C753.468 98.4015 755.6 97.5816 758.388 95.6957C761.176 93.8098 763.923 91.6779 766.628 89.3001C769.334 86.9222 770.687 85.6513 770.687 85.4873C771.261 84.9134 771.712 84.6264 772.04 84.6264C772.368 84.6264 772.696 84.7904 773.024 85.1183C773.434 85.5283 773.639 85.8973 773.639 86.2253C773.639 86.4713 773.475 86.7582 773.147 87.0862C773.065 87.1682 772.122 88.1112 770.318 89.915C768.514 91.7189 765.603 94.2198 761.586 97.4176C757.65 100.615 754.206 102.214 751.254 102.214C749.45 102.214 748.139 101.476 747.319 100C746.745 98.9345 746.458 97.6636 746.458 96.1877C746.458 93.7278 747.155 91.186 748.549 88.5621C749.86 86.0203 751.459 83.5194 753.345 81.0596C755.313 78.5177 757.076 76.6319 758.634 75.4019ZM766.259 71.8352C766.013 72.1631 765.603 72.2451 765.03 72.0811C764.538 71.8352 764.046 71.4662 763.554 70.9742C762.734 69.9903 762.324 69.2113 762.324 68.6374C762.324 68.3914 762.406 68.1864 762.57 68.0224L769.457 60.1509C769.949 59.5769 770.851 59.8639 772.163 61.0118C772.901 61.8318 773.27 62.6107 773.27 63.3487C773.27 63.6767 773.229 63.8817 773.147 63.9636L766.259 71.8352ZM805.499 29.8948C805.663 29.6488 805.991 29.6078 806.483 29.7718C807.057 29.9358 807.59 30.2637 808.082 30.7557C808.902 31.5757 809.312 32.3546 809.312 33.0926C809.312 33.3385 809.271 33.5025 809.189 33.5845L807.221 36.4133C800.251 46.2527 794.962 54.2882 791.355 60.5199H799.718C800.128 60.5199 800.62 60.7248 801.194 61.1348C801.768 61.5448 802.219 62.0368 802.547 62.6107C802.875 63.0207 803.039 63.5127 803.039 64.0866C803.039 64.5786 802.793 64.8246 802.301 64.8246H788.526C778.932 79.3377 773.316 88.1522 771.676 91.268C770.036 94.3838 769.216 96.6386 769.216 98.0325C769.216 98.3605 769.298 98.7705 769.462 99.2625C769.708 99.6724 770.118 99.8774 770.692 99.8774C772.332 99.8774 775.079 98.6475 778.932 96.1877C782.786 93.7278 786.681 91.022 790.617 88.0702C794.635 85.0363 796.643 83.4784 796.643 83.3964C797.381 82.8225 798.119 82.9865 798.857 83.8884C799.185 84.2164 799.349 84.5444 799.349 84.8724C799.349 85.2823 799.103 85.6513 798.611 85.9793C795.495 89.0951 790.863 93.0718 784.713 97.9096C778.564 102.747 773.398 105.166 769.216 105.166C767.002 105.166 765.444 104.305 764.542 102.583C764.296 102.091 764.173 101.517 764.173 100.861C764.173 98.5655 765.28 95.0807 767.494 90.407C769.626 85.6513 773.029 79.8297 777.703 72.9421C777.785 69.9083 774.792 67.7354 768.724 66.4235C762.656 65.1116 755.236 64.5786 746.462 64.8246C746.053 64.8246 745.561 64.6196 744.987 64.2096C744.413 63.7177 743.962 63.1847 743.634 62.6107C743.306 62.2008 743.142 61.7498 743.142 61.2578C743.142 60.7658 743.388 60.5199 743.88 60.5199H785.451C789.305 53.7143 793.282 47.3597 797.381 41.456C801.563 35.4704 804.269 31.6166 805.499 29.8948ZM782.745 64.8246L767.371 64.2096C773.849 66.7515 777.744 68.9243 779.055 70.7282L782.745 64.8246ZM861.467 109.225C861.959 109.307 862.451 109.594 862.943 110.086C863.517 110.496 863.968 110.988 864.296 111.562C864.542 112.054 864.665 112.464 864.665 112.792C864.665 113.284 864.378 113.53 863.804 113.53C851.833 112.546 841.296 112.054 832.195 112.054C821.618 112.054 812.434 112.628 804.645 113.776C799.971 121.647 795.707 128.166 791.853 133.331C787.918 138.497 784.966 141.08 782.998 141.08C780.21 140.998 777.668 140.26 775.372 138.866C772.995 137.554 771.191 135.791 769.961 133.577C769.059 131.937 768.608 130.216 768.608 128.412C768.608 127.428 768.731 126.485 768.977 125.583C769.879 122.877 771.888 120.458 775.003 118.326C780.661 114.309 789.394 111.398 801.201 109.594C804.235 104.51 807.186 99.3445 810.056 94.0968C805.711 97.8686 802.39 99.7544 800.094 99.7544C799.11 99.7544 798.044 99.4675 796.896 98.8935C794.354 97.4996 793.083 95.4907 793.083 92.8669C793.001 91.4729 793.411 89.7101 794.313 87.5782C795.871 83.6424 798.782 79.1737 803.046 74.172C803.292 73.844 803.661 73.803 804.153 74.049C804.727 74.213 805.26 74.541 805.752 75.033C806.571 76.0169 806.981 76.7959 806.981 77.3698C806.981 77.6158 806.899 77.8208 806.735 77.9848C802.636 82.6585 799.766 87.0042 798.126 91.022C797.962 91.35 797.88 91.9649 797.88 92.8669C797.88 93.8508 798.044 94.4658 798.372 94.7117C798.618 94.7937 798.987 94.8347 799.479 94.8347C802.103 94.8347 805.055 93.3588 808.334 90.407C811.614 87.4552 814.525 84.2164 817.067 80.6906C819.691 77.1648 820.798 75.238 820.388 74.91V75.033C820.88 74.459 821.741 74.705 822.97 75.7709C823.872 76.6729 824.323 77.4518 824.323 78.1078C824.323 78.3538 824.282 78.5177 824.2 78.5997L821.495 83.3964L821.372 83.5194C820.634 84.9953 818.953 88.1932 816.329 93.1128C813.705 97.9505 810.794 103.198 807.596 108.856C814.156 108.118 821.659 107.749 830.104 107.749C839.205 107.749 849.66 108.241 861.467 109.225ZM798.126 114.883C789.271 116.768 782.711 119.269 778.447 122.385C775.577 124.353 773.733 126.526 772.913 128.904C772.667 129.642 772.544 130.38 772.544 131.117C772.544 132.019 772.749 132.88 773.159 133.7C773.733 134.602 774.675 135.299 775.987 135.791C777.217 136.365 778.693 136.693 780.415 136.775C781.973 136.775 784.351 134.725 787.549 130.626C790.664 126.608 794.19 121.36 798.126 114.883ZM876.142 73.1881C875.732 73.1881 875.24 72.9831 874.666 72.5731C874.092 72.1631 873.641 71.6712 873.313 71.0972C872.985 70.6872 872.821 70.1953 872.821 69.6213C872.821 69.1293 873.067 68.8833 873.559 68.8833H908.12C908.53 68.8833 908.981 69.0883 909.473 69.4983C910.047 69.9083 910.538 70.4412 910.948 71.0972C911.276 71.5072 911.44 71.9172 911.44 72.3271C911.44 72.9011 911.153 73.1881 910.579 73.1881H876.142ZM1110.88 36.4133C1110.63 36.6593 1110.22 36.7003 1109.65 36.5363C1109.15 36.2904 1108.66 35.8804 1108.17 35.3064C1107.43 34.5685 1107.06 33.8305 1107.06 33.0926C1107.06 32.8466 1107.14 32.6416 1107.31 32.4776C1107.8 32.0676 1108.13 31.3707 1108.29 30.3867L1108.42 29.2798C1108.42 28.0499 1108.01 26.7789 1107.19 25.467C1106.2 23.7451 1104.32 22.0232 1101.53 20.3013C1095.46 16.8576 1087.38 15.1357 1077.3 15.1357C1068.2 15.1357 1058.48 16.4476 1048.15 19.0714C1037.82 21.6133 1028.92 24.6061 1021.46 28.0499C1014.98 31.0837 1008.79 34.9784 1002.89 39.7341C996.985 44.4079 994.033 49.2866 994.033 54.3702C994.033 55.9281 994.402 57.527 995.14 59.1669C996.452 62.0368 998.993 64.4146 1002.77 66.3005C1006.54 68.1864 1011.78 70.2773 1018.51 72.5731C1019.08 72.8191 1020.15 73.2291 1021.71 73.803C1023.35 74.295 1025.48 75.074 1028.1 76.1399C1030.73 77.2058 1032.98 78.2718 1034.87 79.3377C1043.39 84.0934 1047.66 90.325 1047.66 98.0325C1047.66 104.51 1044.79 111.111 1039.05 117.834C1033.39 124.558 1026.22 130.134 1017.52 134.561C1008.83 139.071 1000.35 141.408 992.065 141.572C987.719 141.818 983.455 141.244 979.274 139.85C975.092 138.538 971.648 136.488 968.942 133.7C966.236 130.913 964.884 127.551 964.884 123.615C964.884 117.383 969.967 110.209 980.135 102.091C980.381 101.845 980.75 101.845 981.242 102.091C981.815 102.337 982.348 102.747 982.84 103.321C983.496 103.977 983.824 104.674 983.824 105.412C983.824 105.74 983.742 105.945 983.578 106.027C973.821 113.817 968.942 120.54 968.942 126.198C968.942 129.724 971.074 132.101 975.338 133.331C979.602 134.561 983.865 135.094 988.129 134.93C995.755 134.766 1003.87 132.511 1012.48 128.166C1021.17 123.82 1028.47 118.531 1034.37 112.3C1040.28 105.986 1043.23 100.123 1043.23 94.7117C1043.23 89.7921 1040.61 85.8563 1035.36 82.9045C1032.32 81.2646 1027.16 79.1737 1019.86 76.6319C1014.53 74.828 1010.27 73.2291 1007.07 71.8352C1003.87 70.4412 1000.84 68.6784 997.968 66.5465C995.181 64.3326 993.049 61.6678 991.573 58.552C990.507 56.3381 989.974 54.0833 989.974 51.7874C989.974 45.9658 992.803 40.5131 998.46 35.4294C1004.2 30.3457 1010.51 26.164 1017.4 22.8842C1024.7 19.4404 1033.39 16.5706 1043.48 14.2747C1053.64 11.8969 1063.36 10.7079 1072.62 10.7079C1084.43 10.7079 1093.9 12.7168 1101.04 16.7346C1105.3 19.2764 1108.37 22.1872 1110.26 25.467C1111.98 28.1729 1112.68 30.7967 1112.35 33.3385C1112.11 34.8145 1111.61 35.8394 1110.88 36.4133ZM1065.32 84.2574C1066.79 83.8474 1068.64 83.1505 1070.85 82.1665C1073.23 80.9366 1075.28 78.8457 1077 75.8939L1077.62 74.541C1076.3 75.115 1074.7 76.0989 1072.82 77.4928C1069.62 79.8707 1067.12 82.1255 1065.32 84.2574ZM1074.05 86.2253C1071.59 87.4552 1069.05 88.3981 1066.42 89.0541C1063.8 89.6281 1062.12 89.915 1061.38 89.915C1060.48 91.9649 1060.03 93.5638 1060.03 94.7117C1060.03 97.1716 1061.59 98.4015 1064.7 98.4015C1067.16 98.4015 1070.24 97.6636 1073.93 96.1877C1077.62 94.7117 1081.02 92.9899 1084.13 91.022C1087.25 88.9721 1089.22 87.2092 1090.04 85.7333C1090.45 84.9953 1090.98 84.6264 1091.64 84.6264C1092.05 84.6264 1092.42 84.7904 1092.74 85.1183C1093.32 85.6923 1093.6 86.1843 1093.6 86.5943C1093.6 86.7582 1093.52 87.0042 1093.36 87.3322C1092.37 89.1361 1090.28 91.268 1087.09 93.7278C1083.97 96.1877 1080.53 98.3195 1076.75 100.123C1072.98 101.927 1069.62 102.829 1066.67 102.829C1064.78 102.829 1063.31 102.501 1062.24 101.845C1060.44 100.861 1059 99.4675 1057.94 97.6636C1056.79 95.8597 1056.22 93.9328 1056.22 91.8829C1056.22 90.079 1056.71 88.2341 1057.69 86.3483C1058.59 84.3804 1059.82 82.4945 1061.38 80.6906C1063.92 77.8208 1066.59 75.4019 1069.38 73.4341C1071.18 72.2041 1072.82 71.2612 1074.29 70.6052C1075.85 69.8673 1076.96 69.5803 1077.62 69.7443C1078.76 69.9903 1079.75 70.6052 1080.57 71.5892C1081.8 72.9831 1082.29 74.459 1082.04 76.0169C1081.96 76.8369 1081.55 77.9848 1080.81 79.4607C1080.08 80.8546 1079.09 82.1665 1077.86 83.3964C1076.71 84.5444 1075.44 85.4873 1074.05 86.2253ZM1097.81 71.9582C1097.98 71.6302 1098.3 71.5482 1098.8 71.7122C1099.37 71.8762 1099.9 72.2041 1100.4 72.6961C1101.3 73.4341 1101.75 74.254 1101.75 75.156C1101.75 75.4019 1101.71 75.5659 1101.63 75.6479L1097.07 82.9045C1100.52 81.1826 1103.43 80.3216 1105.81 80.3216C1107.61 80.3216 1108.92 80.8546 1109.74 81.9205C1110.07 82.2485 1110.32 82.8635 1110.48 83.7654C1110.73 84.5854 1110.93 85.2003 1111.1 85.6103C1111.34 85.9383 1111.67 86.1023 1112.08 86.1023C1114.62 86.2663 1117.66 85.8153 1121.18 84.7494C1121.92 84.5034 1122.33 84.3804 1122.41 84.3804C1122.74 84.3804 1123.07 84.5854 1123.39 84.9953C1123.72 85.4053 1123.89 85.7743 1123.89 86.1023C1123.89 86.3483 1123.6 86.5533 1123.03 86.7172C1121.3 87.2092 1119.3 87.7012 1117 88.1931C1114.79 88.6031 1113.02 88.8081 1111.71 88.8081C1109.91 88.8081 1108.55 88.5621 1107.65 88.0702C1106.83 87.4962 1105.64 86.3073 1104.09 84.5034C1103.51 83.7654 1101.99 84.1754 1099.53 85.7333C1097.16 87.2092 1094.41 89.3001 1091.29 92.0059C1090.47 93.1538 1089.28 95.0807 1087.73 97.7866C1086.17 100.41 1084.94 102.501 1084.04 104.059C1083.87 104.387 1083.55 104.469 1083.05 104.305C1082.48 104.141 1081.95 103.813 1081.45 103.321C1080.55 102.583 1080.1 101.763 1080.1 100.861C1080.1 100.615 1080.14 100.451 1080.22 100.369L1097.81 71.9582ZM1120.43 86.3483C1119.78 85.5283 1119.45 84.8314 1119.45 84.2574C1119.45 84.0114 1119.53 83.8064 1119.7 83.6424L1126.21 77.2468C1126.46 77.0008 1126.99 77.0828 1127.81 77.4928C1128.72 77.9028 1129.41 78.3948 1129.9 78.9687C1130.56 79.7887 1130.89 80.4856 1130.89 81.0596C1130.89 81.3056 1130.85 81.4696 1130.77 81.5516C1130.36 81.9615 1128.72 84.3804 1125.85 88.8081C1122.98 93.1538 1121.01 96.5976 1119.94 99.1395C1119.78 99.4675 1119.74 99.7544 1119.82 100C1119.82 100.164 1119.94 100.246 1120.19 100.246C1120.76 100.246 1121.42 99.8774 1122.16 99.1395C1124.94 97.1716 1128.22 94.1788 1132 90.161C1135.77 86.1433 1139.42 81.7565 1142.94 77.0008L1143.68 75.8939C1144.17 75.238 1144.87 75.4019 1145.77 76.3859C1146.34 76.8778 1146.84 77.5748 1147.25 78.4768C1147.74 79.2967 1147.86 79.8297 1147.62 80.0757C1147.53 80.1576 1146.67 81.3466 1145.03 83.6424C1143.47 85.8563 1142.7 87.6602 1142.7 89.0541C1142.94 89.0541 1143.43 88.9721 1144.17 88.8081C1144.99 88.5621 1145.98 88.1932 1147.12 87.7012C1148.35 87.1272 1149.54 86.3483 1150.69 85.3643C1150.77 85.2823 1151.02 85.0773 1151.43 84.7494C1151.84 84.4214 1152.29 84.2574 1152.78 84.2574C1153.11 84.2574 1153.4 84.3804 1153.64 84.6264C1154.22 85.2003 1154.5 85.7333 1154.5 86.2253C1154.5 86.4713 1154.38 86.7172 1154.13 86.9632C1152.33 88.5211 1150.4 89.833 1148.35 90.899C1146.39 91.9649 1144.58 92.4979 1142.94 92.4979C1140.97 92.4979 1139.54 91.5549 1138.64 89.6691L1138.51 89.4231C1133.76 94.5888 1129.58 98.4015 1125.97 100.861C1124.08 102.255 1122.53 103.198 1121.3 103.69C1120.48 103.854 1119.9 103.936 1119.57 103.936C1118.1 103.936 1116.91 103.362 1116.01 102.214C1115.35 101.476 1114.98 100.697 1114.9 99.8774C1114.41 97.7456 1116.33 93.3178 1120.68 86.5943L1120.43 86.3483ZM1159.8 75.4019C1160.13 75.156 1160.54 75.156 1161.03 75.4019C1161.6 75.5659 1162.14 75.9349 1162.63 76.5089C1163.29 77.3288 1163.61 78.0258 1163.61 78.5997C1163.61 79.0097 1163.53 79.2557 1163.37 79.3377C1161.89 80.6496 1160.17 82.4945 1158.2 84.8724C1156.32 87.2502 1154.76 89.6691 1153.53 92.1289C1152.63 94.0968 1152.17 95.4907 1152.17 96.3106C1152.17 97.2946 1152.5 97.9096 1153.16 98.1555C1154.63 98.4015 1156.77 97.5816 1159.55 95.6957C1162.34 93.8098 1165.09 91.6779 1167.79 89.3001C1170.5 86.9222 1171.85 85.6513 1171.85 85.4873C1172.43 84.9134 1172.88 84.6264 1173.21 84.6264C1173.53 84.6264 1173.86 84.7904 1174.19 85.1183C1174.6 85.5283 1174.81 85.8973 1174.81 86.2253C1174.81 86.4713 1174.64 86.7582 1174.31 87.0862C1174.23 87.1682 1173.29 88.1112 1171.48 89.915C1169.68 91.7189 1166.77 94.2198 1162.75 97.4176C1158.82 100.615 1155.37 102.214 1152.42 102.214C1150.62 102.214 1149.31 101.476 1148.49 100C1147.91 98.9345 1147.62 97.6636 1147.62 96.1877C1147.62 93.7278 1148.32 91.186 1149.72 88.5621C1151.03 86.0203 1152.63 83.5194 1154.51 81.0596C1156.48 78.5177 1158.24 76.6319 1159.8 75.4019ZM1167.43 71.8352C1167.18 72.1631 1166.77 72.2451 1166.2 72.0811C1165.7 71.8352 1165.21 71.4662 1164.72 70.9742C1163.9 69.9903 1163.49 69.2113 1163.49 68.6374C1163.49 68.3914 1163.57 68.1864 1163.74 68.0224L1170.62 60.1509C1171.12 59.5769 1172.02 59.8639 1173.33 61.0118C1174.07 61.8318 1174.44 62.6107 1174.44 63.3487C1174.44 63.6767 1174.4 63.8817 1174.31 63.9636L1167.43 71.8352ZM1188.95 87.9472C1188.79 88.2751 1188.46 88.3981 1187.97 88.3161C1187.48 88.2341 1186.99 87.9472 1186.49 87.4552C1186 87.0452 1185.63 86.5943 1185.39 86.1023C1185.14 85.6103 1185.02 85.2003 1185.02 84.8724V84.5034C1185.26 84.0934 1185.63 83.2735 1186.13 82.0435C1186.7 80.8136 1186.86 80.1986 1186.62 80.1986C1185.47 80.1167 1183.79 80.8136 1181.57 82.2895C1179.36 83.7654 1177.31 85.5693 1175.43 87.7012C1174.03 89.2591 1172.8 90.94 1171.74 92.7439C1170.92 94.3018 1170.42 95.9007 1170.26 97.5406C1170.26 98.7705 1170.55 99.6724 1171.12 100.246C1171.78 100.738 1172.56 100.984 1173.46 100.984C1178.21 100.984 1184.03 98.4835 1190.92 93.4818C1197.89 88.4801 1201.46 85.9383 1201.62 85.8563C1201.87 85.7743 1202.2 85.5283 1202.61 85.1183C1203.1 84.7084 1203.51 84.5034 1203.84 84.5034H1204.08C1204.82 85.2413 1205.19 85.9793 1205.19 86.7172C1205.19 86.9632 1205.11 87.1682 1204.94 87.3322C1205.11 87.3322 1203.1 88.8901 1198.92 92.0059C1194.74 95.1217 1190.39 97.9505 1185.88 100.492C1181.45 102.952 1177.64 104.182 1174.44 104.182C1172.56 104.182 1171.08 103.69 1170.01 102.706C1167.39 100.328 1166.16 97.7046 1166.32 94.8347C1166.32 93.0309 1166.86 91.145 1167.92 89.1771C1168.74 87.7012 1170.01 85.9383 1171.74 83.8884C1173.7 81.6746 1175.88 79.7887 1178.25 78.2308C1180.63 76.6729 1182.56 75.8939 1184.03 75.8939C1188.3 75.8939 1190.43 77.8208 1190.43 81.6746C1190.43 83.6424 1189.94 85.7333 1188.95 87.9472ZM1207.41 84.2574C1208.88 83.8474 1210.73 83.1505 1212.94 82.1665C1215.32 80.9366 1217.37 78.8457 1219.09 75.8939L1219.71 74.541C1218.39 75.115 1216.79 76.0989 1214.91 77.4928C1211.71 79.8707 1209.21 82.1255 1207.41 84.2574ZM1216.14 86.2253C1213.68 87.4552 1211.14 88.3981 1208.51 89.0541C1205.89 89.6281 1204.21 89.915 1203.47 89.915C1202.57 91.9649 1202.12 93.5638 1202.12 94.7117C1202.12 97.1716 1203.68 98.4015 1206.79 98.4015C1209.25 98.4015 1212.33 97.6636 1216.02 96.1877C1219.71 94.7117 1223.11 92.9899 1226.22 91.022C1229.34 88.9721 1231.31 87.2092 1232.13 85.7333C1232.54 84.9953 1233.07 84.6264 1233.73 84.6264C1234.14 84.6264 1234.51 84.7904 1234.83 85.1183C1235.41 85.6923 1235.69 86.1843 1235.69 86.5943C1235.69 86.7582 1235.61 87.0042 1235.45 87.3322C1234.46 89.1361 1232.37 91.268 1229.18 93.7278C1226.06 96.1877 1222.62 98.3195 1218.84 100.123C1215.07 101.927 1211.71 102.829 1208.76 102.829C1206.87 102.829 1205.4 102.501 1204.33 101.845C1202.53 100.861 1201.09 99.4675 1200.03 97.6636C1198.88 95.8597 1198.3 93.9328 1198.3 91.8829C1198.3 90.079 1198.8 88.2341 1199.78 86.3483C1200.68 84.3804 1201.91 82.4945 1203.47 80.6906C1206.01 77.8208 1208.68 75.4019 1211.47 73.4341C1213.27 72.2041 1214.91 71.2612 1216.38 70.6052C1217.94 69.8673 1219.05 69.5803 1219.71 69.7443C1220.85 69.9903 1221.84 70.6052 1222.66 71.5892C1223.89 72.9831 1224.38 74.459 1224.13 76.0169C1224.05 76.8369 1223.64 77.9848 1222.9 79.4607C1222.17 80.8546 1221.18 82.1665 1219.95 83.3964C1218.8 84.5444 1217.53 85.4873 1216.14 86.2253Z" fill="white"/>
</svg>
