<svg width="48" height="61" viewBox="0 0 48 61" fill="none" xmlns="http://www.w3.org/2000/svg">
<path fill-rule="evenodd" clip-rule="evenodd" d="M30.9677 0.774193C30.9677 0.568865 30.8862 0.371946 30.741 0.226756C30.5958 0.0815667 30.3989 0 30.1935 0H8.51613C6.25751 0 4.0914 0.897233 2.49432 2.49432C0.897232 4.0914 0 6.25751 0 8.51613V51.871C0 54.1296 0.897232 56.2957 2.49432 57.8928C4.0914 59.4899 6.25751 60.3871 8.51613 60.3871H39.4839C41.7425 60.3871 43.9086 59.4899 45.5057 57.8928C47.1028 56.2957 48 54.1296 48 51.871V21.3584C48 21.1531 47.9184 20.9562 47.7732 20.811C47.6281 20.6658 47.4311 20.5843 47.2258 20.5843H33.2903C32.6743 20.5843 32.0836 20.3396 31.648 19.904C31.2124 19.4684 30.9677 18.8777 30.9677 18.2617V0.774193ZM33.2903 30.9677C33.9063 30.9677 34.4971 31.2124 34.9326 31.648C35.3682 32.0836 35.6129 32.6743 35.6129 33.2903C35.6129 33.9063 35.3682 34.4971 34.9326 34.9326C34.4971 35.3682 33.9063 35.6129 33.2903 35.6129H14.7097C14.0937 35.6129 13.5029 35.3682 13.0674 34.9326C12.6318 34.4971 12.3871 33.9063 12.3871 33.2903C12.3871 32.6743 12.6318 32.0836 13.0674 31.648C13.5029 31.2124 14.0937 30.9677 14.7097 30.9677H33.2903ZM33.2903 43.3548C33.9063 43.3548 34.4971 43.5995 34.9326 44.0351C35.3682 44.4707 35.6129 45.0614 35.6129 45.6774C35.6129 46.2934 35.3682 46.8842 34.9326 47.3197C34.4971 47.7553 33.9063 48 33.2903 48H14.7097C14.0937 48 13.5029 47.7553 13.0674 47.3197C12.6318 46.8842 12.3871 46.2934 12.3871 45.6774C12.3871 45.0614 12.6318 44.4707 13.0674 44.0351C13.5029 43.5995 14.0937 43.3548 14.7097 43.3548H33.2903Z" fill="#00712D"/>
<path d="M35.6113 1.77749C35.6113 1.20769 36.209 0.845364 36.6518 1.20149C37.0276 1.50498 37.361 1.85801 37.6521 2.26059L46.9827 15.2578C47.1933 15.555 46.9641 15.939 46.5987 15.939H36.3855C36.1802 15.939 35.9833 15.8575 35.8381 15.7123C35.6929 15.5671 35.6113 15.3702 35.6113 15.1648V1.77749Z" fill="#00712D"/>
</svg>
