<svg width="89" height="88" viewBox="0 0 89 88" fill="none" xmlns="http://www.w3.org/2000/svg">
<circle cx="44.0939" cy="44.0002" r="42.8268" stroke="white" stroke-width="2.34668"/>
<path d="M43.0326 55.1704C40.037 55.0288 37.211 53.7386 35.1417 51.5679C33.0725 49.3971 31.919 46.5127 31.9208 43.5137C31.9208 37.0724 37.1556 31.8376 43.597 31.8376C49.8631 31.8376 54.9617 36.761 55.2536 42.9494L51.167 41.7234C50.8489 40.3743 50.1763 39.1347 49.2187 38.1327C48.2612 37.1307 47.0534 36.4026 45.7201 36.0236C44.3869 35.6447 42.9767 35.6287 41.6353 35.9773C40.2938 36.3259 39.0698 37.0264 38.0897 38.0065C37.1097 38.9865 36.4091 40.2106 36.0605 41.552C35.7119 42.8935 35.7279 44.3037 36.1069 45.6369C36.4858 46.9701 37.2139 48.1779 38.216 49.1355C39.218 50.0931 40.4576 50.7657 41.8066 51.0837L43.0326 55.1704ZM63.0572 43.5137C63.0572 44.0975 63.0377 44.6813 62.9793 45.2651L59.1457 44.117C59.1651 43.9224 59.1651 43.7083 59.1651 43.5137C59.1651 34.9123 52.1984 27.9455 43.597 27.9455C34.9955 27.9455 28.0288 34.9123 28.0288 43.5137C28.0288 52.1151 34.9955 59.0819 43.597 59.0819C43.7916 59.0819 44.0056 59.0819 44.2002 59.0624L45.3484 62.8961C44.7646 62.9545 44.1808 62.9739 43.597 62.9739C32.8549 62.9739 24.1367 54.2558 24.1367 43.5137C24.1367 32.7717 32.8549 24.0535 43.597 24.0535C54.339 24.0535 63.0572 32.7717 63.0572 43.5137ZM55.7207 51.8038L63.0572 49.3518L43.597 43.5137L49.435 62.9739L51.887 55.6374L60.1965 63.9469L64.0497 60.0938L55.7207 51.8038Z" fill="white"/>
</svg>
