<svg width="24" height="20" viewBox="0 0 24 20" fill="none" xmlns="http://www.w3.org/2000/svg">
<path fill-rule="evenodd" clip-rule="evenodd" d="M3.5625 19.6973C2.61767 19.6973 1.71153 19.3219 1.04343 18.6538C0.375334 17.9857 0 17.0796 0 16.1348V4.25977C0 3.31493 0.375334 2.4088 1.04343 1.7407C1.71153 1.0726 2.61767 0.697266 3.5625 0.697266H20.1875C21.1323 0.697266 22.0385 1.0726 22.7066 1.7407C23.3747 2.4088 23.75 3.31493 23.75 4.25977V16.1348C23.75 17.0796 23.3747 17.9857 22.7066 18.6538C22.0385 19.3219 21.1323 19.6973 20.1875 19.6973H3.5625ZM6.67969 5.70852C6.55872 5.60522 6.41824 5.52729 6.26657 5.47933C6.11491 5.43138 5.95515 5.41438 5.79679 5.42935C5.63843 5.44432 5.4847 5.49096 5.34471 5.56649C5.20472 5.64201 5.08133 5.7449 4.98186 5.86903C4.8824 5.99316 4.80889 6.13601 4.76569 6.2891C4.72249 6.44219 4.71049 6.60239 4.7304 6.76021C4.75031 6.91802 4.80172 7.07023 4.88159 7.20779C4.96145 7.34536 5.06814 7.46548 5.19531 7.56102L9.64844 11.1247C10.2803 11.6306 11.0656 11.9062 11.875 11.9062C12.6844 11.9062 13.4697 11.6306 14.1016 11.1247L18.5547 7.5622C18.6765 7.46474 18.7779 7.34424 18.8531 7.20758C18.9283 7.07093 18.9759 6.9208 18.9931 6.76576C19.0103 6.61072 18.9968 6.45381 18.9534 6.30399C18.9099 6.15417 18.8374 6.01437 18.7399 5.89258C18.6425 5.77079 18.522 5.66938 18.3853 5.59416C18.2487 5.51893 18.0985 5.47136 17.9435 5.45416C17.7885 5.43696 17.6315 5.45046 17.4817 5.4939C17.3319 5.53734 17.1921 5.60986 17.0703 5.70733L12.6172 9.26983C12.4066 9.43846 12.1448 9.53034 11.875 9.53034C11.6052 9.53034 11.3434 9.43846 11.1328 9.26983L6.67969 5.70852Z" fill="white"/>
</svg>
