<svg width="27" height="28" viewBox="0 0 27 28" fill="none" xmlns="http://www.w3.org/2000/svg">
<path d="M25.126 0.833984H1.46236C1.07452 0.833984 0.702561 0.988054 0.428315 1.2623C0.15407 1.53655 0 1.9085 0 2.29634V25.96C0 26.3478 0.15407 26.7198 0.428315 26.994C0.702561 27.2683 1.07452 27.4223 1.46236 27.4223H14.1982V17.1194H10.7417V13.1311H14.1982V10.1399C14.1266 9.43765 14.2095 8.72824 14.4411 8.06141C14.6727 7.39459 15.0474 6.78651 15.5389 6.27983C16.0303 5.77314 16.6267 5.38012 17.2862 5.12832C17.9456 4.87652 18.6522 4.77205 19.3563 4.82224C20.3911 4.81509 21.4253 4.86836 22.4539 4.98177V8.5712H20.3401C18.665 8.5712 18.346 9.36885 18.346 10.5254V13.0912H22.3342L21.8157 17.0795H18.346V27.4223H25.126C25.318 27.4223 25.5082 27.3845 25.6856 27.311C25.863 27.2375 26.0243 27.1298 26.16 26.994C26.2958 26.8582 26.4036 26.697 26.477 26.5196C26.5505 26.3422 26.5884 26.152 26.5884 25.96V2.29634C26.5884 2.1043 26.5505 1.91414 26.477 1.73672C26.4036 1.5593 26.2958 1.39809 26.16 1.2623C26.0243 1.12651 25.863 1.01879 25.6856 0.9453C25.5082 0.87181 25.318 0.833984 25.126 0.833984Z" fill="white"/>
</svg>
