<svg width="75" height="52" viewBox="0 0 75 52" fill="none" xmlns="http://www.w3.org/2000/svg">
<path d="M49.0385 23.0788C46.3658 21.464 43.8286 19.635 41.4519 17.6096L28.9038 1.27688C28.514 0.76166 27.9782 0.375649 27.3661 0.169044C26.7539 -0.0375605 26.0938 -0.0551991 25.4715 0.118423C24.8492 0.292046 24.2935 0.648895 23.8767 1.14257C23.46 1.63624 23.2014 2.24389 23.1346 2.8865H23.0769V11.5403H12.7442C12.3614 11.5418 11.9822 11.467 11.6286 11.3205C11.275 11.1739 10.9541 10.9584 10.6846 10.6865C10.6846 10.6865 8.65385 5.77111 5.76923 5.77111H2.88462C2.11957 5.77111 1.38585 6.07503 0.844884 6.616C0.303914 7.15697 0 7.89068 0 8.65573V34.6173H31.7308C40.3846 34.6173 43.2692 40.3865 51.9231 40.3865H75V37.5019C75 28.848 55.0788 26.5057 49.0385 23.0788ZM49.0385 46.1557C45.9308 46.0683 42.8983 45.18 40.2346 43.5769C36.7699 41.5662 32.8512 40.4685 28.8462 40.3865H0V49.0403C0 49.8054 0.303914 50.5391 0.844884 51.0801C1.38585 51.621 2.11957 51.925 2.88462 51.925H25.9615C26.7266 51.925 27.4603 51.621 28.0013 51.0801C28.5422 50.5391 28.8462 49.8054 28.8462 49.0403V46.1557C31.9538 46.2432 34.9863 47.1314 37.65 48.7346C41.1148 50.7452 45.0334 51.843 49.0385 51.925H72.1154C72.8804 51.925 73.6142 51.621 74.1551 51.0801C74.6961 50.5391 75 49.8054 75 49.0403V46.1557H49.0385Z" fill="#00712D"/>
</svg>
