<svg width="13" height="13" viewBox="0 0 13 13" fill="none" xmlns="http://www.w3.org/2000/svg">
<path d="M5.03386 3.90247e-08C5.9853 -0.000118401 6.9173 0.269364 7.72186 0.77722C8.52642 1.28508 9.17061 2.01052 9.57978 2.86948C9.98895 3.72844 10.1463 4.68577 10.0337 5.63052C9.92113 6.57527 9.54312 7.46877 8.94352 8.2075L12.3462 11.6102C12.4397 11.703 12.4945 11.8278 12.4996 11.9594C12.5047 12.091 12.4598 12.2196 12.3739 12.3195C12.288 12.4193 12.1675 12.4828 12.0366 12.4974C11.9057 12.5119 11.7742 12.4763 11.6685 12.3977L11.6101 12.347L8.20673 8.94429C7.58096 9.452 6.84247 9.80209 6.05331 9.96514C5.26415 10.1282 4.44738 10.0994 3.67165 9.88127C2.89591 9.66311 2.18388 9.26194 1.59538 8.71146C1.00688 8.16099 0.55911 7.47729 0.289703 6.71784C0.0202958 5.95838 -0.062878 5.14535 0.0471711 4.34707C0.15722 3.5488 0.457277 2.7886 0.922124 2.13036C1.38697 1.47213 2.00303 0.935091 2.71852 0.564382C3.43401 0.193673 4.22804 0.000123657 5.03386 3.90247e-08ZM5.03386 1.04165C4.5095 1.04165 3.99027 1.14493 3.50581 1.3456C3.02136 1.54626 2.58118 1.84038 2.2104 2.21117C1.83961 2.58195 1.54549 3.02213 1.34483 3.50659C1.14416 3.99104 1.04088 4.51027 1.04088 5.03464C1.04088 5.559 1.14416 6.07823 1.34483 6.56269C1.54549 7.04714 1.83961 7.48732 2.2104 7.8581C2.58118 8.22889 3.02136 8.52301 3.50581 8.72368C3.99027 8.92434 4.5095 9.02762 5.03386 9.02762C6.09287 9.02762 7.1085 8.60693 7.85733 7.8581C8.60616 7.10927 9.02685 6.09364 9.02685 5.03464C9.02685 3.97563 8.60616 2.96 7.85733 2.21117C7.1085 1.46234 6.09287 1.04165 5.03386 1.04165Z" fill="#00712D"/>
</svg>
