<svg width="89" height="88" viewBox="0 0 89 88" fill="none" xmlns="http://www.w3.org/2000/svg">
<circle cx="44.883" cy="44.0002" r="42.8268" stroke="white" stroke-width="2.34668"/>
<path d="M58.6443 45.5204C57.89 51.8015 53.7762 54.3112 51.9994 56.1331C50.22 57.9603 50.5387 58.3242 50.6582 61.0039C50.6782 61.3355 50.63 61.6676 50.5167 61.9798C50.4034 62.292 50.2274 62.5778 49.9995 62.8194C49.7715 63.061 49.4966 63.2533 49.1915 63.3846C48.8864 63.5159 48.5576 63.5833 48.2255 63.5827H41.1663C40.8343 63.5822 40.506 63.514 40.2013 63.3823C39.8966 63.2507 39.622 63.0583 39.3941 62.817C39.1662 62.5757 38.9898 62.2905 38.8758 61.9787C38.7618 61.667 38.7125 61.3353 38.7309 61.0039C38.7309 58.3746 38.9752 57.7638 37.3923 56.1331C35.3739 54.1147 30.6253 51.265 30.6253 43.4276C30.6132 41.4809 31.0044 39.5528 31.7745 37.7648C32.5445 35.9768 33.6766 34.3677 35.0994 33.0389C36.5222 31.7102 38.2048 30.6906 40.0412 30.0444C41.8776 29.3983 43.828 29.1395 45.7693 29.2845C47.7107 29.4295 49.6009 29.9751 51.321 30.8869C53.041 31.7987 54.5535 33.057 55.7631 34.5824C56.9727 36.1077 57.8532 37.8671 58.3491 39.7497C58.845 41.6322 58.9455 43.5971 58.6443 45.5204Z" stroke="white" stroke-width="2.88038" stroke-linecap="round" stroke-linejoin="round"/>
<path d="M40.6101 63.437V67.4526C40.6101 68.5495 41.2209 69.4498 41.9725 69.4498H47.425C48.1819 69.4498 48.7901 68.5468 48.7901 67.4526V63.437M42.6285 35.4446C41.0604 35.4453 39.5566 36.0687 38.448 37.1778C37.3394 38.2869 36.7166 39.7909 36.7166 41.3591M64.1726 43.9645H69.0434M59.27 27.9976L62.7252 24.5424M61.9258 57.4986L65.381 60.9512M44.7001 18.6624V22.601M26.7466 24.5397L30.178 27.9976M24.0908 60.9512L27.5222 57.4986M25.2275 43.9645H20.3594" stroke="white" stroke-width="2.88038" stroke-linecap="round" stroke-linejoin="round"/>
</svg>
