<svg width="48" height="47" viewBox="0 0 48 47" fill="none" xmlns="http://www.w3.org/2000/svg">
<path d="M36.3481 0.000488281H11.3794C5.29563 0.000488281 0.36377 4.93235 0.36377 11.0161V35.9849C0.36377 42.0686 5.29563 47.0005 11.3794 47.0005H36.3481C42.4319 47.0005 47.3638 42.0686 47.3638 35.9849V11.0161C47.3638 4.93235 42.4319 0.000488281 36.3481 0.000488281Z" fill="url(#paint0_radial_246_330)"/>
<path d="M36.3481 0.000488281H11.3794C5.29563 0.000488281 0.36377 4.93235 0.36377 11.0161V35.9849C0.36377 42.0686 5.29563 47.0005 11.3794 47.0005H36.3481C42.4319 47.0005 47.3638 42.0686 47.3638 35.9849V11.0161C47.3638 4.93235 42.4319 0.000488281 36.3481 0.000488281Z" fill="url(#paint1_radial_246_330)"/>
<path d="M23.8654 5.14111C18.8794 5.14111 18.2535 5.16296 16.2953 5.252C14.3408 5.3416 13.0066 5.65095 11.8393 6.10498C10.6316 6.57388 9.60735 7.20122 8.58693 8.222C7.5656 9.2426 6.93826 10.2669 6.46789 11.474C6.01258 12.6417 5.70286 13.9764 5.61492 15.93C5.52734 17.8884 5.50439 18.5145 5.50439 23.5007C5.50439 28.4869 5.52643 29.1107 5.61529 31.069C5.70525 33.0235 6.0146 34.3577 6.46826 35.525C6.93753 36.7326 7.56487 37.7569 8.58565 38.7773C9.60588 39.7987 10.6301 40.4275 11.8369 40.8964C13.0051 41.3504 14.3395 41.6597 16.2936 41.7493C18.252 41.8384 18.8774 41.8602 23.8632 41.8602C28.8498 41.8602 29.4737 41.8384 31.4319 41.7493C33.3864 41.6597 34.7221 41.3504 35.8903 40.8964C37.0974 40.4275 38.1202 39.7987 39.1402 38.7773C40.1616 37.7569 40.7887 36.7326 41.2593 35.5255C41.7106 34.3577 42.0205 33.0231 42.1123 31.0693C42.2002 29.1111 42.2231 28.4869 42.2231 23.5007C42.2231 18.5145 42.2002 17.8888 42.1123 15.9304C42.0205 13.9758 41.7106 12.6418 41.2593 11.4745C40.7887 10.2669 40.1616 9.2426 39.1402 8.222C38.1191 7.20085 37.0978 6.57351 35.8892 6.10516C34.7188 5.65095 33.3838 5.34141 31.4293 5.252C29.4709 5.16296 28.8474 5.14111 23.8597 5.14111H23.8654ZM22.2184 8.44966C22.7073 8.44892 23.2528 8.44966 23.8654 8.44966C28.7676 8.44966 29.3484 8.46728 31.2843 8.55522C33.0743 8.63711 34.0459 8.93618 34.693 9.18752C35.5499 9.52019 36.1607 9.91804 36.8029 10.5608C37.4455 11.2034 37.8432 11.8153 38.1767 12.6721C38.4281 13.3184 38.7275 14.29 38.809 16.08C38.897 18.0154 38.9161 18.5967 38.9161 23.4964C38.9161 28.3962 38.897 28.9776 38.809 30.9129C38.7272 32.7029 38.4281 33.6745 38.1767 34.321C37.8441 35.1778 37.4455 35.7879 36.8029 36.4301C36.1603 37.0727 35.5502 37.4703 34.693 37.8032C34.0466 38.0556 33.0743 38.354 31.2843 38.4358C29.3488 38.5238 28.7676 38.5429 23.8654 38.5429C18.9631 38.5429 18.382 38.5238 16.4468 38.4358C14.6567 38.3532 13.6851 38.0541 13.0374 37.8028C12.1808 37.47 11.5687 37.0723 10.9261 36.4297C10.2835 35.7871 9.88586 35.1767 9.55227 34.3195C9.30093 33.6731 9.00149 32.7015 8.91997 30.9114C8.83203 28.976 8.81441 28.3947 8.81441 23.4919C8.81441 18.589 8.83203 18.0109 8.91997 16.0754C9.00186 14.2854 9.30093 13.3138 9.55227 12.6666C9.88513 11.8098 10.2835 11.1979 10.9263 10.5553C11.569 9.91271 12.1808 9.51487 13.0376 9.18146C13.6848 8.92902 14.6567 8.63068 16.4468 8.54843C18.1404 8.47187 18.7968 8.44892 22.2184 8.44507V8.44966ZM33.6657 11.498C32.4493 11.498 31.4625 12.4839 31.4625 13.7004C31.4625 14.9167 32.4493 15.9036 33.6657 15.9036C34.882 15.9036 35.8688 14.9167 35.8688 13.7004C35.8688 12.4841 34.882 11.4973 33.6657 11.4973V11.498ZM23.8654 14.0722C18.6587 14.0722 14.4371 18.2938 14.4371 23.5007C14.4371 28.7076 18.6587 32.9271 23.8654 32.9271C29.0723 32.9271 33.2924 28.7076 33.2924 23.5007C33.2924 18.294 29.072 14.0722 23.8651 14.0722H23.8654ZM23.8654 17.3808C27.2452 17.3808 29.9853 20.1205 29.9853 23.5007C29.9853 26.8805 27.2452 29.6206 23.8654 29.6206C20.4856 29.6206 17.7457 26.8805 17.7457 23.5007C17.7457 20.1205 20.4855 17.3808 23.8654 17.3808Z" fill="white"/>
<defs>
<radialGradient id="paint0_radial_246_330" cx="0" cy="0" r="1" gradientUnits="userSpaceOnUse" gradientTransform="translate(12.8481 50.6204) rotate(-90) scale(46.5805 43.3235)">
<stop stop-color="#FFDD55"/>
<stop offset="0.1" stop-color="#FFDD55"/>
<stop offset="0.5" stop-color="#FF543E"/>
<stop offset="1" stop-color="#C837AB"/>
</radialGradient>
<radialGradient id="paint1_radial_246_330" cx="0" cy="0" r="1" gradientUnits="userSpaceOnUse" gradientTransform="translate(-7.50891 3.38614) rotate(78.681) scale(20.8217 85.8279)">
<stop stop-color="#3771C8"/>
<stop offset="0.128" stop-color="#3771C8"/>
<stop offset="1" stop-color="#6600FF" stop-opacity="0"/>
</radialGradient>
</defs>
</svg>
