<svg width="28" height="28" viewBox="0 0 28 28" fill="none" xmlns="http://www.w3.org/2000/svg">
<path d="M15.2491 0.833984C16.7447 0.837973 17.5037 0.845949 18.1591 0.86456L18.417 0.873866C18.7148 0.884501 19.0086 0.897795 19.3636 0.913747C20.778 0.980217 21.7432 1.20355 22.59 1.53191C23.4674 1.86958 24.2065 2.32688 24.9457 3.06469C25.6219 3.72903 26.145 4.53296 26.4784 5.42036C26.8068 6.26718 27.0301 7.23232 27.0966 8.64811C27.1125 9.00173 27.1258 9.29552 27.1365 9.59464L27.1445 9.85254C27.1644 10.5066 27.1724 11.2657 27.175 12.7612L27.1764 13.753V15.4944C27.1796 16.4641 27.1694 17.4338 27.1458 18.4031L27.1378 18.661C27.1272 18.9602 27.1139 19.254 27.0979 19.6076C27.0315 21.0234 26.8055 21.9872 26.4784 22.8353C26.145 23.7227 25.6219 24.5267 24.9457 25.191C24.2813 25.8672 23.4774 26.3903 22.59 26.7238C21.7432 27.0521 20.778 27.2755 19.3636 27.3419L18.417 27.3818L18.1591 27.3898C17.5037 27.4084 16.7447 27.4177 15.2491 27.4204L14.2574 27.4217H12.5172C11.5471 27.4251 10.577 27.4149 9.6072 27.3911L9.3493 27.3831C9.03372 27.3712 8.7182 27.3575 8.40278 27.3419C6.98831 27.2755 6.02318 27.0521 5.17503 26.7238C4.2881 26.3902 3.48464 25.8671 2.82069 25.191C2.14396 24.5268 1.62039 23.7228 1.28657 22.8353C0.958216 21.9885 0.734879 21.0234 0.66841 19.6076L0.628528 18.661L0.621882 18.4031C0.597376 17.4338 0.586296 16.4641 0.588647 15.4944V12.7612C0.584967 11.7916 0.594717 10.8219 0.617893 9.85254L0.627199 9.59464C0.637834 9.29552 0.651128 9.00173 0.667081 8.64811C0.73355 7.23232 0.956887 6.26851 1.28524 5.42036C1.61984 4.5326 2.14432 3.72864 2.82201 3.06469C3.48558 2.38877 4.28858 1.86569 5.17503 1.53191C6.02318 1.20355 6.98698 0.980217 8.40278 0.913747C8.75639 0.897795 9.05152 0.884501 9.3493 0.873866L9.6072 0.86589C10.5766 0.84227 11.5462 0.832077 12.5159 0.835314L15.2491 0.833984ZM13.8825 7.48091C12.1196 7.48091 10.429 8.18121 9.18242 9.42775C7.93587 10.6743 7.23558 12.365 7.23558 14.1278C7.23558 15.8907 7.93587 17.5814 9.18242 18.8279C10.429 20.0745 12.1196 20.7748 13.8825 20.7748C15.6454 20.7748 17.3361 20.0745 18.5826 18.8279C19.8291 17.5814 20.5294 15.8907 20.5294 14.1278C20.5294 12.365 19.8291 10.6743 18.5826 9.42775C17.3361 8.18121 15.6454 7.48091 13.8825 7.48091ZM13.8825 10.1397C14.4062 10.1396 14.9249 10.2427 15.4088 10.443C15.8927 10.6434 16.3324 10.937 16.7027 11.3073C17.0731 11.6776 17.367 12.1172 17.5675 12.601C17.768 13.0849 17.8712 13.6034 17.8713 14.1272C17.8714 14.6509 17.7683 15.1695 17.568 15.6534C17.3677 16.1373 17.074 16.577 16.7037 16.9474C16.3334 17.3178 15.8938 17.6117 15.41 17.8122C14.9262 18.0127 14.4076 18.1159 13.8838 18.116C12.8261 18.116 11.8117 17.6958 11.0638 16.9479C10.3159 16.2 9.89568 15.1856 9.89568 14.1278C9.89568 13.0701 10.3159 12.0557 11.0638 11.3078C11.8117 10.5599 12.8261 10.1397 13.8838 10.1397M20.8631 5.48683C20.4224 5.48683 19.9997 5.66191 19.6881 5.97354C19.3764 6.28518 19.2014 6.70785 19.2014 7.14857C19.2014 7.58928 19.3764 8.01195 19.6881 8.32359C19.9997 8.63522 20.4224 8.8103 20.8631 8.8103C21.3038 8.8103 21.7265 8.63522 22.0381 8.32359C22.3498 8.01195 22.5248 7.58928 22.5248 7.14857C22.5248 6.70785 22.3498 6.28518 22.0381 5.97354C21.7265 5.66191 21.3038 5.48683 20.8631 5.48683Z" fill="white"/>
</svg>
