<svg width="64" height="60" viewBox="0 0 64 60" fill="none" xmlns="http://www.w3.org/2000/svg">
<path d="M31.7952 4.54217C30.9005 4.54217 30.0145 4.7184 29.1879 5.0608C28.3613 5.4032 27.6102 5.90506 26.9775 6.53773C26.3448 7.1704 25.843 7.92149 25.5006 8.74811C25.1582 9.57473 24.9819 10.4607 24.9819 11.3554C24.9819 12.2502 25.1582 13.1361 25.5006 13.9627C25.843 14.7894 26.3448 15.5405 26.9775 16.1731C27.6102 16.8058 28.3613 17.3077 29.1879 17.6501C30.0145 17.9925 30.9005 18.1687 31.7952 18.1687C33.6022 18.1687 35.3352 17.4509 36.6129 16.1731C37.8906 14.8954 38.6085 13.1624 38.6085 11.3554C38.6085 9.54844 37.8906 7.81546 36.6129 6.53773C35.3352 5.25999 33.6022 4.54217 31.7952 4.54217ZM20.4398 11.3554C20.4398 8.34378 21.6361 5.45548 23.7657 3.32593C25.8953 1.19637 28.7836 0 31.7952 0C34.8069 0 37.6951 1.19637 39.8247 3.32593C41.9543 5.45548 43.1506 8.34378 43.1506 11.3554C43.1506 14.3671 41.9543 17.2554 39.8247 19.3849C37.6951 21.5145 34.8069 22.7109 31.7952 22.7109C28.7836 22.7109 25.8953 21.5145 23.7657 19.3849C21.6361 17.2554 20.4398 14.3671 20.4398 11.3554ZM13.6265 34.0663C13.6295 33.2366 13.7143 32.4341 13.8809 31.6589L5.0509 34.0209C4.18649 34.2527 3.37623 34.6526 2.66641 35.1977C1.9566 35.7428 1.36112 36.4224 0.91401 37.1977C0.466897 37.9729 0.176907 38.8287 0.0606056 39.7161C-0.0556962 40.6035 0.00396943 41.5051 0.236193 42.3694L1.99856 48.951C2.47238 50.717 3.29677 52.3696 4.42263 53.8103C5.5485 55.251 6.9528 56.4504 8.5519 57.3371C10.151 58.2237 11.9122 58.7795 13.7306 58.9712C15.5489 59.163 17.3873 58.9868 19.1362 58.4532C17.9214 57.2748 16.8772 55.9325 16.0339 54.4652C13.8941 54.6717 11.7505 54.1128 9.98404 52.8878C8.21758 51.6627 6.94279 49.851 6.38629 47.7746L4.61939 41.1884C4.46408 40.6066 4.54622 39.9869 4.84775 39.4656C5.14928 38.9443 5.64551 38.5641 6.22732 38.4086L13.6265 36.4282V34.0663ZM44.9039 58.5849L44.4497 58.4577C45.6625 57.2768 46.7117 55.9368 47.5565 54.4652C49.6963 54.6717 51.8399 54.1128 53.6064 52.8878C55.3728 51.6627 56.6476 49.851 57.2041 47.7746L58.9665 41.1884C59.1219 40.6072 59.0404 39.988 58.7398 39.4668C58.4392 38.9457 57.9441 38.5651 57.3631 38.4086L49.9639 36.4282V34.0663C49.9609 33.2366 49.8761 32.4341 49.7095 31.6589L58.535 34.0209C59.3998 34.2522 60.2105 34.6518 60.9208 35.1967C61.6312 35.7416 62.2271 36.4211 62.6747 37.1964C63.1223 37.9717 63.4126 38.8277 63.5292 39.7153C63.6458 40.6029 63.5864 41.5048 63.3542 42.3694L61.5919 48.951C60.6552 52.4405 58.371 55.4151 55.2416 57.2209C52.1122 59.0266 48.3938 59.5202 44.9039 58.5849ZM4.54217 18.1687C4.54217 16.964 5.02072 15.8087 5.87254 14.9569C6.72437 14.1051 7.87968 13.6265 9.08434 13.6265C10.289 13.6265 11.4443 14.1051 12.2961 14.9569C13.148 15.8087 13.6265 16.964 13.6265 18.1687C13.6265 19.3733 13.148 20.5287 12.2961 21.3805C11.4443 22.2323 10.289 22.7109 9.08434 22.7109C7.87968 22.7109 6.72437 22.2323 5.87254 21.3805C5.02072 20.5287 4.54217 19.3733 4.54217 18.1687ZM9.08434 9.08434C6.67503 9.08434 4.36439 10.0414 2.66074 11.7451C0.957098 13.4487 0 15.7594 0 18.1687C0 20.578 0.957098 22.8886 2.66074 24.5923C4.36439 26.2959 6.67503 27.253 9.08434 27.253C11.4937 27.253 13.8043 26.2959 15.5079 24.5923C17.2116 22.8886 18.1687 20.578 18.1687 18.1687C18.1687 15.7594 17.2116 13.4487 15.5079 11.7451C13.8043 10.0414 11.4937 9.08434 9.08434 9.08434ZM54.5061 13.6265C53.3014 13.6265 52.1461 14.1051 51.2943 14.9569C50.4424 15.8087 49.9639 16.964 49.9639 18.1687C49.9639 19.3733 50.4424 20.5287 51.2943 21.3805C52.1461 22.2323 53.3014 22.7109 54.5061 22.7109C55.7107 22.7109 56.866 22.2323 57.7179 21.3805C58.5697 20.5287 59.0482 19.3733 59.0482 18.1687C59.0482 16.964 58.5697 15.8087 57.7179 14.9569C56.866 14.1051 55.7107 13.6265 54.5061 13.6265ZM45.4217 18.1687C45.4217 15.7594 46.3788 13.4487 48.0825 11.7451C49.7861 10.0414 52.0967 9.08434 54.5061 9.08434C56.9154 9.08434 59.226 10.0414 60.9297 11.7451C62.6333 13.4487 63.5904 15.7594 63.5904 18.1687C63.5904 20.578 62.6333 22.8886 60.9297 24.5923C59.226 26.2959 56.9154 27.253 54.5061 27.253C52.0967 27.253 49.7861 26.2959 48.0825 24.5923C46.3788 22.8886 45.4217 20.578 45.4217 18.1687ZM24.9819 27.253C23.175 27.253 21.442 27.9709 20.1642 29.2486C18.8865 30.5263 18.1687 32.2593 18.1687 34.0663V45.4217C18.1687 49.0357 19.6043 52.5017 22.1598 55.0571C24.7153 57.6126 28.1812 59.0482 31.7952 59.0482C35.4092 59.0482 38.8751 57.6126 41.4306 55.0571C43.9861 52.5017 45.4217 49.0357 45.4217 45.4217V34.0663C45.4217 32.2593 44.7039 30.5263 43.4262 29.2486C42.1484 27.9709 40.4155 27.253 38.6085 27.253H24.9819ZM22.7109 34.0663C22.7109 33.464 22.9501 32.8863 23.376 32.4604C23.802 32.0345 24.3796 31.7952 24.9819 31.7952H38.6085C39.2108 31.7952 39.7885 32.0345 40.2144 32.4604C40.6403 32.8863 40.8795 33.464 40.8795 34.0663V45.4217C40.8795 47.831 39.9224 50.1417 38.2188 51.8453C36.5152 53.549 34.2045 54.5061 31.7952 54.5061C29.3859 54.5061 27.0752 53.549 25.3716 51.8453C23.668 50.1417 22.7109 47.831 22.7109 45.4217V34.0663Z" fill="white"/>
</svg>
