<svg width="67" height="62" viewBox="0 0 67 62" fill="none" xmlns="http://www.w3.org/2000/svg">
<path d="M33.2871 4.78787C32.3506 4.78787 31.4232 4.97233 30.558 5.3307C29.6928 5.68908 28.9067 6.21437 28.2445 6.87657C27.5823 7.53877 27.057 8.32491 26.6986 9.19012C26.3402 10.0553 26.1558 10.9826 26.1558 11.9191C26.1558 12.8556 26.3402 13.7829 26.6986 14.6482C27.057 15.5134 27.5823 16.2995 28.2445 16.9617C28.9067 17.6239 29.6928 18.1492 30.558 18.5076C31.4232 18.8659 32.3506 19.0504 33.2871 19.0504C35.1784 19.0504 36.9923 18.2991 38.3296 16.9617C39.667 15.6243 40.4183 13.8105 40.4183 11.9191C40.4183 10.0278 39.667 8.21394 38.3296 6.87657C36.9923 5.5392 35.1784 4.78787 33.2871 4.78787ZM21.4016 11.9191C21.4016 8.76692 22.6538 5.74381 24.8828 3.51486C27.1117 1.2859 30.1348 0.0336914 33.2871 0.0336914C36.4393 0.0336914 39.4624 1.2859 41.6913 3.51486C43.9203 5.74381 45.1725 8.76692 45.1725 11.9191C45.1725 15.0714 43.9203 18.0945 41.6913 20.3234C39.4624 22.5524 36.4393 23.8046 33.2871 23.8046C30.1348 23.8046 27.1117 22.5524 24.8828 20.3234C22.6538 18.0945 21.4016 15.0714 21.4016 11.9191ZM14.2703 35.69C14.2735 34.8216 14.3623 33.9817 14.5366 33.1703L5.29446 35.6425C4.38971 35.8852 3.54163 36.3037 2.79868 36.8743C2.05573 37.4448 1.43246 38.1561 0.964483 38.9676C0.496502 39.779 0.192977 40.6747 0.0712468 41.6035C-0.0504833 42.5323 0.0119672 43.476 0.25503 44.3807L2.09965 51.2695C2.59559 53.1179 3.45846 54.8476 4.63687 56.3556C5.81529 57.8635 7.28513 59.1189 8.95887 60.047C10.6326 60.975 12.476 61.5567 14.3792 61.7574C16.2825 61.9581 18.2067 61.7737 20.0372 61.2152C18.7657 59.9818 17.6727 58.5769 16.7901 57.041C14.5505 57.2572 12.3068 56.6722 10.4579 55.39C8.60895 54.1078 7.27465 52.2114 6.69219 50.0381L4.84281 43.1446C4.68025 42.5356 4.76622 41.8869 5.08183 41.3413C5.39744 40.7957 5.91683 40.3978 6.52579 40.235L14.2703 38.1622V35.69ZM47.0076 61.3531L46.5322 61.22C47.8016 59.9839 48.8998 58.5814 49.7841 57.041C52.0237 57.2572 54.2674 56.6722 56.1163 55.39C57.9652 54.1078 59.2995 52.2114 59.8819 50.0381L61.7265 43.1446C61.8893 42.5362 61.8039 41.8881 61.4893 41.3426C61.1747 40.7971 60.6564 40.3988 60.0483 40.235L52.3038 38.1622V35.69C52.3006 34.8216 52.2119 33.9817 52.0375 33.1703L61.2749 35.6425C62.1801 35.8847 63.0287 36.3029 63.7721 36.8732C64.5156 37.4435 65.1394 38.1547 65.6079 38.9662C66.0763 39.7778 66.3802 40.6736 66.5023 41.6027C66.6243 42.5317 66.5621 43.4757 66.3191 44.3807L64.4745 51.2695C63.4941 54.9218 61.1033 58.0353 57.8278 59.9254C54.5524 61.8154 50.6604 62.332 47.0076 61.3531ZM4.76199 19.0504C4.76199 17.7895 5.26288 16.5803 6.15446 15.6887C7.04604 14.7971 8.25528 14.2962 9.51617 14.2962C10.7771 14.2962 11.9863 14.7971 12.8779 15.6887C13.7695 16.5803 14.2703 17.7895 14.2703 19.0504C14.2703 20.3113 13.7695 21.5205 12.8779 22.4121C11.9863 23.3037 10.7771 23.8046 9.51617 23.8046C8.25528 23.8046 7.04604 23.3037 6.15446 22.4121C5.26288 21.5205 4.76199 20.3113 4.76199 19.0504ZM9.51617 9.54205C6.99439 9.54205 4.57591 10.5438 2.79275 12.327C1.00958 14.1101 0.0078125 16.5286 0.0078125 19.0504C0.0078125 21.5722 1.00958 23.9907 2.79275 25.7738C4.57591 27.557 6.99439 28.5588 9.51617 28.5588C12.0379 28.5588 14.4564 27.557 16.2396 25.7738C18.0228 23.9907 19.0245 21.5722 19.0245 19.0504C19.0245 16.5286 18.0228 14.1101 16.2396 12.327C14.4564 10.5438 12.0379 9.54205 9.51617 9.54205ZM57.0579 14.2962C55.7971 14.2962 54.5878 14.7971 53.6962 15.6887C52.8047 16.5803 52.3038 17.7895 52.3038 19.0504C52.3038 20.3113 52.8047 21.5205 53.6962 22.4121C54.5878 23.3037 55.7971 23.8046 57.0579 23.8046C58.3188 23.8046 59.5281 23.3037 60.4197 22.4121C61.3112 21.5205 61.8121 20.3113 61.8121 19.0504C61.8121 17.7895 61.3112 16.5803 60.4197 15.6887C59.5281 14.7971 58.3188 14.2962 57.0579 14.2962ZM47.5496 19.0504C47.5496 16.5286 48.5514 14.1101 50.3345 12.327C52.1177 10.5438 54.5362 9.54205 57.0579 9.54205C59.5797 9.54205 61.9982 10.5438 63.7814 12.327C65.5645 14.1101 66.5663 16.5286 66.5663 19.0504C66.5663 21.5722 65.5645 23.9907 63.7814 25.7738C61.9982 27.557 59.5797 28.5588 57.0579 28.5588C54.5362 28.5588 52.1177 27.557 50.3345 25.7738C48.5514 23.9907 47.5496 21.5722 47.5496 19.0504ZM26.1558 28.5588C24.2645 28.5588 22.4506 29.3101 21.1132 30.6475C19.7759 31.9848 19.0245 33.7987 19.0245 35.69V47.5755C19.0245 51.3581 20.5272 54.9859 23.2019 57.6606C25.8767 60.3353 29.5044 61.838 33.2871 61.838C37.0697 61.838 40.6974 60.3353 43.3722 57.6606C46.0469 54.9859 47.5496 51.3581 47.5496 47.5755V35.69C47.5496 33.7987 46.7983 31.9848 45.4609 30.6475C44.1235 29.3101 42.3097 28.5588 40.4183 28.5588H26.1558ZM23.7787 35.69C23.7787 35.0596 24.0291 34.455 24.4749 34.0092C24.9207 33.5634 25.5253 33.3129 26.1558 33.3129H40.4183C41.0488 33.3129 41.6534 33.5634 42.0992 34.0092C42.545 34.455 42.7954 35.0596 42.7954 35.69V47.5755C42.7954 50.0972 41.7936 52.5157 40.0105 54.2989C38.2273 56.0821 35.8088 57.0838 33.2871 57.0838C30.7653 57.0838 28.3468 56.0821 26.5636 54.2989C24.7805 52.5157 23.7787 50.0972 23.7787 47.5755V35.69Z" fill="#00712D"/>
</svg>
