<svg width="768" height="179" viewBox="0 0 768 179" fill="none" xmlns="http://www.w3.org/2000/svg">
<path d="M3.90491 86.2636C3.30632 86.1638 2.70772 85.8146 2.10913 85.216C1.41076 84.6174 0.862052 83.969 0.462988 83.2706C0.16369 82.5722 0.113807 82.0235 0.313339 81.6245C0.413105 81.2254 0.712403 81.0259 1.21123 81.0259H1.51053C12.0857 83.2207 21.8628 84.3181 30.8417 84.3181C45.9064 84.3181 59.5743 81.3252 71.8456 75.3392L75.8861 69.8022C76.4847 69.1038 77.2828 68.0563 78.2805 66.6596C96.2383 42.1171 108.11 21.1663 113.897 3.80698C114.396 2.6098 114.845 1.86155 115.244 1.56225C115.942 1.06342 116.491 0.814008 116.89 0.814008C117.987 0.814008 118.885 1.66202 119.584 3.35803C120.282 4.95429 120.631 7.14915 120.631 9.94259C120.631 12.736 120.382 15.3798 119.883 17.874C118.187 28.0501 114.595 38.0267 109.108 47.8038C100.927 62.2699 89.9032 73.0446 76.0357 80.128C66.6577 92.3992 56.731 104.371 46.2556 116.044C35.8799 127.617 26.2525 137.743 17.3733 146.422C14.2806 149.515 12.8839 151.111 13.1832 151.211C14.4801 152.508 18.6204 153.157 25.604 153.157C32.8869 153.157 47.2532 152.209 68.7029 150.313C91.25 148.318 108.11 147.32 119.284 147.32C131.555 147.32 141.532 148.368 149.214 150.463C156.896 152.558 161.635 156.15 163.431 161.238C163.73 162.435 163.431 163.034 162.533 163.034L161.934 162.884C161.336 162.684 160.687 162.235 159.989 161.537C159.39 160.938 158.991 160.29 158.792 159.592C156.996 154.603 146.67 152.109 127.814 152.109C120.631 152.109 112.799 152.408 104.319 153.007C95.8393 153.606 85.0645 154.454 71.9952 155.551C64.812 156.15 57.6289 156.698 50.4457 157.197C43.3624 157.696 37.4263 157.945 32.6375 157.945C21.0647 157.945 13.8815 156.499 11.0881 153.606C9.69134 152.009 8.99298 150.463 8.99298 148.966C8.99298 146.672 10.2899 144.277 12.8839 141.783C30.742 124.324 47.8019 105.419 64.0638 85.0664C54.8853 88.0594 44.7591 89.5559 33.6851 89.5559C24.5066 89.5559 14.5799 88.4584 3.90491 86.2636ZM87.409 64.7141C93.9936 58.9277 99.6803 51.8443 104.469 43.464C108.759 35.782 111.802 28.1499 113.598 20.5677C107.811 33.637 99.0817 48.3525 87.409 64.7141ZM118.835 7.54821C119.534 6.65032 119.833 6.20137 119.733 6.20137L119.434 6.35103L118.835 7.54821ZM119.682 108.861C121.478 108.362 123.722 107.514 126.416 106.317C129.309 104.82 131.803 102.276 133.898 98.6844L134.647 97.0383C133.05 97.7367 131.105 98.9339 128.81 100.63C124.919 103.523 121.877 106.267 119.682 108.861ZM130.307 111.255C127.314 112.751 124.221 113.899 121.029 114.697C117.836 115.395 115.791 115.744 114.893 115.744C113.796 118.239 113.247 120.184 113.247 121.581C113.247 124.574 115.142 126.07 118.934 126.07C121.927 126.07 125.668 125.172 130.157 123.377C134.647 121.581 138.787 119.486 142.578 117.091C146.369 114.597 148.764 112.452 149.761 110.656C150.26 109.758 150.909 109.31 151.707 109.31C152.205 109.31 152.654 109.509 153.054 109.908C153.752 110.606 154.101 111.205 154.101 111.704C154.101 111.903 154.001 112.203 153.802 112.602C152.605 114.797 150.061 117.391 146.17 120.384C142.379 123.377 138.188 125.97 133.599 128.165C129.01 130.36 124.919 131.458 121.328 131.458C119.033 131.458 117.238 131.059 115.941 130.26C113.746 129.063 112 127.367 110.703 125.172C109.306 122.977 108.608 120.633 108.608 118.139C108.608 115.944 109.206 113.699 110.404 111.405C111.501 109.01 112.997 106.716 114.893 104.521C117.986 101.029 121.228 98.0858 124.62 95.6915C126.815 94.195 128.81 93.0477 130.606 92.2495C132.502 91.3516 133.849 91.0025 134.647 91.202C136.043 91.5013 137.241 92.2495 138.238 93.4467C139.735 95.1427 140.333 96.9385 140.034 98.8341C139.934 99.8318 139.435 101.228 138.538 103.024C137.64 104.72 136.442 106.317 134.946 107.813C133.549 109.21 132.003 110.357 130.307 111.255ZM175.233 108.412C175.233 109.01 174.934 109.31 174.335 109.31H173.886C173.288 109.11 172.639 108.761 171.941 108.262C171.342 107.663 170.893 107.015 170.594 106.317C169.896 105.618 168.848 105.269 167.451 105.269C165.855 105.269 164.059 105.718 162.064 106.616C160.168 107.414 158.672 108.262 157.575 109.16C152.387 113.35 148.945 118.937 147.249 125.921C148.945 125.422 151.539 123.526 155.03 120.234C158.522 116.942 162.214 113.051 166.105 108.561C166.404 108.262 166.853 108.212 167.451 108.412C168.05 108.611 168.698 109.06 169.397 109.758C170.295 110.856 170.744 111.754 170.744 112.452C170.744 112.751 170.694 112.951 170.594 113.051C169.596 115.046 169.098 117.191 169.098 119.486C169.098 119.885 169.197 120.683 169.397 121.88C169.696 123.975 173.088 122.379 179.573 117.091C186.157 111.804 189.55 109.11 189.749 109.01C190.248 108.511 190.797 108.262 191.395 108.262C191.894 108.262 192.343 108.462 192.742 108.861C193.341 109.559 193.64 110.207 193.64 110.806C193.64 111.305 193.49 111.704 193.191 112.003C187.205 117.291 182.865 121.082 180.172 123.377C177.478 125.571 175.233 127.168 173.437 128.165C171.342 129.263 169.347 129.811 167.451 129.811C165.556 129.811 164.059 129.163 162.962 127.866C161.864 126.569 161.366 124.723 161.465 122.329C155.579 128.016 151.289 130.859 148.596 130.859C148.296 130.859 147.847 130.759 147.249 130.56C146.451 130.26 145.453 129.512 144.256 128.315C142.759 126.419 142.161 124.324 142.46 122.03C142.56 120.334 143.108 118.438 144.106 116.343C145.104 114.148 146.451 112.003 148.147 109.908C149.743 107.713 151.489 105.868 153.384 104.371C154.881 103.174 156.627 102.226 158.622 101.528C160.617 100.829 162.613 100.48 164.608 100.48C167.102 100.48 169.297 101.029 171.193 102.126C173.088 103.224 174.335 104.92 174.934 107.214L175.233 108.412ZM211.26 116.044C211.16 116.443 210.911 116.692 210.512 116.792C210.113 116.792 209.664 116.642 209.165 116.343L209.015 116.642C203.428 121.531 198.789 125.122 195.098 127.417C192.604 128.814 190.209 129.512 187.915 129.512C186.119 129.512 184.672 129.013 183.575 128.016C182.477 127.018 181.929 125.472 181.929 123.377C181.929 120.982 182.877 118.139 184.772 114.847C186.767 111.554 189.162 108.561 191.955 105.868C194.848 103.174 197.692 101.877 200.485 101.977C203.079 101.877 204.975 102.276 206.172 103.174C207.369 104.072 208.516 105.369 209.614 107.065C215.101 101.877 220.638 95.9409 226.225 89.2566C236.102 77.4842 244.332 66.46 250.917 56.1841L254.06 51.3954C254.259 50.9963 254.658 50.8965 255.257 51.0961C255.855 51.1958 256.504 51.5949 257.202 52.2933C258.3 53.3907 258.848 54.3883 258.848 55.2862C258.848 55.5855 258.798 55.7851 258.699 55.8848L255.107 61.4218C239.244 86.3633 223.681 111.355 208.417 136.396C193.252 161.337 186.119 174.856 187.017 176.951C187.416 178.248 187.166 178.896 186.269 178.896H185.82C185.221 178.697 184.622 178.298 184.024 177.699C183.325 177.101 182.877 176.452 182.677 175.754C181.28 172.461 193.701 149.166 219.94 105.868C216.747 109.16 213.904 111.953 211.41 114.248C211.41 114.847 211.36 115.295 211.26 115.595C211.26 115.794 211.26 115.944 211.26 116.044ZM206.322 110.207C205.922 108.711 204.925 107.963 203.329 107.963C200.934 107.863 198.44 109.01 195.846 111.405C193.252 113.799 191.107 116.393 189.411 119.186C188.114 121.481 187.316 123.327 187.017 124.723C188.114 124.125 189.411 123.377 190.908 122.479C194.599 120.284 199.188 116.742 204.675 111.854L206.322 110.207ZM241.272 108.861C243.067 108.362 245.312 107.514 248.006 106.317C250.899 104.82 253.393 102.276 255.488 98.6844L256.236 97.0383C254.64 97.7367 252.695 98.9339 250.4 100.63C246.509 103.523 243.466 106.267 241.272 108.861ZM251.897 111.255C248.904 112.751 245.811 113.899 242.618 114.697C239.426 115.395 237.381 115.744 236.483 115.744C235.385 118.239 234.837 120.184 234.837 121.581C234.837 124.574 236.732 126.07 240.523 126.07C243.516 126.07 247.258 125.172 251.747 123.377C256.236 121.581 260.377 119.486 264.168 117.091C267.959 114.597 270.353 112.452 271.351 110.656C271.85 109.758 272.498 109.31 273.296 109.31C273.795 109.31 274.244 109.509 274.643 109.908C275.342 110.606 275.691 111.205 275.691 111.704C275.691 111.903 275.591 112.203 275.392 112.602C274.194 114.797 271.65 117.391 267.759 120.384C263.968 123.377 259.778 125.97 255.189 128.165C250.6 130.36 246.509 131.458 242.918 131.458C240.623 131.458 238.827 131.059 237.53 130.26C235.335 129.063 233.59 127.367 232.293 125.172C230.896 122.977 230.198 120.633 230.198 118.139C230.198 115.944 230.796 113.699 231.993 111.405C233.091 109.01 234.587 106.716 236.483 104.521C239.576 101.029 242.818 98.0858 246.21 95.6915C248.405 94.195 250.4 93.0477 252.196 92.2495C254.091 91.3516 255.438 91.0025 256.236 91.202C257.633 91.5013 258.83 92.2495 259.828 93.4467C261.325 95.1427 261.923 96.9385 261.624 98.8341C261.524 99.8318 261.025 101.228 260.127 103.024C259.229 104.72 258.032 106.317 256.536 107.813C255.139 109.21 253.593 110.357 251.897 111.255ZM280.81 93.8957C281.01 93.4966 281.409 93.3968 282.008 93.5964C282.706 93.7959 283.355 94.195 283.953 94.7936C285.051 95.6915 285.599 96.6891 285.599 97.7865C285.599 98.0858 285.549 98.2854 285.45 98.3851L279.913 107.214C284.103 105.119 287.644 104.072 290.538 104.072C292.733 104.072 294.329 104.72 295.326 106.017C295.725 106.416 296.025 107.165 296.224 108.262C296.524 109.26 296.773 110.008 296.973 110.507C297.272 110.906 297.671 111.105 298.17 111.105C301.263 111.305 304.954 110.756 309.244 109.459C310.142 109.16 310.641 109.01 310.74 109.01C311.139 109.01 311.538 109.26 311.937 109.758C312.337 110.257 312.536 110.706 312.536 111.105C312.536 111.405 312.187 111.654 311.489 111.854C309.393 112.452 306.949 113.051 304.156 113.649C301.462 114.148 299.317 114.398 297.721 114.398C295.526 114.398 293.88 114.098 292.782 113.5C291.785 112.801 290.338 111.355 288.443 109.16C287.744 108.262 285.899 108.761 282.906 110.656C280.012 112.452 276.67 114.996 272.879 118.288C271.881 119.685 270.435 122.03 268.539 125.322C266.644 128.514 265.147 131.059 264.05 132.954C263.85 133.353 263.451 133.453 262.853 133.253C262.154 133.054 261.506 132.655 260.907 132.056C259.81 131.158 259.261 130.161 259.261 129.063C259.261 128.764 259.311 128.564 259.411 128.465L280.81 93.8957ZM309.981 114.847C309.383 115.445 308.685 115.744 307.886 115.744C307.288 115.744 306.789 115.545 306.39 115.146C305.692 114.348 305.941 113.4 307.138 112.302C308.236 111.205 308.834 110.606 308.934 110.507L320.158 96.8887C321.355 95.5917 322.502 94.4943 323.6 93.5964C323.899 93.2971 324.348 93.2971 324.946 93.5964C325.645 93.7959 326.243 94.2449 326.742 94.9432C327.74 95.9409 328.239 96.8388 328.239 97.6369C328.239 97.9362 328.139 98.1856 327.939 98.3851L324.348 101.827C322.752 103.623 321.355 105.718 320.158 108.112C318.96 110.507 318.362 113.001 318.362 115.595C318.362 116.991 318.462 118.039 318.661 118.737C318.96 120.334 319.11 121.78 319.11 123.077C319.11 125.272 318.711 127.267 317.913 129.063C317.314 130.161 316.367 131.258 315.07 132.355C313.972 133.154 312.825 133.702 311.628 134.002C311.229 134.101 310.58 134.151 309.682 134.151C308.285 134.151 306.989 133.852 305.791 133.253C302.399 131.458 300.703 128.914 300.703 125.621C300.703 124.125 300.903 122.928 301.302 122.03C301.701 121.032 301.9 120.483 301.9 120.384C302.1 119.984 302.499 119.885 303.098 120.084C303.696 120.184 304.345 120.533 305.043 121.132C306.24 122.329 306.839 123.377 306.839 124.274L306.689 124.723C306.589 124.923 306.24 125.621 305.642 126.818C305.043 128.016 304.794 128.664 304.893 128.764C305.093 128.864 305.492 128.914 306.091 128.914C306.889 128.914 307.487 128.864 307.886 128.764C308.984 128.564 309.981 128.115 310.879 127.417C311.877 126.719 312.625 125.821 313.124 124.723C313.822 123.426 314.172 121.78 314.172 119.785C314.172 118.388 314.072 117.291 313.872 116.493C313.872 116.094 313.822 115.744 313.723 115.445C313.623 115.046 313.573 114.697 313.573 114.398C313.573 113.001 314.421 110.806 316.117 107.813L309.981 114.847ZM366.722 54.089C366.921 53.69 367.32 53.5902 367.919 53.7897C368.617 53.9893 369.266 54.3883 369.864 54.9869C370.962 55.8848 371.511 56.8825 371.511 57.9799C371.511 58.2792 371.461 58.4788 371.361 58.5785L338.588 111.704C344.274 107.514 348.465 105.419 351.158 105.419C354.052 105.419 355.698 107.464 356.097 111.554C356.197 112.452 356.296 116.143 356.396 122.628C356.795 123.227 358.541 122.628 361.634 120.832C364.727 118.937 369.166 115.295 374.953 109.908C375.751 109.11 376.349 108.711 376.748 108.711C377.048 108.711 377.347 108.861 377.646 109.16C378.345 109.858 378.694 110.557 378.694 111.255C378.694 111.554 378.544 111.854 378.245 112.153C367.57 122.129 360.137 127.118 355.947 127.118C354.75 127.118 353.702 126.669 352.804 125.771C351.607 124.474 350.859 122.928 350.56 121.132C350.26 119.236 350.111 116.842 350.111 113.949C350.111 111.953 350.061 110.507 349.961 109.609C349.861 108.511 348.016 109.659 344.424 113.051C340.833 116.443 337.091 120.234 333.2 124.424C329.31 128.614 326.766 131.408 325.568 132.804C325.369 133.104 324.97 133.154 324.371 132.954C323.773 132.755 323.174 132.355 322.575 131.757C321.478 130.859 320.929 129.861 320.929 128.764C320.929 128.465 320.979 128.265 321.079 128.165L366.722 54.089ZM384.877 98.0858C385.276 97.7865 385.775 97.7865 386.374 98.0858C387.072 98.2854 387.721 98.7343 388.319 99.4327C389.117 100.43 389.516 101.278 389.516 101.977C389.516 102.476 389.417 102.775 389.217 102.875C387.421 104.471 385.326 106.716 382.932 109.609C380.637 112.502 378.742 115.445 377.245 118.438C376.148 120.832 375.599 122.529 375.599 123.526C375.599 124.723 375.998 125.472 376.796 125.771C378.592 126.07 381.186 125.073 384.578 122.778C387.97 120.483 391.312 117.889 394.604 114.996C397.897 112.103 399.543 110.557 399.543 110.357C400.241 109.659 400.79 109.31 401.189 109.31C401.588 109.31 401.987 109.509 402.386 109.908C402.885 110.407 403.134 110.856 403.134 111.255C403.134 111.554 402.935 111.903 402.536 112.302C402.436 112.402 401.289 113.55 399.094 115.744C396.899 117.939 393.357 120.982 388.469 124.873C383.68 128.764 379.49 130.709 375.898 130.709C373.704 130.709 372.107 129.811 371.11 128.016C370.411 126.719 370.062 125.172 370.062 123.377C370.062 120.384 370.91 117.291 372.606 114.098C374.202 111.006 376.148 107.963 378.442 104.97C380.837 101.877 382.982 99.5823 384.877 98.0858ZM394.156 93.746C393.856 94.1451 393.357 94.2449 392.659 94.0453C392.06 93.746 391.462 93.2971 390.863 92.6985C389.866 91.5013 389.367 90.5535 389.367 89.8551C389.367 89.5559 389.467 89.3064 389.666 89.1069L398.046 79.5294C398.645 78.831 399.742 79.1802 401.339 80.5769C402.237 81.5746 402.686 82.5224 402.686 83.4202C402.686 83.8193 402.636 84.0687 402.536 84.1685L394.156 93.746ZM381.292 159.143C382.389 157.347 383.885 154.803 385.781 151.511C387.577 148.218 389.123 145.375 390.42 142.981C390.819 142.182 391.368 141.285 392.066 140.287C392.665 139.189 393.313 137.942 394.012 136.546C399.998 125.172 405.385 115.844 410.174 108.561C415.062 101.179 419.253 97.2378 422.744 96.739L424.241 96.5894C427.034 96.5894 429.129 97.587 430.526 99.5823C431.923 101.478 432.621 103.872 432.621 106.765C432.621 109.459 432.023 112.103 430.825 114.697C429.329 118.688 427.084 122.379 424.091 125.771C421.098 129.163 418.604 130.859 416.609 130.859C414.514 130.859 412.618 130.31 410.922 129.213C409.326 128.115 407.979 126.769 406.882 125.172C402.691 132.056 395.658 144.527 385.781 162.585L384.584 164.68C383.287 169.069 381.84 171.264 380.244 171.264C379.147 171.264 378.299 170.267 377.7 168.271C377.002 166.276 376.652 163.882 376.652 161.088C376.652 159.392 376.802 157.696 377.101 156C377.5 153.705 380.244 147.42 385.332 137.144C390.32 126.769 395.408 116.543 400.596 106.466C405.884 96.2901 409.525 89.4062 411.521 85.8146C411.72 85.4156 412.369 85.4156 413.466 85.8146C414.564 86.1139 415.561 86.6128 416.459 87.3111C417.457 88.0095 417.856 88.5083 417.656 88.8076L381.292 159.143ZM426.186 101.977C422.694 102.376 416.908 109.01 408.827 121.88C410.124 124.374 411.72 125.621 413.616 125.621C415.012 125.621 416.808 124.025 419.003 120.832C421.298 117.54 423.193 113.949 424.69 110.058C425.787 107.364 426.436 105.369 426.635 104.072C426.835 102.376 426.735 101.278 426.336 100.78C426.236 100.58 426.236 100.73 426.336 101.228C426.436 101.628 426.386 101.877 426.186 101.977ZM562.775 81.4748C562.276 81.5746 561.677 81.375 560.979 80.8762C560.38 80.3774 559.832 79.7289 559.333 78.9308C558.934 78.4319 558.734 77.8832 558.734 77.2846C558.734 76.686 559.034 76.3867 559.632 76.3867C567.913 75.9877 576.642 73.8427 585.821 69.9518C594.999 65.9612 603.429 60.923 611.111 54.8373C618.494 49.1506 624.081 43.3642 627.872 37.478C630.965 32.789 632.511 28.7485 632.511 25.3564C632.511 24.6581 632.411 23.8101 632.212 22.8124C631.813 21.6152 631.164 20.6674 630.267 19.9691C629.768 19.4702 628.97 19.0213 627.872 18.6222C625.677 17.7243 622.884 17.2754 619.492 17.2754C614.803 17.2754 609.366 18.2232 603.18 20.1187C597.094 21.9145 590.709 24.5084 584.025 27.9005C571.754 34.1857 560.281 41.4188 549.606 49.5996C538.931 57.6806 528.256 68.9043 517.581 83.2706C509.799 93.746 504.013 103.623 500.222 112.901C496.331 122.578 494.385 131.308 494.385 139.09C494.385 143.28 494.884 146.871 495.882 149.864C497.578 155.252 500.671 159.143 505.16 161.537C509.151 163.433 513.74 164.38 518.928 164.38C521.322 164.38 524.165 164.131 527.458 163.632C539.13 161.737 552.848 156.1 568.611 146.722C584.374 137.244 601.733 123.726 620.689 106.167C620.988 105.967 621.437 106.017 622.036 106.317C622.734 106.516 623.383 106.915 623.981 107.514C624.879 108.412 625.328 109.31 625.328 110.207C625.328 110.507 625.228 110.756 625.029 110.956C605.974 128.614 588.465 142.182 572.502 151.66C556.639 161.138 542.772 166.874 530.9 168.87C527.607 169.369 524.714 169.618 522.22 169.618C516.234 169.618 510.847 168.421 506.058 166.026C498.675 162.235 493.687 156.249 491.093 148.069C489.996 144.277 489.447 140.337 489.447 136.246C489.447 127.766 491.442 118.588 495.433 108.711C498.925 99.9315 504.811 89.905 513.091 78.6315C523.866 64.1654 534.641 52.842 545.416 44.6612C556.19 36.4804 567.713 29.2473 579.984 22.9621C586.868 19.4702 593.453 16.8265 599.738 15.0307C606.023 13.1351 611.66 12.1873 616.648 12.1873C620.639 12.1873 623.931 12.736 626.525 13.8335C627.822 14.3323 629.319 15.1803 631.015 16.3775C634.008 18.7719 635.953 21.5653 636.851 24.7578C637.15 25.955 637.3 27.2021 637.3 28.4991C637.3 32.789 635.704 37.2785 632.511 41.9675C628.421 48.153 622.734 54.0392 615.451 59.6261C607.57 65.8115 598.94 70.9495 589.562 75.0399C580.184 79.0305 571.255 81.1755 562.775 81.4748ZM644.494 108.412C644.494 109.01 644.194 109.31 643.596 109.31H643.147C642.548 109.11 641.9 108.761 641.201 108.262C640.603 107.663 640.154 107.015 639.855 106.317C639.156 105.618 638.109 105.269 636.712 105.269C635.116 105.269 633.32 105.718 631.325 106.616C629.429 107.414 627.933 108.262 626.835 109.16C621.647 113.35 618.205 118.937 616.509 125.921C618.205 125.422 620.799 123.526 624.291 120.234C627.783 116.942 631.474 113.051 635.365 108.561C635.664 108.262 636.113 108.212 636.712 108.412C637.311 108.611 637.959 109.06 638.657 109.758C639.555 110.856 640.004 111.754 640.004 112.452C640.004 112.751 639.954 112.951 639.855 113.051C638.857 115.046 638.358 117.191 638.358 119.486C638.358 119.885 638.458 120.683 638.657 121.88C638.957 123.975 642.349 122.379 648.834 117.091C655.418 111.804 658.81 109.11 659.01 109.01C659.508 108.511 660.057 108.262 660.656 108.262C661.155 108.262 661.604 108.462 662.003 108.861C662.601 109.559 662.901 110.207 662.901 110.806C662.901 111.305 662.751 111.704 662.452 112.003C656.466 117.291 652.126 121.082 649.432 123.377C646.738 125.571 644.494 127.168 642.698 128.165C640.603 129.263 638.608 129.811 636.712 129.811C634.816 129.811 633.32 129.163 632.222 127.866C631.125 126.569 630.626 124.723 630.726 122.329C624.84 128.016 620.55 130.859 617.856 130.859C617.557 130.859 617.108 130.759 616.509 130.56C615.711 130.26 614.714 129.512 613.516 128.315C612.02 126.419 611.421 124.324 611.721 122.03C611.82 120.334 612.369 118.438 613.367 116.343C614.364 114.148 615.711 112.003 617.407 109.908C619.003 107.713 620.749 105.868 622.645 104.371C624.141 103.174 625.887 102.226 627.883 101.528C629.878 100.829 631.873 100.48 633.869 100.48C636.363 100.48 638.558 101.029 640.453 102.126C642.349 103.224 643.596 104.92 644.194 107.214L644.494 108.412ZM663.311 97.4872C663.51 97.0882 663.91 96.9884 664.508 97.188C665.107 97.3875 665.705 97.7865 666.304 98.3851C667.501 99.3828 668.1 100.38 668.1 101.378C668.1 101.677 668.05 101.877 667.95 101.977L665.256 106.616C670.644 101.328 674.634 98.2355 677.228 97.3376C678.326 96.9385 679.323 96.739 680.221 96.739C682.915 96.739 684.262 98.5847 684.262 102.276C684.262 105.469 683.514 109.21 682.017 113.5L683.514 112.751C685.11 112.053 686.307 111.704 687.105 111.704C689.599 111.504 691.495 112.801 692.792 115.595C693.091 116.293 693.241 117.191 693.241 118.288C693.241 119.585 692.941 121.232 692.343 123.227L701.471 115.894L708.505 110.207C709.403 109.31 710.101 108.861 710.6 108.861C710.999 108.861 711.348 109.01 711.648 109.31C712.346 109.908 712.695 110.507 712.695 111.105C712.695 111.405 712.545 111.704 712.246 112.003C707.757 116.493 703.167 120.832 698.478 125.023C693.889 129.113 690.248 131.158 687.554 131.158C686.058 131.158 685.309 130.111 685.309 128.016C685.309 126.22 686.058 123.227 687.554 119.037L688.003 117.391L687.404 117.69C685.409 118.688 683.314 120.084 681.119 121.88C678.924 123.676 677.577 125.023 677.079 125.921V126.07C676.879 126.469 676.48 126.619 675.881 126.519C675.283 126.419 674.634 126.07 673.936 125.472C672.739 124.274 672.14 123.227 672.14 122.329L672.29 121.88L674.235 117.54C675.732 114.348 677.228 111.006 678.725 107.514C680.321 104.022 681.069 102.326 680.97 102.426C678.575 103.224 675.183 105.818 670.793 110.207C666.404 114.497 662.313 118.837 658.522 123.227C654.731 127.517 652.287 130.36 651.189 131.757C650.99 132.056 650.591 132.106 649.992 131.907C649.394 131.707 648.795 131.358 648.196 130.859C647.698 130.36 647.298 129.861 646.999 129.362C646.7 128.764 646.55 128.265 646.55 127.866C646.55 127.567 646.6 127.367 646.7 127.267L663.311 97.4872ZM690.527 159.143C691.625 157.347 693.121 154.803 695.017 151.511C696.812 148.218 698.359 145.375 699.656 142.981C700.055 142.182 700.604 141.285 701.302 140.287C701.9 139.189 702.549 137.942 703.247 136.546C709.233 125.172 714.621 115.844 719.409 108.561C724.298 101.179 728.488 97.2378 731.98 96.739L733.476 96.5894C736.27 96.5894 738.365 97.587 739.762 99.5823C741.158 101.478 741.857 103.872 741.857 106.765C741.857 109.459 741.258 112.103 740.061 114.697C738.564 118.688 736.32 122.379 733.327 125.771C730.334 129.163 727.84 130.859 725.844 130.859C723.749 130.859 721.854 130.31 720.158 129.213C718.561 128.115 717.215 126.769 716.117 125.172C711.927 132.056 704.893 144.527 695.017 162.585L693.819 164.68C692.522 169.069 691.076 171.264 689.48 171.264C688.382 171.264 687.534 170.267 686.936 168.271C686.237 166.276 685.888 163.882 685.888 161.088C685.888 159.392 686.038 157.696 686.337 156C686.736 153.705 689.48 147.42 694.568 137.144C699.556 126.769 704.644 116.543 709.832 106.466C715.119 96.2901 718.761 89.4062 720.756 85.8146C720.956 85.4156 721.604 85.4156 722.702 85.8146C723.799 86.1139 724.797 86.6128 725.695 87.3111C726.692 88.0095 727.091 88.5083 726.892 88.8076L690.527 159.143ZM735.422 101.977C731.93 102.376 726.144 109.01 718.063 121.88C719.36 124.374 720.956 125.621 722.851 125.621C724.248 125.621 726.044 124.025 728.239 120.832C730.533 117.54 732.429 113.949 733.925 110.058C735.023 107.364 735.671 105.369 735.871 104.072C736.07 102.376 735.971 101.278 735.571 100.78C735.472 100.58 735.472 100.73 735.571 101.228C735.671 101.628 735.621 101.877 735.422 101.977ZM749.721 114.847C749.123 115.445 748.425 115.744 747.626 115.744C747.028 115.744 746.529 115.545 746.13 115.146C745.432 114.348 745.681 113.4 746.878 112.302C747.976 111.205 748.574 110.606 748.674 110.507L759.898 96.8887C761.095 95.5917 762.242 94.4943 763.34 93.5964C763.639 93.2971 764.088 93.2971 764.686 93.5964C765.385 93.7959 765.983 94.2449 766.482 94.9432C767.48 95.9409 767.979 96.8388 767.979 97.6369C767.979 97.9362 767.879 98.1856 767.679 98.3851L764.088 101.827C762.492 103.623 761.095 105.718 759.898 108.112C758.7 110.507 758.102 113.001 758.102 115.595C758.102 116.991 758.202 118.039 758.401 118.737C758.7 120.334 758.85 121.78 758.85 123.077C758.85 125.272 758.451 127.267 757.653 129.063C757.054 130.161 756.107 131.258 754.81 132.355C753.712 133.154 752.565 133.702 751.368 134.002C750.969 134.101 750.32 134.151 749.422 134.151C748.025 134.151 746.728 133.852 745.531 133.253C742.139 131.458 740.443 128.914 740.443 125.621C740.443 124.125 740.643 122.928 741.042 122.03C741.441 121.032 741.64 120.483 741.64 120.384C741.84 119.984 742.239 119.885 742.838 120.084C743.436 120.184 744.085 120.533 744.783 121.132C745.98 122.329 746.579 123.377 746.579 124.274L746.429 124.723C746.329 124.923 745.98 125.621 745.382 126.818C744.783 128.016 744.534 128.664 744.633 128.764C744.833 128.864 745.232 128.914 745.831 128.914C746.629 128.914 747.227 128.864 747.626 128.764C748.724 128.564 749.721 128.115 750.619 127.417C751.617 126.719 752.365 125.821 752.864 124.723C753.562 123.426 753.912 121.78 753.912 119.785C753.912 118.388 753.812 117.291 753.612 116.493C753.612 116.094 753.562 115.744 753.463 115.445C753.363 115.046 753.313 114.697 753.313 114.398C753.313 113.001 754.161 110.806 755.857 107.813L749.721 114.847Z" fill="white"/>
</svg>
