<svg width="14" height="20" viewBox="0 0 14 20" fill="none" xmlns="http://www.w3.org/2000/svg">
<path d="M6.8751 9.72227C6.24521 9.72227 5.64112 9.47204 5.19572 9.02664C4.75032 8.58125 4.5001 7.97715 4.5001 7.34727C4.5001 6.71738 4.75032 6.11329 5.19572 5.66789C5.64112 5.22249 6.24521 4.97227 6.8751 4.97227C7.50499 4.97227 8.10908 5.22249 8.55448 5.66789C8.99988 6.11329 9.2501 6.71738 9.2501 7.34727C9.2501 7.65915 9.18867 7.96799 9.06931 8.25614C8.94996 8.54429 8.77502 8.8061 8.55448 9.02664C8.33394 9.24718 8.07212 9.42212 7.78397 9.54148C7.49582 9.66083 7.18699 9.72227 6.8751 9.72227ZM6.8751 0.697266C5.11141 0.697266 3.41996 1.39789 2.17284 2.64501C0.925721 3.89212 0.225098 5.58358 0.225098 7.34727C0.225098 12.3348 6.8751 19.6973 6.8751 19.6973C6.8751 19.6973 13.5251 12.3348 13.5251 7.34727C13.5251 5.58358 12.8245 3.89212 11.5774 2.64501C10.3302 1.39789 8.63879 0.697266 6.8751 0.697266Z" fill="white"/>
</svg>
