<svg width="68" height="60" viewBox="0 0 68 60" fill="none" xmlns="http://www.w3.org/2000/svg">
<path d="M67.4517 29.9356C67.4517 32.0445 65.6942 33.6965 63.7024 33.6965H59.9531L60.0352 52.4663C60.0352 52.7827 60.0117 53.099 59.9766 53.4153V55.3134C59.9766 57.9028 57.8793 60 55.29 60H53.4154C53.2865 60 53.1576 60 53.0287 59.9883C52.8647 60 52.7006 60 52.5366 60L48.7288 59.9883H45.9168C43.3275 59.9883 41.2302 57.891 41.2302 55.3017V44.9912C41.2302 42.9174 39.5548 41.2419 37.481 41.2419H29.9824C27.9086 41.2419 26.2332 42.9174 26.2332 44.9912V55.3017C26.2332 57.891 24.1359 59.9883 21.5466 59.9883H14.9971C14.8213 59.9883 14.6456 59.9766 14.4698 59.9649C14.3292 59.9766 14.1886 59.9883 14.048 59.9883H12.1734C9.58407 59.9883 7.48682 57.891 7.48682 55.3017V42.1793C7.48682 42.0738 7.48682 41.9566 7.49854 41.8512V33.6848H3.74927C1.6403 33.6848 0 32.0445 0 29.9238C0 28.8694 0.351494 27.932 1.17165 27.1119L31.2009 0.937317C32.0211 0.117165 32.9584 0 33.7786 0C34.5987 0 35.536 0.234329 36.239 0.820152L66.1629 27.1236C67.1002 27.9438 67.5688 28.8811 67.4517 29.9356Z" fill="#00712D"/>
</svg>
