<svg width="70" height="60" viewBox="0 0 70 60" fill="none" xmlns="http://www.w3.org/2000/svg">
<path d="M63.0427 0L63.0388 56.8257C64.0562 58.4998 65.1087 59.1435 65.9914 59.1392C66.8672 59.1351 67.9085 58.4837 68.9061 56.8597L66.1818 27.8353L66.15 27.4818L66.3681 27.2C69.4986 23.1832 70.5926 16.2433 69.6996 10.3735C69.2531 7.43838 68.3184 4.78185 67.0095 2.90388C65.9118 1.32901 64.6025 0.324379 63.043 0H63.0427ZM7.98778 0.000591631L7.98542 9.92519L6.12845 9.92282V0.0011827H4.01348L4.01378 9.92326H2.15415V0.0011827H1.77932e-08V15.2632C-0.00014783 16.9512 0.921093 17.8872 2.37148 18.4659L2.97175 18.7057L2.95844 19.3518C2.66274 31.8553 2.37045 44.3587 2.07697 56.8621C3.08825 58.5168 4.12703 59.1433 4.99194 59.1392C5.85685 59.1351 6.89474 58.4921 7.89316 56.8576C7.55075 44.3575 7.20868 31.8572 6.86695 19.3569L6.84921 18.7063L7.45139 18.4689C8.97778 17.8618 9.97058 16.8316 9.97058 15.2641V0.000591631H7.98778ZM35.0125 5.76607C28.6994 5.76607 22.6449 8.27394 18.1808 12.738C13.7168 17.202 11.209 23.2565 11.209 29.5696C11.209 35.8827 13.7168 41.9372 18.1808 46.4012C22.6449 50.8653 28.6994 53.3731 35.0125 53.3731C41.3256 53.3731 47.3801 50.8653 51.8441 46.4012C56.3081 41.9372 58.816 35.8827 58.816 29.5696C58.816 23.2565 56.3081 17.202 51.8441 12.738C47.3801 8.27394 41.3256 5.76607 35.0125 5.76607Z" fill="#00712D"/>
</svg>
