<svg width="59" height="59" viewBox="0 0 59 59" fill="none" xmlns="http://www.w3.org/2000/svg">
<path d="M8.18522 50.347C5.60288 47.7386 3.5931 44.7559 2.15586 41.3988C0.71862 38.0418 0 34.5713 0 30.9873C0 27.3799 0.695144 23.7842 2.08543 20.2002C3.47572 16.6163 5.70592 13.2905 8.77602 10.223C11.2566 7.7372 14.4024 5.76785 18.2133 4.31496C22.0216 2.85946 26.1624 1.79653 30.6359 1.12617C35.1093 0.455802 39.7445 0.0867112 44.5414 0.0188923C49.3382 -0.0489266 53.959 0.065845 58.4038 0.363205C58.7246 4.6671 58.8498 9.20574 58.7794 13.9791C58.709 18.7578 58.3216 23.3903 57.6174 27.8768C56.9131 32.3633 55.8371 36.5263 54.3894 40.3659C52.9418 44.2055 50.9946 47.3487 48.5479 49.7954C45.543 52.8524 42.3007 55.08 38.8211 56.4781C35.3441 57.8736 31.8527 58.5714 28.347 58.5714C24.6743 58.5714 21.0421 57.8528 17.4503 56.4155C13.8585 54.9783 10.7702 52.9555 8.18522 50.347ZM14.778 50.6248C16.8204 51.9864 19.0362 52.9985 21.4255 53.661C23.8149 54.3262 26.1285 54.6587 28.3666 54.6587C31.4001 54.6587 34.3998 54.0679 37.3656 52.8863C40.3366 51.7047 43.1328 49.7523 45.7543 47.0291C46.9202 45.8553 48.1005 44.2081 49.2952 42.0875C50.4899 39.9668 51.5254 37.1967 52.4018 33.7771C53.2783 30.3574 53.9421 26.2165 54.3934 21.3545C54.8446 16.4924 54.9568 10.7043 54.7298 3.99021C51.5345 3.85979 47.9075 3.83631 43.8488 3.91978C39.7901 4.00325 35.734 4.35017 31.6805 4.96054C27.6245 5.57352 23.8162 6.50733 20.2557 7.76198C16.6926 9.01403 13.8455 10.7069 11.7144 12.8406C8.8295 15.7229 6.80797 18.7121 5.64983 21.8083C4.4917 24.9045 3.91263 27.7894 3.91263 30.4631C3.91263 34.0079 4.62081 37.3193 6.03719 40.3972C7.45356 43.4752 9.16859 45.8762 11.1823 47.6004C12.8178 42.9861 15.3453 38.5583 18.765 34.317C22.1872 30.0757 26.9737 26.1213 33.1243 22.4539C28.6274 26.3613 24.8478 30.5191 21.7855 34.9274C18.7232 39.3356 16.3874 44.5681 14.778 50.6248Z" fill="white"/>
</svg>
