<svg width="679" height="160" viewBox="0 0 679 160" fill="none" xmlns="http://www.w3.org/2000/svg">
<path d="M5.6353 32.8108C5.43577 33.1101 5.0367 33.16 4.43811 32.9605C3.73974 32.7609 3.09127 32.3619 2.49267 31.7633C1.39525 30.8654 0.846532 29.8677 0.846532 28.7703C0.846532 28.471 0.896414 28.2715 0.996179 28.1717L2.34302 26.5256C5.0367 23.1335 8.92758 19.6916 14.0156 16.1998C19.0039 12.6082 24.3913 9.76486 30.1777 7.66978C36.463 5.47493 42.2993 4.37751 47.6867 4.37751C56.067 4.37751 63.6991 6.82177 70.583 11.7103L73.2766 13.6557C79.2626 18.5443 82.2556 26.2263 82.2556 36.7017C82.2556 50.6689 76.9181 69.5746 66.2431 93.4186C83.3031 71.3704 100.712 51.916 118.471 35.0555C136.229 18.0953 150.745 9.61521 162.018 9.61521C164.712 9.61521 167.156 10.2138 169.351 11.411C173.442 13.7056 175.487 18.0454 175.487 24.4305C175.487 33.4094 171.097 47.6759 162.318 67.2301L157.978 76.8076C151.992 89.877 147.453 100.602 144.36 108.982C141.267 117.263 139.721 124.446 139.721 130.532C139.721 137.016 141.916 141.556 146.305 144.15C147.004 144.549 147.602 145.147 148.101 145.945C148.7 146.744 148.999 147.442 148.999 148.041C148.999 148.639 148.7 148.938 148.101 148.938C147.802 148.938 147.403 148.789 146.904 148.489C139.022 143.9 135.082 136.218 135.082 125.444C135.082 117.462 136.828 108.483 140.319 98.5067C143.911 88.5301 148.999 76.1591 155.584 61.3938L156.781 58.5504C161.769 47.3766 165.411 38.7968 167.705 32.8108C170.1 26.7251 171.297 22.1857 171.297 19.1928C171.297 17.397 170.848 16.2995 169.95 15.9005C168.254 14.9028 166.259 14.404 163.964 14.404C153.888 14.404 140.369 22.8342 123.409 39.6947C106.449 56.5551 91.035 73.8645 77.1675 91.6229C63.3998 109.281 53.5729 122.301 47.6867 130.681C47.4871 131.08 47.0881 131.23 46.4895 131.13C45.8909 130.931 45.2424 130.532 44.544 129.933C43.4466 129.035 42.8979 128.037 42.8979 126.94C42.8979 126.641 42.9478 126.441 43.0475 126.341C44.0452 124.246 47.537 117.462 53.523 105.989C59.6087 94.5161 65.2455 81.9456 70.4333 68.2776C75.6211 54.5099 78.2151 42.8373 78.2151 33.2598C78.2151 25.6775 76.2696 20.2902 72.3787 17.0977L70.2837 15.6012C64.597 11.6105 58.1122 9.61521 50.8293 9.61521C45.3422 9.61521 39.7054 10.6628 33.919 12.7578C28.3321 14.7532 23.1442 17.4967 18.3555 20.9885C13.4669 24.4803 9.62594 27.8724 6.83249 31.1647C6.03436 32.1623 5.6353 32.711 5.6353 32.8108ZM190.627 96.4116C190.627 97.0102 190.328 97.3095 189.729 97.3095H189.28C188.682 97.11 188.033 96.7608 187.335 96.262C186.736 95.6634 186.287 95.0149 185.988 94.3165C185.29 93.6182 184.242 93.269 182.845 93.269C181.249 93.269 179.453 93.7179 177.458 94.6158C175.562 95.414 174.066 96.262 172.969 97.1599C167.781 101.35 164.339 106.937 162.643 113.921C164.339 113.422 166.933 111.526 170.425 108.234C173.916 104.942 177.608 101.051 181.499 96.5613C181.798 96.262 182.247 96.2121 182.845 96.4116C183.444 96.6112 184.092 97.0601 184.791 97.7585C185.689 98.8559 186.138 99.7538 186.138 100.452C186.138 100.751 186.088 100.951 185.988 101.051C184.99 103.046 184.492 105.191 184.492 107.486C184.492 107.885 184.591 108.683 184.791 109.88C185.09 111.975 188.482 110.379 194.967 105.091C201.552 99.8037 204.944 97.11 205.143 97.0102C205.642 96.5114 206.191 96.262 206.789 96.262C207.288 96.262 207.737 96.4615 208.136 96.8606C208.735 97.5589 209.034 98.2074 209.034 98.806C209.034 99.3048 208.884 99.7039 208.585 100.003C202.599 105.291 198.259 109.082 195.566 111.377C192.872 113.571 190.627 115.168 188.831 116.165C186.736 117.263 184.741 117.811 182.845 117.811C180.95 117.811 179.453 117.163 178.356 115.866C177.259 114.569 176.76 112.723 176.859 110.329C170.973 116.016 166.683 118.859 163.99 118.859C163.69 118.859 163.241 118.759 162.643 118.56C161.845 118.26 160.847 117.512 159.65 116.315C158.153 114.419 157.555 112.324 157.854 110.03C157.954 108.334 158.503 106.438 159.5 104.343C160.498 102.148 161.845 100.003 163.541 97.9081C165.137 95.7133 166.883 93.8676 168.778 92.3711C170.275 91.1739 172.021 90.2261 174.016 89.5278C176.011 88.8294 178.007 88.4802 180.002 88.4802C182.496 88.4802 184.691 89.0289 186.587 90.1264C188.482 91.2238 189.729 92.9198 190.328 95.2144L190.627 96.4116ZM246.557 30.7157C246.757 30.4164 247.156 30.3665 247.754 30.5661C248.453 30.7656 249.101 31.1647 249.7 31.7633C250.698 32.7609 251.196 33.7087 251.196 34.6066C251.196 34.9059 251.147 35.1054 251.047 35.2052L248.652 38.6471C240.172 50.619 233.737 60.3961 229.348 67.9783H239.524C240.023 67.9783 240.621 68.2277 241.32 68.7266C242.018 69.2254 242.567 69.824 242.966 70.5224C243.365 71.0212 243.564 71.6198 243.564 72.3181C243.564 72.9167 243.265 73.216 242.666 73.216H225.906C214.233 90.8746 207.399 101.599 205.404 105.391C203.409 109.182 202.411 111.925 202.411 113.621C202.411 114.02 202.511 114.519 202.71 115.118C203.009 115.617 203.508 115.866 204.207 115.866C206.202 115.866 209.544 114.37 214.233 111.377C218.922 108.384 223.661 105.091 228.45 101.5C233.338 97.8083 235.783 95.9128 235.783 95.813C236.68 95.1147 237.578 95.3142 238.476 96.4116C238.875 96.8107 239.075 97.2098 239.075 97.6088C239.075 98.1076 238.776 98.5566 238.177 98.9557C234.386 102.747 228.749 107.585 221.267 113.472C213.784 119.358 207.499 122.301 202.411 122.301C199.717 122.301 197.822 121.253 196.724 119.158C196.425 118.56 196.275 117.861 196.275 117.063C196.275 114.27 197.622 110.03 200.316 104.343C202.91 98.5566 207.05 91.4732 212.737 83.0929C212.836 79.4015 209.195 76.7577 201.812 75.1615C194.43 73.5652 185.401 72.9167 174.726 73.216C174.227 73.216 173.628 72.9666 172.93 72.4678C172.232 71.8692 171.683 71.2207 171.284 70.5224C170.885 70.0235 170.685 69.4748 170.685 68.8762C170.685 68.2776 170.985 67.9783 171.583 67.9783H222.165C226.854 59.6977 231.692 51.9659 236.68 44.7827C241.769 37.4998 245.061 32.8108 246.557 30.7157ZM218.872 73.216L200.166 72.4678C208.048 75.5605 212.787 78.2043 214.383 80.3992L218.872 73.216ZM243.722 84.8887C244.021 84.5894 244.47 84.5894 245.069 84.8887C245.767 85.0882 246.416 85.4873 247.014 86.0858C247.912 87.0835 248.361 88.0313 248.361 88.9292C248.361 89.3282 248.311 89.5777 248.212 89.6774C244.121 94.3664 241.178 98.6065 239.382 102.398C237.587 106.189 236.689 109.132 236.689 111.227C236.689 111.925 236.788 112.374 236.988 112.574C237.587 113.073 239.133 112.574 241.627 111.077C244.121 109.581 246.915 107.286 250.007 104.193C253.1 101.001 255.894 97.3095 258.388 93.1193L258.837 92.5208C259.136 92.2215 259.585 92.1716 260.184 92.3711C260.882 92.5706 261.53 93.0196 262.129 93.7179C263.127 94.7156 263.625 95.6135 263.625 96.4116C263.625 96.7109 263.526 96.9603 263.326 97.1599C263.127 97.4592 262.777 97.8083 262.279 98.2074C261.081 99.7039 259.635 101.849 257.939 104.642C256.243 107.336 255.395 109.381 255.395 110.778C255.395 111.676 255.844 112.125 256.742 112.125C257.64 112.125 258.837 111.776 260.333 111.077C263.226 109.681 266.219 107.735 269.312 105.241C272.505 102.647 275.049 100.103 276.944 97.6088C277.044 97.5091 277.244 97.2596 277.543 96.8606C277.842 96.3617 278.141 96.1123 278.441 96.1123C278.74 96.1123 279.089 96.3119 279.488 96.7109C279.887 97.11 280.087 97.5091 280.087 97.9081C280.087 98.4069 279.837 98.9058 279.339 99.4046C276.545 102.996 273.901 106.089 271.407 108.683C268.913 111.277 266.319 113.222 263.625 114.519C261.83 115.317 260.084 115.716 258.388 115.716C256.492 115.716 254.846 115.218 253.449 114.22C252.053 113.122 251.205 111.526 250.905 109.431C247.912 112.025 245.019 114.02 242.226 115.417C239.532 116.714 237.138 117.362 235.043 117.362C231.351 117.362 229.505 115.367 229.505 111.377C229.505 108.783 230.403 105.49 232.199 101.5C233.496 98.7062 235.192 95.8629 237.287 92.9697C239.382 89.9767 241.527 87.283 243.722 84.8887ZM285.682 81.8957C285.882 81.4966 286.281 81.3968 286.879 81.5964C287.578 81.7959 288.226 82.195 288.825 82.7936C289.922 83.6915 290.471 84.6891 290.471 85.7865C290.471 86.0858 290.421 86.2854 290.321 86.3851L284.784 95.2144C288.975 93.1193 292.516 92.0718 295.409 92.0718C297.604 92.0718 299.201 92.7203 300.198 94.0172C300.597 94.4163 300.897 95.1646 301.096 96.262C301.395 97.2596 301.645 98.0079 301.844 98.5067C302.144 98.9058 302.543 99.1053 303.042 99.1053C306.134 99.3048 309.826 98.7561 314.116 97.4592C315.014 97.1599 315.512 97.0102 315.612 97.0102C316.011 97.0102 316.41 97.2596 316.809 97.7585C317.208 98.2573 317.408 98.7062 317.408 99.1053C317.408 99.4046 317.059 99.654 316.36 99.8536C314.265 100.452 311.821 101.051 309.028 101.649C306.334 102.148 304.189 102.398 302.593 102.398C300.398 102.398 298.752 102.098 297.654 101.5C296.657 100.801 295.21 99.3547 293.314 97.1599C292.616 96.262 290.77 96.7608 287.777 98.6564C284.884 100.452 281.542 102.996 277.751 106.288C276.753 107.685 275.307 110.03 273.411 113.322C271.516 116.514 270.019 119.059 268.922 120.954C268.722 121.353 268.323 121.453 267.724 121.253C267.026 121.054 266.378 120.655 265.779 120.056C264.682 119.158 264.133 118.161 264.133 117.063C264.133 116.764 264.183 116.564 264.283 116.465L285.682 81.8957ZM320.091 96.8606C321.887 96.3617 324.132 95.5137 326.825 94.3165C329.718 92.8201 332.213 90.276 334.308 86.6844L335.056 85.0383C333.46 85.7367 331.514 86.9339 329.22 88.6299C325.329 91.5231 322.286 94.2667 320.091 96.8606ZM330.716 99.255C327.723 100.751 324.63 101.899 321.438 102.697C318.245 103.395 316.2 103.744 315.302 103.744C314.205 106.239 313.656 108.184 313.656 109.581C313.656 112.574 315.552 114.07 319.343 114.07C322.336 114.07 326.077 113.172 330.566 111.377C335.056 109.581 339.196 107.486 342.987 105.091C346.778 102.597 349.173 100.452 350.171 98.6564C350.669 97.7585 351.318 97.3095 352.116 97.3095C352.615 97.3095 353.064 97.5091 353.463 97.9081C354.161 98.6065 354.51 99.2051 354.51 99.7039C354.51 99.9034 354.411 100.203 354.211 100.602C353.014 102.797 350.47 105.391 346.579 108.384C342.788 111.377 338.598 113.97 334.008 116.165C329.419 118.36 325.329 119.458 321.737 119.458C319.443 119.458 317.647 119.059 316.35 118.26C314.155 117.063 312.409 115.367 311.112 113.172C309.715 110.977 309.017 108.633 309.017 106.139C309.017 103.944 309.616 101.699 310.813 99.4046C311.91 97.0102 313.407 94.7156 315.302 92.5208C318.395 89.0289 321.637 86.0858 325.029 83.6915C327.224 82.195 329.22 81.0477 331.015 80.2495C332.911 79.3516 334.258 79.0025 335.056 79.202C336.453 79.5013 337.65 80.2495 338.648 81.4467C340.144 83.1427 340.743 84.9385 340.443 86.8341C340.344 87.8318 339.845 89.2285 338.947 91.0243C338.049 92.7203 336.852 94.3165 335.355 95.813C333.959 97.2098 332.412 98.3571 330.716 99.255ZM473.239 69.4748C472.74 69.5746 472.142 69.375 471.443 68.8762C470.845 68.3774 470.296 67.7289 469.797 66.9308C469.398 66.4319 469.199 65.8832 469.199 65.2846C469.199 64.686 469.498 64.3867 470.097 64.3867C478.377 63.9877 487.107 61.8427 496.285 57.9518C505.464 53.9612 513.894 48.923 521.576 42.8373C528.959 37.1506 534.545 31.3642 538.337 25.478C541.429 20.789 542.976 16.7485 542.976 13.3564C542.976 12.6581 542.876 11.8101 542.676 10.8124C542.277 9.61521 541.629 8.66744 540.731 7.96908C540.232 7.47025 539.434 7.0213 538.337 6.62224C536.142 5.72434 533.348 5.2754 529.956 5.2754C525.267 5.2754 519.83 6.22317 513.644 8.11873C507.559 9.91451 501.174 12.5084 494.489 15.9005C482.218 22.1857 470.745 29.4188 460.07 37.5996C449.395 45.6806 438.72 56.9043 428.045 71.2706C420.263 81.746 414.477 91.6229 410.686 100.901C406.795 110.578 404.85 119.308 404.85 127.09C404.85 131.28 405.348 134.871 406.346 137.864C408.042 143.252 411.135 147.143 415.624 149.537C419.615 151.433 424.204 152.38 429.392 152.38C431.786 152.38 434.63 152.131 437.922 151.632C449.595 149.737 463.313 144.1 479.076 134.722C494.839 125.244 512.198 111.726 531.153 94.1669C531.453 93.9674 531.902 94.0172 532.5 94.3165C533.199 94.5161 533.847 94.9151 534.446 95.5137C535.344 96.4116 535.793 97.3095 535.793 98.2074C535.793 98.5067 535.693 98.7561 535.493 98.9557C516.438 116.614 498.929 130.182 482.966 139.66C467.104 149.138 453.236 154.874 441.364 156.87C438.072 157.369 435.179 157.618 432.684 157.618C426.698 157.618 421.311 156.421 416.522 154.026C409.14 150.235 404.151 144.249 401.557 136.069C400.46 132.277 399.911 128.337 399.911 124.246C399.911 115.766 401.907 106.588 405.897 96.7109C409.389 87.9315 415.275 77.905 423.556 66.6315C434.33 52.1654 445.105 40.842 455.88 32.6612C466.655 24.4804 478.178 17.2473 490.449 10.9621C497.333 7.47025 503.917 4.82645 510.203 3.03066C516.488 1.13511 522.125 0.187335 527.113 0.187335C531.104 0.187335 534.396 0.736046 536.99 1.83347C538.287 2.3323 539.783 3.18031 541.479 4.37751C544.472 6.77189 546.418 9.56533 547.315 12.7578C547.615 13.955 547.764 15.2021 547.764 16.4991C547.764 20.789 546.168 25.2785 542.976 29.9675C538.885 36.153 533.199 42.0392 525.916 47.6261C518.034 53.8115 509.404 58.9495 500.026 63.0399C490.648 67.0305 481.719 69.1755 473.239 69.4748ZM554.958 96.4116C554.958 97.0102 554.659 97.3095 554.06 97.3095H553.611C553.013 97.11 552.364 96.7608 551.666 96.262C551.067 95.6634 550.618 95.0149 550.319 94.3165C549.621 93.6182 548.573 93.269 547.176 93.269C545.58 93.269 543.784 93.7179 541.789 94.6158C539.893 95.414 538.397 96.262 537.3 97.1599C532.112 101.35 528.67 106.937 526.974 113.921C528.67 113.422 531.264 111.526 534.756 108.234C538.247 104.942 541.939 101.051 545.83 96.5613C546.129 96.262 546.578 96.2121 547.176 96.4116C547.775 96.6112 548.423 97.0601 549.122 97.7585C550.02 98.8559 550.469 99.7538 550.469 100.452C550.469 100.751 550.419 100.951 550.319 101.051C549.321 103.046 548.823 105.191 548.823 107.486C548.823 107.885 548.922 108.683 549.122 109.88C549.421 111.975 552.813 110.379 559.298 105.091C565.882 99.8037 569.275 97.11 569.474 97.0102C569.973 96.5114 570.522 96.262 571.12 96.262C571.619 96.262 572.068 96.4615 572.467 96.8606C573.066 97.5589 573.365 98.2074 573.365 98.806C573.365 99.3048 573.215 99.7039 572.916 100.003C566.93 105.291 562.59 109.082 559.897 111.377C557.203 113.571 554.958 115.168 553.162 116.165C551.067 117.263 549.072 117.811 547.176 117.811C545.281 117.811 543.784 117.163 542.687 115.866C541.589 114.569 541.091 112.723 541.19 110.329C535.304 116.016 531.014 118.859 528.321 118.859C528.021 118.859 527.572 118.759 526.974 118.56C526.176 118.26 525.178 117.512 523.981 116.315C522.484 114.419 521.886 112.324 522.185 110.03C522.285 108.334 522.833 106.438 523.831 104.343C524.829 102.148 526.176 100.003 527.872 97.9081C529.468 95.7133 531.214 93.8676 533.109 92.3711C534.606 91.1739 536.352 90.2261 538.347 89.5278C540.342 88.8294 542.338 88.4802 544.333 88.4802C546.827 88.4802 549.022 89.0289 550.918 90.1264C552.813 91.2238 554.06 92.9198 554.659 95.2144L554.958 96.4116ZM573.775 85.4872C573.975 85.0882 574.374 84.9884 574.972 85.188C575.571 85.3875 576.17 85.7865 576.768 86.3851C577.965 87.3828 578.564 88.3805 578.564 89.3781C578.564 89.6774 578.514 89.877 578.414 89.9767L575.721 94.6158C581.108 89.3282 585.099 86.2355 587.693 85.3376C588.79 84.9385 589.788 84.739 590.686 84.739C593.379 84.739 594.726 86.5847 594.726 90.276C594.726 93.4685 593.978 97.2098 592.481 101.5L593.978 100.751C595.574 100.053 596.771 99.7039 597.569 99.7039C600.064 99.5044 601.959 100.801 603.256 103.595C603.555 104.293 603.705 105.191 603.705 106.288C603.705 107.585 603.406 109.232 602.807 111.227L611.936 103.894L618.969 98.2074C619.867 97.3095 620.566 96.8606 621.064 96.8606C621.463 96.8606 621.813 97.0102 622.112 97.3095C622.81 97.9081 623.159 98.5067 623.159 99.1053C623.159 99.4046 623.01 99.7039 622.71 100.003C618.221 104.493 613.632 108.832 608.943 113.023C604.354 117.113 600.712 119.158 598.018 119.158C596.522 119.158 595.774 118.111 595.774 116.016C595.774 114.22 596.522 111.227 598.018 107.037L598.467 105.391L597.869 105.69C595.873 106.688 593.778 108.084 591.584 109.88C589.389 111.676 588.042 113.023 587.543 113.921V114.07C587.343 114.469 586.944 114.619 586.346 114.519C585.747 114.419 585.099 114.07 584.4 113.472C583.203 112.274 582.605 111.227 582.605 110.329L582.754 109.88L584.7 105.54C586.196 102.348 587.693 99.0055 589.189 95.5137C590.785 92.0219 591.534 90.3259 591.434 90.4257C589.039 91.2238 585.647 93.8177 581.258 98.2074C576.868 102.497 572.778 106.837 568.987 111.227C565.195 115.517 562.751 118.36 561.654 119.757C561.454 120.056 561.055 120.106 560.457 119.907C559.858 119.707 559.259 119.358 558.661 118.859C558.162 118.36 557.763 117.861 557.464 117.362C557.164 116.764 557.015 116.265 557.015 115.866C557.015 115.567 557.064 115.367 557.164 115.267L573.775 85.4872ZM600.992 147.143C602.089 145.347 603.585 142.803 605.481 139.511C607.277 136.218 608.823 133.375 610.12 130.981C610.519 130.182 611.068 129.285 611.766 128.287C612.365 127.189 613.013 125.942 613.712 124.546C619.698 113.172 625.085 103.844 629.874 96.5613C634.762 89.1786 638.952 85.2378 642.444 84.739L643.941 84.5894C646.734 84.5894 648.829 85.587 650.226 87.5823C651.623 89.4779 652.321 91.8723 652.321 94.7655C652.321 97.4592 651.723 100.103 650.525 102.697C649.029 106.688 646.784 110.379 643.791 113.771C640.798 117.163 638.304 118.859 636.309 118.859C634.214 118.859 632.318 118.31 630.622 117.213C629.026 116.115 627.679 114.769 626.581 113.172C622.391 120.056 615.358 132.527 605.481 150.585L604.284 152.68C602.987 157.069 601.54 159.264 599.944 159.264C598.847 159.264 597.999 158.267 597.4 156.271C596.702 154.276 596.352 151.882 596.352 149.088C596.352 147.392 596.502 145.696 596.801 144C597.2 141.705 599.944 135.42 605.032 125.144C610.02 114.769 615.108 104.543 620.296 94.4662C625.584 84.2901 629.225 77.4062 631.221 73.8146C631.42 73.4156 632.069 73.4156 633.166 73.8146C634.263 74.1139 635.261 74.6128 636.159 75.3111C637.157 76.0095 637.556 76.5083 637.356 76.8076L600.992 147.143ZM645.886 89.9767C642.394 90.3758 636.608 97.0102 628.527 109.88C629.824 112.374 631.42 113.621 633.316 113.621C634.712 113.621 636.508 112.025 638.703 108.832C640.998 105.54 642.893 101.949 644.39 98.0578C645.487 95.3641 646.136 93.3688 646.335 92.0718C646.535 90.3758 646.435 89.2784 646.036 88.7795C645.936 88.58 645.936 88.7296 646.036 89.2285C646.136 89.6275 646.086 89.877 645.886 89.9767ZM660.186 102.847C659.587 103.445 658.889 103.744 658.091 103.744C657.492 103.744 656.993 103.545 656.594 103.146C655.896 102.348 656.145 101.4 657.343 100.302C658.44 99.2051 659.039 98.6065 659.138 98.5067L670.362 84.8887C671.559 83.5917 672.707 82.4943 673.804 81.5964C674.103 81.2971 674.552 81.2971 675.151 81.5964C675.849 81.7959 676.448 82.2449 676.947 82.9432C677.944 83.9409 678.443 84.8388 678.443 85.6369C678.443 85.9362 678.343 86.1856 678.144 86.3851L674.552 89.8271C672.956 91.6229 671.559 93.7179 670.362 96.1123C669.165 98.5067 668.566 101.001 668.566 103.595C668.566 104.991 668.666 106.039 668.866 106.737C669.165 108.334 669.314 109.78 669.314 111.077C669.314 113.272 668.915 115.267 668.117 117.063C667.519 118.161 666.571 119.258 665.274 120.355C664.177 121.154 663.029 121.702 661.832 122.002C661.433 122.101 660.784 122.151 659.887 122.151C658.49 122.151 657.193 121.852 655.996 121.253C652.604 119.458 650.908 116.914 650.908 113.621C650.908 112.125 651.107 110.928 651.506 110.03C651.905 109.032 652.105 108.483 652.105 108.384C652.304 107.984 652.703 107.885 653.302 108.084C653.901 108.184 654.549 108.533 655.247 109.132C656.445 110.329 657.043 111.377 657.043 112.274L656.894 112.723C656.794 112.923 656.445 113.621 655.846 114.818C655.247 116.016 654.998 116.664 655.098 116.764C655.297 116.864 655.696 116.914 656.295 116.914C657.093 116.914 657.692 116.864 658.091 116.764C659.188 116.564 660.186 116.115 661.084 115.417C662.081 114.719 662.83 113.821 663.329 112.723C664.027 111.426 664.376 109.78 664.376 107.785C664.376 106.388 664.276 105.291 664.077 104.493C664.077 104.094 664.027 103.744 663.927 103.445C663.827 103.046 663.777 102.697 663.777 102.398C663.777 101.001 664.625 98.806 666.322 95.813L660.186 102.847Z" fill="white"/>
</svg>
