<svg width="62" height="62" viewBox="0 0 62 62" fill="none" xmlns="http://www.w3.org/2000/svg">
<path d="M9.20551 52.7602C6.53821 50.0659 4.4623 46.9851 2.97777 43.5176C1.49324 40.0501 0.750977 36.4654 0.750977 32.7635C0.750977 29.0374 1.46899 25.3234 2.90502 21.6215C4.34106 17.9196 6.64463 14.4844 9.81576 11.316C12.378 8.74837 15.6272 6.71422 19.5635 5.21352C23.4971 3.71014 27.7742 2.61223 32.3949 1.91981C37.0155 1.22739 41.8032 0.846156 46.7579 0.776106C51.7126 0.706055 56.4854 0.824603 61.0764 1.13175C61.4078 5.57725 61.5371 10.2652 61.4644 15.1957C61.3917 20.1315 60.9916 24.9165 60.2641 29.5506C59.5367 34.1847 58.4253 38.4847 56.93 42.4507C55.4347 46.4166 53.4234 49.6632 50.8962 52.1904C47.7925 55.348 44.4435 57.6489 40.8494 59.093C37.258 60.5344 33.6517 61.2551 30.0307 61.2551C26.2372 61.2551 22.4854 60.5129 18.7755 59.0283C15.0655 57.5438 11.8755 55.4544 9.20551 52.7602ZM16.0152 53.0471C18.1248 54.4535 20.4136 55.4989 22.8815 56.1832C25.3494 56.8703 27.7392 57.2138 30.0509 57.2138C33.1843 57.2138 36.2827 56.6035 39.346 55.383C42.4148 54.1625 45.303 52.1459 48.0107 49.3331C49.215 48.1207 50.4342 46.4193 51.6681 44.2289C52.9021 42.0384 53.9717 39.1772 54.877 35.645C55.7822 32.1129 56.4679 27.8357 56.934 22.8137C57.4001 17.7916 57.516 11.8131 57.2816 4.87809C53.9811 4.74338 50.2348 4.71913 46.0425 4.80535C41.8503 4.89156 37.6608 5.2499 33.4739 5.88035C29.2844 6.5135 25.3508 7.47804 21.6731 8.77397C17.9928 10.0672 15.052 11.8158 12.8508 14.0197C9.87099 16.9968 7.78295 20.0844 6.58671 23.2825C5.39046 26.4805 4.79234 29.4604 4.79234 32.222C4.79234 35.8834 5.52383 39.3038 6.9868 42.483C8.44978 45.6622 10.2212 48.1422 12.3012 49.9231C13.9905 45.157 16.6012 40.5836 20.1334 36.2027C23.6682 31.8219 28.6121 27.7374 34.9652 23.9493C30.3203 27.9853 26.4163 32.2799 23.2533 36.8332C20.0903 41.3864 17.6776 46.7911 16.0152 53.0471Z" fill="#00712D"/>
</svg>
