<svg width="66" height="61" viewBox="0 0 66 61" fill="none" xmlns="http://www.w3.org/2000/svg">
<path d="M7.55707 54.2222V6.77778V21.9431V20.3333V54.2222ZM14.3348 33.8889H33.0585C33.1714 32.6463 33.4538 31.4602 33.9057 30.3305C34.3575 29.2009 34.9223 28.1278 35.6001 27.1111H14.3348V33.8889ZM14.3348 47.4444H27.6362C28.5964 46.3148 29.6978 45.3975 30.9404 44.6927C32.183 43.9878 33.4821 43.4083 34.8376 42.9542C34.6117 42.6153 34.414 42.2481 34.2446 41.8528C34.0751 41.4574 33.9339 41.062 33.821 40.6667H14.3348V47.4444ZM14.3348 20.3333H48.2237V13.5556H14.3348V20.3333ZM7.55707 61C5.69318 61 4.09815 60.3369 2.77196 59.0107C1.44578 57.6845 0.781556 56.0884 0.779297 54.2222V6.77778C0.779297 4.91389 1.44352 3.31885 2.77196 1.99267C4.10041 0.666482 5.69544 0.00225926 7.55707 0H55.0015C56.8654 0 58.4616 0.664222 59.79 1.99267C61.1185 3.32111 61.7815 4.91615 61.7793 6.77778V28.6361C60.9885 27.1676 60.0284 25.8685 58.8987 24.7389C57.7691 23.6093 56.47 22.6773 55.0015 21.9431V6.77778H7.55707V54.2222H24.671C24.6145 54.5611 24.5716 54.9 24.5422 55.2389C24.5128 55.5778 24.4993 55.9167 24.5015 56.2555V61H7.55707ZM48.2237 44.0555C45.8515 44.0555 43.8464 43.2366 42.2085 41.5986C40.5705 39.9606 39.7515 37.9556 39.7515 35.5833C39.7515 33.2111 40.5705 31.206 42.2085 29.5681C43.8464 27.9301 45.8515 27.1111 48.2237 27.1111C50.596 27.1111 52.601 27.9301 54.239 29.5681C55.877 31.206 56.6959 33.2111 56.6959 35.5833C56.6959 37.9556 55.877 39.9606 54.239 41.5986C52.601 43.2366 50.596 44.0555 48.2237 44.0555ZM31.2793 61V56.2555C31.2793 54.9 31.6329 53.6438 32.34 52.4871C33.0472 51.3304 34.0491 50.4967 35.346 49.9861C37.3793 49.1389 39.4838 48.504 41.6595 48.0815C43.8351 47.6591 46.0232 47.4467 48.2237 47.4444C50.4242 47.4422 52.6135 47.6545 54.7914 48.0815C56.9693 48.5085 59.0727 49.1434 61.1015 49.9861C62.4006 50.4944 63.4037 51.3281 64.1108 52.4871C64.818 53.6461 65.1704 54.9023 65.1682 56.2555V61H31.2793Z" fill="white"/>
</svg>
