<svg width="16" height="20" viewBox="0 0 16 20" fill="none" xmlns="http://www.w3.org/2000/svg">
<path d="M6.13555 8.8116L7.6844 7.39254C8.10791 7.00377 8.40557 6.49731 8.53919 5.93817C8.67281 5.37902 8.63629 4.7927 8.43431 4.25446L7.77382 2.49073C7.52705 1.83228 7.03853 1.29268 6.40779 0.981861C5.77704 0.671042 5.05152 0.612392 4.37904 0.817858C1.90433 1.57498 0.00216028 3.87518 0.587666 6.60658C0.972716 8.40348 1.70965 10.659 3.10563 13.0587C4.5045 15.4642 6.10238 17.2409 7.47241 18.4898C9.54043 20.3717 12.4968 19.9016 14.399 18.1278C14.9086 17.6522 15.2177 17.0003 15.2635 16.3047C15.3094 15.6092 15.0884 14.9223 14.6456 14.384L13.4342 12.913C13.0688 12.4682 12.5787 12.1429 12.0269 11.9789C11.4751 11.8149 10.8869 11.8198 10.3379 11.9929L8.33625 12.6232C7.81902 12.0899 7.36599 11.498 6.98641 10.8594C6.62013 10.2137 6.33438 9.52545 6.13555 8.81016" fill="white"/>
</svg>
