<svg width="100" height="100" viewBox="0 0 100 100" fill="none" xmlns="http://www.w3.org/2000/svg">
<path d="M0 50C0 36.7392 5.26784 24.0215 14.6447 14.6447C24.0215 5.26784 36.7392 0 50 0C63.2608 0 75.9785 5.26784 85.3553 14.6447C94.7322 24.0215 100 36.7392 100 50C100 63.2608 94.7322 75.9785 85.3553 85.3553C75.9785 94.7322 63.2608 100 50 100C36.7392 100 24.0215 94.7322 14.6447 85.3553C5.26784 75.9785 0 63.2608 0 50ZM36.7773 28.7305C35.293 29.5508 34.375 31.1328 34.375 32.8125V67.1875C34.375 68.8867 35.293 70.4492 36.7773 71.2695C38.2617 72.0898 40.0586 72.0703 41.5234 71.1719L69.6484 53.9844C71.0352 53.125 71.8945 51.6211 71.8945 49.9805C71.8945 48.3398 71.0352 46.8359 69.6484 45.9766L41.5234 28.7891C40.0781 27.9102 38.2617 27.8711 36.7773 28.6914V28.7305Z" fill="#00712D"/>
</svg>
