<svg width="89" height="88" viewBox="0 0 89 88" fill="none" xmlns="http://www.w3.org/2000/svg">
<circle cx="44.9884" cy="44.0002" r="42.8268" stroke="white" stroke-width="2.34668"/>
<path d="M36.3791 30.4765C36.3791 30.1456 36.5105 29.8283 36.7445 29.5944C36.9784 29.3604 37.2957 29.229 37.6265 29.229H52.596C52.9269 29.229 53.2442 29.3604 53.4781 29.5944C53.7121 29.8283 53.8435 30.1456 53.8435 30.4765C53.8435 30.8073 53.7121 31.1246 53.4781 31.3585C53.2442 31.5925 52.9269 31.7239 52.596 31.7239H37.6265C37.2957 31.7239 36.9784 31.5925 36.7445 31.3585C36.5105 31.1246 36.3791 30.8073 36.3791 30.4765ZM35.1316 44.1985C34.4699 44.1985 33.8353 44.4613 33.3675 44.9292C32.8996 45.3971 32.6367 46.0317 32.6367 46.6934C32.6367 47.3551 32.8996 47.9897 33.3675 48.4576C33.8353 48.9255 34.4699 49.1883 35.1316 49.1883C35.7933 49.1883 36.4279 48.9255 36.8958 48.4576C37.3637 47.9897 37.6265 47.3551 37.6265 46.6934C37.6265 46.0317 37.3637 45.3971 36.8958 44.9292C36.4279 44.4613 35.7933 44.1985 35.1316 44.1985ZM55.0909 44.1985C54.4293 44.1985 53.7947 44.4613 53.3268 44.9292C52.8589 45.3971 52.596 46.0317 52.596 46.6934C52.596 47.3551 52.8589 47.9897 53.3268 48.4576C53.7947 48.9255 54.4293 49.1883 55.0909 49.1883C55.7526 49.1883 56.3872 48.9255 56.8551 48.4576C57.323 47.9897 57.5859 47.3551 57.5859 46.6934C57.5859 46.0317 57.323 45.3971 56.8551 44.9292C56.3872 44.4613 55.7526 44.1985 55.0909 44.1985ZM42.6164 46.6934C42.6164 46.0317 42.8792 45.3971 43.3471 44.9292C43.815 44.4613 44.4496 44.1985 45.1113 44.1985C45.773 44.1985 46.4076 44.4613 46.8755 44.9292C47.3433 45.3971 47.6062 46.0317 47.6062 46.6934C47.6062 47.3551 47.3433 47.9897 46.8755 48.4576C46.4076 48.9255 45.773 49.1883 45.1113 49.1883C44.4496 49.1883 43.815 48.9255 43.3471 48.4576C42.8792 47.9897 42.6164 47.3551 42.6164 46.6934ZM35.1316 54.1781C34.4699 54.1781 33.8353 54.441 33.3675 54.9089C32.8996 55.3768 32.6367 56.0114 32.6367 56.6731C32.6367 57.3347 32.8996 57.9693 33.3675 58.4372C33.8353 58.9051 34.4699 59.168 35.1316 59.168C35.7933 59.168 36.4279 58.9051 36.8958 58.4372C37.3637 57.9693 37.6265 57.3347 37.6265 56.6731C37.6265 56.0114 37.3637 55.3768 36.8958 54.9089C36.4279 54.441 35.7933 54.1781 35.1316 54.1781ZM42.6164 56.6731C42.6164 56.0114 42.8792 55.3768 43.3471 54.9089C43.815 54.441 44.4496 54.1781 45.1113 54.1781C45.773 54.1781 46.4076 54.441 46.8755 54.9089C47.3433 55.3768 47.6062 56.0114 47.6062 56.6731C47.6062 57.3347 47.3433 57.9693 46.8755 58.4372C46.4076 58.9051 45.773 59.168 45.1113 59.168C44.4496 59.168 43.815 58.9051 43.3471 58.4372C42.8792 57.9693 42.6164 57.3347 42.6164 56.6731Z" fill="white"/>
<path d="M49.1584 21.7434H41.0599C38.3155 21.7434 36.1748 21.7434 34.4608 21.8831C32.7194 22.0253 31.3048 22.3197 30.0323 22.9659C27.9193 24.0424 26.2013 25.7603 25.1249 27.8734C24.4762 29.1458 24.1843 30.5604 24.0421 32.3019C23.9023 34.0184 23.9023 36.154 23.9023 38.9009V49.4943C23.9023 52.2387 23.9023 54.3794 24.0421 56.0934C24.1843 57.8348 24.4787 59.2495 25.1249 60.5219C26.2013 62.6349 27.9193 64.3529 30.0323 65.4294C31.3048 66.078 32.7194 66.3699 34.4608 66.5121C36.1773 66.6519 38.313 66.6519 41.0599 66.6519H49.1584C51.9028 66.6519 54.0434 66.6519 55.7574 66.5121C57.4989 66.3699 58.9135 66.0755 60.1859 65.4294C62.299 64.3529 64.0169 62.6349 65.0934 60.5219C65.7421 59.2495 66.034 57.8348 66.1762 56.0934C66.3159 54.3794 66.3159 52.2412 66.3159 49.4943V38.9009C66.3159 36.1565 66.3159 34.0159 66.1762 32.3019C66.034 30.5604 65.7396 29.1458 65.0934 27.8734C64.0169 25.7603 62.299 24.0424 60.1859 22.9659C58.9135 22.3172 57.4989 22.0253 55.7574 21.8831C54.0409 21.7434 51.9053 21.7434 49.1584 21.7434ZM31.1625 25.1889C32.0258 24.7498 33.0736 24.5003 34.6629 24.3706C36.2646 24.2383 38.303 24.2383 41.1172 24.2383H49.101C51.9152 24.2383 53.9536 24.2383 55.5528 24.3706C57.1421 24.5003 58.1899 24.7498 59.0532 25.1889C60.6968 26.0262 62.0331 27.3625 62.8704 29.0061C63.3095 29.8693 63.559 30.9172 63.6887 32.5065C63.7835 33.6466 63.811 35.0064 63.8185 36.7129H26.3973C26.4072 35.0064 26.4322 33.6441 26.527 32.5065C26.6567 30.9172 26.9062 29.8693 27.3453 29.0061C28.1826 27.3625 29.5189 26.0262 31.1625 25.1889ZM26.3973 39.2078H63.821V49.437C63.821 52.2512 63.821 54.2896 63.6887 55.8888C63.559 57.4781 63.3095 58.5259 62.8704 59.3892C62.0331 61.0328 60.6968 62.3691 59.0532 63.2064C58.1899 63.6455 57.1421 63.895 55.5553 64.0247C53.9536 64.1569 51.9152 64.1569 49.101 64.1569H41.1172C38.303 64.1569 36.2646 64.1569 34.6654 64.0247C33.0761 63.895 32.0283 63.6455 31.165 63.2064C29.5214 62.3691 28.1851 61.0328 27.3478 59.3892C26.9087 58.5259 26.6592 57.4781 26.5295 55.8913C26.3973 54.2896 26.3973 52.2512 26.3973 49.437V39.2078Z" fill="white"/>
<path fill-rule="evenodd" clip-rule="evenodd" d="M35.7597 30.476C35.7597 29.9798 35.9569 29.5038 36.3078 29.1529C36.6587 28.802 37.1346 28.6049 37.6309 28.6049H52.6004C53.0967 28.6049 53.5726 28.802 53.9235 29.1529C54.2744 29.5038 54.4716 29.9798 54.4716 30.476C54.4716 30.9723 54.2744 31.4483 53.9235 31.7992C53.5726 32.1501 53.0967 32.3472 52.6004 32.3472H37.6309C37.1346 32.3472 36.6587 32.1501 36.3078 31.7992C35.9569 31.4483 35.7597 30.9723 35.7597 30.476ZM32.0174 46.693C32.0174 45.8659 32.3459 45.0726 32.9308 44.4878C33.5156 43.9029 34.3089 43.5743 35.136 43.5743C35.9631 43.5743 36.7564 43.9029 37.3412 44.4878C37.9261 45.0726 38.2546 45.8659 38.2546 46.693C38.2546 47.5201 37.9261 48.3133 37.3412 48.8982C36.7564 49.4831 35.9631 49.8116 35.136 49.8116C34.3089 49.8116 33.5156 49.4831 32.9308 48.8982C32.3459 48.3133 32.0174 47.5201 32.0174 46.693ZM51.9767 46.693C51.9767 45.8659 52.3052 45.0726 52.8901 44.4878C53.475 43.9029 54.2682 43.5743 55.0953 43.5743C55.9224 43.5743 56.7157 43.9029 57.3005 44.4878C57.8854 45.0726 58.214 45.8659 58.214 46.693C58.214 47.5201 57.8854 48.3133 57.3005 48.8982C56.7157 49.4831 55.9224 49.8116 55.0953 49.8116C54.2682 49.8116 53.475 49.4831 52.8901 48.8982C52.3052 48.3133 51.9767 47.5201 51.9767 46.693ZM41.997 46.693C41.997 45.8659 42.3256 45.0726 42.9104 44.4878C43.4953 43.9029 44.2885 43.5743 45.1157 43.5743C45.9428 43.5743 46.736 43.9029 47.3209 44.4878C47.9057 45.0726 48.2343 45.8659 48.2343 46.693C48.2343 47.5201 47.9057 48.3133 47.3209 48.8982C46.736 49.4831 45.9428 49.8116 45.1157 49.8116C44.2885 49.8116 43.4953 49.4831 42.9104 48.8982C42.3256 48.3133 41.997 47.5201 41.997 46.693ZM32.0174 56.6726C32.0174 55.8455 32.3459 55.0523 32.9308 54.4674C33.5156 53.8826 34.3089 53.554 35.136 53.554C35.9631 53.554 36.7564 53.8826 37.3412 54.4674C37.9261 55.0523 38.2546 55.8455 38.2546 56.6726C38.2546 57.4998 37.9261 58.293 37.3412 58.8779C36.7564 59.4627 35.9631 59.7913 35.136 59.7913C34.3089 59.7913 33.5156 59.4627 32.9308 58.8779C32.3459 58.293 32.0174 57.4998 32.0174 56.6726ZM41.997 56.6726C41.997 55.8455 42.3256 55.0523 42.9104 54.4674C43.4953 53.8826 44.2885 53.554 45.1157 53.554C45.9428 53.554 46.736 53.8826 47.3209 54.4674C47.9057 55.0523 48.2343 55.8455 48.2343 56.6726C48.2343 57.4998 47.9057 58.293 47.3209 58.8779C46.736 59.4627 45.9428 59.7913 45.1157 59.7913C44.2885 59.7913 43.4953 59.4627 42.9104 58.8779C42.3256 58.293 41.997 57.4998 41.997 56.6726ZM49.1923 21.1201C51.9143 21.1201 54.0749 21.1201 55.8138 21.2623C57.5952 21.407 59.0996 21.7114 60.4768 22.41C62.7064 23.5473 64.5186 25.3613 65.6538 27.5919C66.3549 28.9641 66.6592 30.4711 66.8039 32.2524C66.9462 33.9914 66.9461 36.152 66.9461 38.8739V49.5222C66.9461 52.2442 66.9462 54.4048 66.8039 56.1437C66.6592 57.9251 66.3549 59.4295 65.6563 60.8067C64.5196 63.0359 62.7066 64.8481 60.4768 65.9837C59.0996 66.6847 57.5952 66.9891 55.8138 67.1338C54.0749 67.276 51.9143 67.276 49.1923 67.276H41.039C38.317 67.276 36.1564 67.276 34.4175 67.1338C32.6361 66.9891 31.1317 66.6847 29.757 65.9862C27.5269 64.8499 25.7137 63.0368 24.5775 60.8067C23.8765 59.4295 23.5721 57.9251 23.4274 56.1437C23.2852 54.4048 23.2852 52.2442 23.2852 49.5222V38.8739C23.2852 36.152 23.2852 33.9914 23.4274 32.2524C23.5721 30.4711 23.8765 28.9666 24.575 27.5919C25.7119 25.3614 27.5259 23.5483 29.757 22.4125C31.1292 21.7114 32.6361 21.407 34.4175 21.2623C36.1564 21.1201 38.317 21.1201 41.0415 21.1201H49.1923ZM34.7218 24.9922C33.175 25.117 32.2145 25.359 31.4535 25.7457C29.9282 26.523 28.688 27.7632 27.9107 29.2885C27.524 30.0494 27.2845 31.01 27.1573 32.5568C27.0774 33.5298 27.0475 34.6775 27.0325 36.0896H63.1963C63.1973 34.9109 63.1565 33.7326 63.074 32.5568C62.9493 31.01 62.7073 30.0494 62.3206 29.2885C61.5433 27.7632 60.3031 26.523 58.7778 25.7457C58.0168 25.359 57.0563 25.1195 55.5095 24.9922C53.9377 24.865 51.9318 24.8625 49.1075 24.8625H41.1238C38.2971 24.8625 36.2911 24.8625 34.7218 24.9922ZM63.82 36.0896C63.8214 34.8943 63.7798 33.6993 63.6953 32.5069C63.5655 30.9176 63.316 29.8698 62.8769 29.0065C62.0397 27.3629 60.7034 26.0266 59.0597 25.1893C58.1965 24.7502 57.1486 24.5007 55.5619 24.371C53.9601 24.2388 51.9218 24.2388 49.1075 24.2388H41.1238C38.3095 24.2388 36.2712 24.2388 34.6719 24.371C33.0827 24.5007 32.0348 24.7502 31.1716 25.1893C29.5279 26.0266 28.1916 27.3629 27.3544 29.0065C26.9153 29.8698 26.6658 30.9176 26.536 32.5069C26.4537 33.5049 26.4238 34.67 26.4113 36.0896L26.4038 36.7133H63.8275L63.82 36.0896ZM63.2038 39.832H27.0275V49.4374C27.0275 52.2641 27.0275 54.27 27.1573 55.8393C27.282 57.3862 27.524 58.3467 27.9107 59.1077C28.688 60.633 29.9282 61.8731 31.4535 62.6505C32.2145 63.0372 33.175 63.2767 34.7218 63.4039C36.2936 63.5312 38.2971 63.5337 41.1238 63.5337H49.1075C51.9343 63.5337 53.9402 63.5337 55.5095 63.4039C57.0563 63.2792 58.0168 63.0372 58.7778 62.6505C60.3031 61.8731 61.5433 60.633 62.3206 59.1077C62.7073 58.3467 62.9468 57.3862 63.074 55.8393C63.2013 54.2675 63.2038 52.2616 63.2038 49.4374V39.832ZM41.0664 21.7438H49.1649C51.9093 21.7438 54.0499 21.7438 55.7639 21.8836C57.5054 22.0258 58.92 22.3202 60.1924 22.9664C62.3055 24.0428 64.0234 25.7608 65.0999 27.8738C65.7486 29.1463 66.0405 30.5609 66.1827 32.3023C66.3224 34.0163 66.3224 36.1545 66.3224 38.9014V49.4948C66.3224 52.2392 66.3224 54.3798 66.1827 56.0938C66.0405 57.8353 65.7461 59.2499 65.0999 60.5223C64.0234 62.6354 62.3055 64.3533 60.1924 65.4298C58.92 66.0785 57.5054 66.3704 55.7639 66.5126C54.0499 66.6523 51.9118 66.6523 49.1649 66.6523H41.0664C38.322 66.6523 36.1814 66.6523 34.4674 66.5126C32.7259 66.3704 31.3113 66.076 30.0389 65.4298C27.9258 64.3533 26.2079 62.6354 25.1314 60.5223C24.4827 59.2499 24.1908 57.8353 24.0486 56.0938C23.9089 54.3798 23.9089 52.2417 23.9089 49.4948V38.9014C23.9089 36.157 23.9089 34.0163 24.0486 32.3023C24.1908 30.5609 24.4852 29.1463 25.1314 27.8738C26.2079 25.7608 27.9258 24.0428 30.0389 22.9664C31.3113 22.3177 32.7259 22.0258 34.4674 21.8836C36.1839 21.7438 38.3195 21.7438 41.0664 21.7438ZM26.4038 39.2082V49.4374C26.4038 52.2517 26.4038 54.29 26.536 55.8892C26.6658 57.4785 26.9153 58.5264 27.3544 59.3896C28.1916 61.0333 29.5279 62.3695 31.1716 63.2068C32.0348 63.6459 33.0827 63.8954 34.6719 64.0252C36.2712 64.1574 38.3095 64.1574 41.1238 64.1574H49.1075C51.9218 64.1574 53.9601 64.1574 55.5594 64.0252C57.1486 63.8954 58.1965 63.6459 59.0597 63.2068C60.7034 62.3695 62.0397 61.0333 62.8769 59.3896C63.316 58.5264 63.5655 57.4785 63.6953 55.8917C63.8275 54.29 63.8275 52.2517 63.8275 49.4374V39.2082H26.4038ZM36.3835 30.476C36.3835 30.1452 36.5149 29.8279 36.7488 29.594C36.9828 29.36 37.3001 29.2286 37.6309 29.2286H52.6004C52.9312 29.2286 53.2485 29.36 53.4825 29.594C53.7164 29.8279 53.8479 30.1452 53.8479 30.476C53.8479 30.8069 53.7164 31.1242 53.4825 31.3581C53.2485 31.5921 52.9312 31.7235 52.6004 31.7235H37.6309C37.3001 31.7235 36.9828 31.5921 36.7488 31.3581C36.5149 31.1242 36.3835 30.8069 36.3835 30.476ZM35.136 44.1981C34.4743 44.1981 33.8397 44.4609 33.3718 44.9288C32.9039 45.3967 32.6411 46.0313 32.6411 46.693C32.6411 47.3547 32.9039 47.9893 33.3718 48.4572C33.8397 48.925 34.4743 49.1879 35.136 49.1879C35.7977 49.1879 36.4323 48.925 36.9002 48.4572C37.3681 47.9893 37.6309 47.3547 37.6309 46.693C37.6309 46.0313 37.3681 45.3967 36.9002 44.9288C36.4323 44.4609 35.7977 44.1981 35.136 44.1981ZM52.6004 46.693C52.6004 46.0313 52.8633 45.3967 53.3311 44.9288C53.799 44.4609 54.4336 44.1981 55.0953 44.1981C55.757 44.1981 56.3916 44.4609 56.8595 44.9288C57.3274 45.3967 57.5902 46.0313 57.5902 46.693C57.5902 47.3547 57.3274 47.9893 56.8595 48.4572C56.3916 48.925 55.757 49.1879 55.0953 49.1879C54.4336 49.1879 53.799 48.925 53.3311 48.4572C52.8633 47.9893 52.6004 47.3547 52.6004 46.693ZM42.6207 46.693C42.6207 46.0313 42.8836 45.3967 43.3515 44.9288C43.8194 44.4609 44.454 44.1981 45.1157 44.1981C45.7773 44.1981 46.4119 44.4609 46.8798 44.9288C47.3477 45.3967 47.6106 46.0313 47.6106 46.693C47.6106 47.3547 47.3477 47.9893 46.8798 48.4572C46.4119 48.925 45.7773 49.1879 45.1157 49.1879C44.454 49.1879 43.8194 48.925 43.3515 48.4572C42.8836 47.9893 42.6207 47.3547 42.6207 46.693ZM32.6411 56.6726C32.6411 56.0109 32.9039 55.3764 33.3718 54.9085C33.8397 54.4406 34.4743 54.1777 35.136 54.1777C35.7977 54.1777 36.4323 54.4406 36.9002 54.9085C37.3681 55.3764 37.6309 56.0109 37.6309 56.6726C37.6309 57.3343 37.3681 57.9689 36.9002 58.4368C36.4323 58.9047 35.7977 59.1676 35.136 59.1676C34.4743 59.1676 33.8397 58.9047 33.3718 58.4368C32.9039 57.9689 32.6411 57.3343 32.6411 56.6726ZM42.6207 56.6726C42.6207 56.0109 42.8836 55.3764 43.3515 54.9085C43.8194 54.4406 44.454 54.1777 45.1157 54.1777C45.7773 54.1777 46.4119 54.4406 46.8798 54.9085C47.3477 55.3764 47.6106 56.0109 47.6106 56.6726C47.6106 57.3343 47.3477 57.9689 46.8798 58.4368C46.4119 58.9047 45.7773 59.1676 45.1157 59.1676C44.454 59.1676 43.8194 58.9047 43.3515 58.4368C42.8836 57.9689 42.6207 57.3343 42.6207 56.6726Z" fill="white"/>
</svg>
