<svg width="30" height="30" viewBox="0 0 30 30" fill="none" xmlns="http://www.w3.org/2000/svg">
<path d="M12.0815 9.3661e-08C14.365 -0.000284167 16.6018 0.646484 18.5328 1.86536C20.4638 3.08424 22.0098 4.82532 22.9919 6.88687C23.9739 8.94842 24.3517 11.246 24.0814 13.5135C23.8111 15.7809 22.9039 17.9254 21.4648 19.6983L29.6315 27.865C29.8557 28.0878 29.9872 28.3872 29.9996 28.703C30.0119 29.0189 29.9041 29.3276 29.6979 29.5672C29.4917 29.8068 29.2025 29.9593 28.8883 29.9942C28.5742 30.029 28.2585 29.9436 28.0048 29.755L27.8648 29.6333L19.6965 21.4667C18.1946 22.6852 16.4222 23.5254 14.5282 23.9167C12.6342 24.3081 10.6739 24.239 8.81211 23.7154C6.95031 23.1919 5.2414 22.229 3.82897 20.9079C2.41655 19.5867 1.34189 17.9458 0.695298 16.1231C0.0487108 14.3004 -0.15091 12.349 0.113213 10.4332C0.377335 8.51725 1.09748 6.69275 2.21314 5.11296C3.32879 3.53317 4.80735 2.24426 6.52456 1.35454C8.24178 0.464823 10.1475 0.000296782 12.0815 9.3661e-08ZM12.0815 2.5C10.823 2.5 9.5768 2.74788 8.4141 3.22949C7.25139 3.71109 6.19494 4.417 5.30504 5.30689C4.41515 6.19679 3.70924 7.25325 3.22764 8.41595C2.74603 9.57865 2.49815 10.8248 2.49815 12.0833C2.49815 13.3418 2.74603 14.588 3.22764 15.7507C3.70924 16.9134 4.41515 17.9699 5.30504 18.8598C6.19494 19.7497 7.25139 20.4556 8.4141 20.9372C9.5768 21.4188 10.823 21.6667 12.0815 21.6667C14.6231 21.6667 17.0607 20.657 18.8579 18.8598C20.6551 17.0625 21.6648 14.625 21.6648 12.0833C21.6648 9.54167 20.6551 7.10412 18.8579 5.30689C17.0607 3.50967 14.6231 2.5 12.0815 2.5Z" fill="white"/>
</svg>
