<svg width="73" height="60" viewBox="0 0 73 60" fill="none" xmlns="http://www.w3.org/2000/svg">
<path fill-rule="evenodd" clip-rule="evenodd" d="M2.60817 14.0357C1.82831 14.4025 1.16894 14.9837 0.707097 15.7113C0.245251 16.4389 0 17.2829 0 18.1447C0 19.0065 0.245251 19.8505 0.707097 20.5781C1.16894 21.3058 1.82831 21.8869 2.60817 22.2537L9.10801 25.3218V43.1395C9.10801 46.5122 10.2034 50.2757 13.3988 52.5938C17.426 55.5029 24.7622 59.0482 36.3982 59.0482C48.0343 59.0482 55.3523 55.4801 59.3976 52.5938C62.593 50.2848 63.6884 46.5485 63.6884 43.1395V25.3218L68.2338 23.1719V43.1259C68.2338 43.7287 68.4732 44.3067 68.8994 44.7329C69.3256 45.1591 69.9037 45.3986 70.5065 45.3986C71.1092 45.3986 71.6873 45.1591 72.1135 44.7329C72.5397 44.3067 72.7791 43.7287 72.7791 43.1259V18.1265C72.7793 17.2657 72.5351 16.4226 72.0748 15.6952C71.6145 14.9677 70.9572 14.386 70.1792 14.0175L44.1798 1.74513C41.7499 0.596015 39.0953 0 36.4073 0C33.7193 0 31.0648 0.596015 28.6348 1.74513L2.63544 14.0175L2.60817 14.0357ZM13.6533 43.1259V27.4445L28.6075 34.5352C31.0375 35.6843 33.6921 36.2803 36.38 36.2803C39.068 36.2803 41.7226 35.6843 44.1526 34.5352L59.1067 27.4445V43.1259C59.1067 45.6531 58.2886 47.7167 56.6977 48.853C53.4069 51.2302 47.0161 54.4893 36.38 54.4893C25.744 54.4893 19.335 51.253 16.0624 48.853C14.4761 47.7076 13.6533 45.6304 13.6533 43.1259ZM30.562 5.85412C32.3806 4.99267 34.3678 4.54581 36.38 4.54581C38.3923 4.54581 40.3795 4.99267 42.1981 5.85412L68.1974 18.1265L42.1981 30.399C40.3795 31.2604 38.3923 31.7073 36.38 31.7073C34.3678 31.7073 32.3806 31.2604 30.562 30.399L4.56267 18.1265L30.562 5.85412Z" fill="white"/>
</svg>
