<svg width="652" height="168" viewBox="0 0 652 168" fill="none" xmlns="http://www.w3.org/2000/svg">
<path d="M177.838 38.6471C177.538 38.9464 177.039 38.9963 176.341 38.7968C175.742 38.4975 175.144 37.9986 174.545 37.3003C173.647 36.4024 173.198 35.5045 173.198 34.6066C173.198 34.3073 173.298 34.0579 173.498 33.8583C174.096 33.3595 174.495 32.5115 174.695 31.3143L174.845 29.9675C174.845 28.471 174.346 26.9246 173.348 25.3284C172.151 23.2333 169.856 21.1382 166.464 19.0431C159.082 14.8529 149.255 12.7578 136.983 12.7578C125.909 12.7578 114.087 14.3541 101.517 17.5466C88.9461 20.6394 78.1214 24.2808 69.0427 28.471C61.1612 32.1623 53.6289 36.9012 46.4457 42.6876C39.2626 48.3743 35.671 54.3104 35.671 60.4959C35.671 62.3914 36.12 64.3369 37.0179 66.3322C38.6141 69.824 41.7069 72.7172 46.2961 75.0118C50.8853 77.3064 57.2704 79.8505 65.4512 82.6439C66.1495 82.9432 67.4465 83.442 69.342 84.1404C71.3374 84.739 73.9313 85.6868 77.1238 86.9837C80.3163 88.2807 83.0599 89.5777 85.3545 90.8746C95.7301 96.661 100.918 104.243 100.918 113.621C100.918 121.503 97.4262 129.534 90.4425 137.715C83.5587 145.896 74.8292 152.68 64.254 158.067C53.6788 163.554 43.353 166.397 33.2766 166.597C27.989 166.896 22.8012 166.198 17.7131 164.502C12.6251 162.906 8.43491 160.412 5.14263 157.019C1.85035 153.627 0.204212 149.537 0.204212 144.748C0.204212 137.166 6.3897 128.437 18.7607 118.56C19.06 118.26 19.5089 118.26 20.1075 118.56C20.8059 118.859 21.4544 119.358 22.053 120.056C22.8511 120.854 23.2502 121.702 23.2502 122.6C23.2502 122.999 23.1504 123.249 22.9509 123.348C11.0787 132.826 5.14263 141.007 5.14263 147.891C5.14263 152.181 7.73654 155.074 12.9244 156.571C18.1122 158.067 23.3 158.715 28.4879 158.516C37.7661 158.316 47.6429 155.573 58.1184 150.285C68.6936 144.998 77.5727 138.563 84.7559 130.981C91.939 123.299 95.5306 116.165 95.5306 109.581C95.5306 103.595 92.3381 98.806 85.9531 95.2144C82.2617 93.2191 75.9765 90.6751 67.0973 87.5823C60.6125 85.3875 55.4247 83.442 51.5338 81.746C47.6429 80.05 43.9516 77.905 40.4598 75.3111C37.0677 72.6174 34.4738 69.375 32.678 65.5839C31.3811 62.8903 30.7326 60.1467 30.7326 57.3532C30.7326 50.2699 34.1745 43.6354 41.0584 37.4499C48.042 31.2644 55.724 26.1764 64.1043 22.1857C72.9835 17.9956 83.5587 14.5037 95.8299 11.7103C108.201 8.81709 120.023 7.37048 131.297 7.37048C145.663 7.37048 157.186 9.81475 165.866 14.7033C171.053 17.796 174.795 21.3377 177.089 25.3284C179.184 28.6206 180.032 31.8131 179.633 34.9059C179.334 36.7017 178.735 37.9488 177.838 38.6471ZM125.098 84.8887C125.397 84.5894 125.846 84.5894 126.445 84.8887C127.143 85.0882 127.792 85.4873 128.39 86.0858C129.288 87.0835 129.737 88.0313 129.737 88.9292C129.737 89.3282 129.687 89.5777 129.587 89.6774C125.497 94.3664 122.554 98.6065 120.758 102.398C118.962 106.189 118.064 109.132 118.064 111.227C118.064 111.925 118.164 112.374 118.364 112.574C118.962 113.073 120.509 112.574 123.003 111.077C125.497 109.581 128.29 107.286 131.383 104.193C134.476 101.001 137.269 97.3095 139.764 93.1193L140.213 92.5208C140.512 92.2215 140.961 92.1716 141.559 92.3711C142.258 92.5706 142.906 93.0196 143.505 93.7179C144.502 94.7156 145.001 95.6135 145.001 96.4116C145.001 96.7109 144.902 96.9603 144.702 97.1599C144.502 97.4592 144.153 97.8083 143.654 98.2074C142.457 99.7039 141.011 101.849 139.315 104.642C137.619 107.336 136.771 109.381 136.771 110.778C136.771 111.676 137.22 112.125 138.117 112.125C139.015 112.125 140.213 111.776 141.709 111.077C144.602 109.681 147.595 107.735 150.688 105.241C153.88 102.647 156.424 100.103 158.32 97.6088C158.42 97.5091 158.619 97.2596 158.919 96.8606C159.218 96.3617 159.517 96.1123 159.817 96.1123C160.116 96.1123 160.465 96.3119 160.864 96.7109C161.263 97.11 161.463 97.5091 161.463 97.9081C161.463 98.4069 161.213 98.9058 160.714 99.4046C157.921 102.996 155.277 106.089 152.783 108.683C150.289 111.277 147.695 113.222 145.001 114.519C143.205 115.317 141.46 115.716 139.764 115.716C137.868 115.716 136.222 115.218 134.825 114.22C133.428 113.122 132.58 111.526 132.281 109.431C129.288 112.025 126.395 114.02 123.601 115.417C120.908 116.714 118.513 117.362 116.418 117.362C112.727 117.362 110.881 115.367 110.881 111.377C110.881 108.783 111.779 105.49 113.575 101.5C114.872 98.7062 116.568 95.8629 118.663 92.9697C120.758 89.9767 122.903 87.283 125.098 84.8887ZM190.553 42.6876C190.753 42.2886 191.152 42.1888 191.75 42.3883C192.349 42.5879 192.997 42.9869 193.696 43.5855C194.194 44.0844 194.594 44.6331 194.893 45.2317C195.192 45.7305 195.342 46.1795 195.342 46.5785C195.342 46.8778 195.292 47.0773 195.192 47.1771L161.671 101.35C166.26 97.0601 170.251 93.7179 173.643 91.3236C177.135 88.8294 180.028 87.5823 182.322 87.5823C183.52 87.5823 184.617 87.9315 185.615 88.6299L185.764 88.7795C187.959 90.5753 189.057 92.8699 189.057 95.6634C189.156 97.0601 188.857 99.1053 188.159 101.799C186.862 106.089 184.767 110.179 181.873 114.07C179.08 117.861 176.137 120.106 173.044 120.804C171.747 121.203 170.35 121.403 168.854 121.403C163.866 121.403 160.523 118.61 158.827 113.023C155.535 116.315 152.692 119.308 150.297 122.002C147.803 124.695 146.407 126.192 146.107 126.491C145.908 126.79 145.509 126.84 144.91 126.641C144.312 126.441 143.713 126.042 143.114 125.444C142.017 124.546 141.468 123.548 141.468 122.451C141.468 122.151 141.518 121.952 141.618 121.852L190.553 42.6876ZM182.921 93.269C178.232 95.3641 171.498 100.652 162.718 109.132C162.718 110.628 163.018 112.125 163.616 113.621C164.315 115.118 165.661 115.866 167.657 115.866C170.65 115.866 173.693 113.97 176.785 110.179C179.878 106.288 182.023 102.148 183.22 97.7585C183.719 96.262 184.068 94.566 184.268 92.6704L182.921 93.269ZM185.166 92.3711L184.866 92.5208C185.066 92.5208 185.166 92.5208 185.166 92.5208V92.3711ZM199.657 90.8746C199.857 90.4755 200.256 90.3758 200.854 90.5753C201.453 90.6751 202.101 91.0243 202.8 91.6229C203.897 92.7203 204.446 93.7179 204.446 94.6158C204.446 94.9151 204.396 95.1147 204.296 95.2144C198.709 105.889 192.873 116.365 186.787 126.641C194.968 125.843 203.847 125.444 213.425 125.444C224.698 125.444 237.568 126.042 252.034 127.239C252.633 127.339 253.231 127.688 253.83 128.287C254.528 128.786 255.077 129.384 255.476 130.083C255.775 130.681 255.925 131.18 255.925 131.579C255.925 132.178 255.576 132.477 254.878 132.477C240.511 131.28 227.791 130.681 216.717 130.681C203.847 130.681 192.673 131.38 183.196 132.776C169.628 154.924 160.748 165.998 156.558 165.998C153.166 165.899 150.073 165.001 147.28 163.305C144.387 161.708 142.192 159.563 140.695 156.87C139.598 154.874 139.049 152.779 139.049 150.585C139.049 149.387 139.199 148.24 139.498 147.143C140.596 143.85 143.04 140.907 146.831 138.313C153.914 133.325 164.639 129.783 179.006 127.688C185.79 116.215 192.673 103.944 199.657 90.8746ZM153.416 160.761C157.007 160.761 164.24 151.882 175.115 134.123C164.539 136.218 156.508 139.261 151.021 143.252C147.529 145.646 145.285 148.29 144.287 151.183C143.988 152.081 143.838 152.979 143.838 153.877C143.838 154.974 144.087 156.022 144.586 157.019C145.285 158.117 146.432 158.965 148.028 159.563C149.525 160.262 151.32 160.661 153.416 160.761ZM208.037 81.746C207.838 82.1451 207.389 82.2449 206.691 82.0453C206.092 81.8458 205.493 81.4467 204.895 80.8481C203.797 79.9502 203.249 78.9526 203.249 77.8551C203.249 77.5559 203.299 77.3563 203.398 77.2566L208.935 67.679C209.135 67.28 209.534 67.1802 210.132 67.3797C210.731 67.4795 211.38 67.8287 212.078 68.4273C212.577 68.9261 212.976 69.4748 213.275 70.0734C213.574 70.5722 213.724 71.0212 213.724 71.4202C213.724 71.7195 213.674 71.9191 213.574 72.0188L208.037 81.746ZM224.703 96.8606C226.499 96.3617 228.744 95.5137 231.438 94.3165C234.331 92.8201 236.825 90.276 238.92 86.6844L239.668 85.0383C238.072 85.7367 236.127 86.9339 233.832 88.6299C229.941 91.5231 226.898 94.2667 224.703 96.8606ZM235.328 99.255C232.335 100.751 229.243 101.899 226.05 102.697C222.858 103.395 220.813 103.744 219.915 103.744C218.817 106.239 218.268 108.184 218.268 109.581C218.268 112.574 220.164 114.07 223.955 114.07C226.948 114.07 230.689 113.172 235.179 111.377C239.668 109.581 243.809 107.486 247.6 105.091C251.391 102.597 253.785 100.452 254.783 98.6564C255.282 97.7585 255.93 97.3095 256.728 97.3095C257.227 97.3095 257.676 97.5091 258.075 97.9081C258.773 98.6065 259.123 99.2051 259.123 99.7039C259.123 99.9034 259.023 100.203 258.823 100.602C257.626 102.797 255.082 105.391 251.191 108.384C247.4 111.377 243.21 113.97 238.621 116.165C234.032 118.36 229.941 119.458 226.35 119.458C224.055 119.458 222.259 119.059 220.962 118.26C218.767 117.063 217.021 115.367 215.724 113.172C214.328 110.977 213.629 108.633 213.629 106.139C213.629 103.944 214.228 101.699 215.425 99.4046C216.523 97.0102 218.019 94.7156 219.915 92.5208C223.007 89.0289 226.25 86.0858 229.642 83.6915C231.837 82.195 233.832 81.0477 235.628 80.2495C237.523 79.3516 238.87 79.0025 239.668 79.202C241.065 79.5013 242.262 80.2495 243.26 81.4467C244.756 83.1427 245.355 84.9385 245.056 86.8341C244.956 87.8318 244.457 89.2285 243.559 91.0243C242.661 92.7203 241.464 94.3165 239.968 95.813C238.571 97.2098 237.024 98.3571 235.328 99.255ZM275.616 101.35C275.416 101.749 275.017 101.899 274.418 101.799C273.82 101.699 273.221 101.35 272.623 100.751C272.024 100.253 271.575 99.7039 271.276 99.1053C270.976 98.5067 270.827 98.0079 270.827 97.6088V97.1599C271.126 96.661 271.575 95.6634 272.174 94.1669C272.872 92.6704 273.072 91.9222 272.772 91.9222C271.376 91.8224 269.33 92.6704 266.637 94.4662C263.943 96.262 261.449 98.4568 259.154 101.051C257.458 102.946 255.962 104.992 254.665 107.186C253.667 109.082 253.068 111.027 252.869 113.023C252.869 114.519 253.218 115.617 253.917 116.315C254.715 116.914 255.662 117.213 256.76 117.213C262.546 117.213 269.63 114.17 278.01 108.084C286.49 101.999 290.83 98.9058 291.029 98.806C291.329 98.7062 291.728 98.4069 292.227 97.9081C292.825 97.4093 293.324 97.1599 293.723 97.1599H294.022C294.92 98.0578 295.369 98.9557 295.369 99.8536C295.369 100.153 295.27 100.402 295.07 100.602C295.27 100.602 292.825 102.497 287.737 106.288C282.649 110.08 277.362 113.521 271.874 116.614C266.487 119.607 261.848 121.104 257.957 121.104C255.662 121.104 253.867 120.505 252.57 119.308C249.377 116.415 247.881 113.222 248.08 109.73C248.08 107.536 248.729 105.241 250.026 102.847C251.023 101.051 252.57 98.9058 254.665 96.4116C257.059 93.7179 259.703 91.4233 262.596 89.5278C265.489 87.6322 267.834 86.6844 269.63 86.6844C274.817 86.6844 277.411 89.0289 277.411 93.7179C277.411 96.1123 276.813 98.6564 275.616 101.35ZM334.431 30.7157C334.631 30.4164 335.03 30.3665 335.628 30.5661C336.327 30.7656 336.975 31.1647 337.574 31.7633C338.571 32.7609 339.07 33.7087 339.07 34.6066C339.07 34.9059 339.02 35.1054 338.921 35.2052L336.526 38.6471C328.046 50.619 321.611 60.3961 317.222 67.9783H327.398C327.896 67.9783 328.495 68.2277 329.193 68.7266C329.892 69.2254 330.441 69.824 330.84 70.5224C331.239 71.0212 331.438 71.6198 331.438 72.3181C331.438 72.9167 331.139 73.216 330.54 73.216H313.78C302.107 90.8746 295.273 101.599 293.278 105.391C291.282 109.182 290.285 111.925 290.285 113.621C290.285 114.02 290.384 114.519 290.584 115.118C290.883 115.617 291.382 115.866 292.081 115.866C294.076 115.866 297.418 114.37 302.107 111.377C306.796 108.384 311.535 105.091 316.324 101.5C321.212 97.8083 323.656 95.9128 323.656 95.813C324.554 95.1147 325.452 95.3142 326.35 96.4116C326.749 96.8107 326.949 97.2098 326.949 97.6088C326.949 98.1076 326.649 98.5566 326.051 98.9557C322.26 102.747 316.623 107.585 309.14 113.472C301.658 119.358 295.373 122.301 290.285 122.301C287.591 122.301 285.695 121.253 284.598 119.158C284.299 118.56 284.149 117.861 284.149 117.063C284.149 114.27 285.496 110.03 288.19 104.343C290.784 98.5566 294.924 91.4732 300.61 83.0929C300.71 79.4015 297.069 76.7577 289.686 75.1615C282.303 73.5652 273.275 72.9167 262.6 73.216C262.101 73.216 261.502 72.9666 260.804 72.4678C260.106 71.8692 259.557 71.2207 259.158 70.5224C258.759 70.0235 258.559 69.4748 258.559 68.8762C258.559 68.2776 258.858 67.9783 259.457 67.9783H310.038C314.727 59.6977 319.566 51.9659 324.554 44.7827C329.642 37.4998 332.935 32.8108 334.431 30.7157ZM306.746 73.216L288.04 72.4678C295.921 75.5605 300.66 78.2043 302.257 80.3992L306.746 73.216ZM445.954 69.4748C445.455 69.5746 444.856 69.375 444.158 68.8762C443.559 68.3774 443.01 67.7289 442.512 66.9308C442.113 66.4319 441.913 65.8832 441.913 65.2846C441.913 64.686 442.212 64.3867 442.811 64.3867C451.091 63.9877 459.821 61.8427 468.999 57.9518C478.178 53.9612 486.608 48.923 494.29 42.8373C501.673 37.1506 507.26 31.3642 511.051 25.478C514.144 20.789 515.69 16.7485 515.69 13.3564C515.69 12.6581 515.59 11.8101 515.391 10.8124C514.992 9.61521 514.343 8.66744 513.445 7.96908C512.946 7.47025 512.148 7.0213 511.051 6.62224C508.856 5.72434 506.063 5.2754 502.671 5.2754C497.982 5.2754 492.544 6.22317 486.359 8.11873C480.273 9.91451 473.888 12.5084 467.204 15.9005C454.932 22.1857 443.459 29.4188 432.784 37.5996C422.109 45.6806 411.435 56.9043 400.76 71.2706C392.978 81.746 387.191 91.6229 383.4 100.901C379.509 110.578 377.564 119.308 377.564 127.09C377.564 131.28 378.063 134.871 379.06 137.864C380.756 143.252 383.849 147.143 388.339 149.537C392.329 151.433 396.919 152.38 402.106 152.38C404.501 152.38 407.344 152.131 410.636 151.632C422.309 149.737 436.027 144.1 451.79 134.722C467.553 125.244 484.912 111.726 503.868 94.1669C504.167 93.9674 504.616 94.0172 505.215 94.3165C505.913 94.5161 506.561 94.9151 507.16 95.5137C508.058 96.4116 508.507 97.3095 508.507 98.2074C508.507 98.5067 508.407 98.7561 508.208 98.9557C489.152 116.614 471.643 130.182 455.681 139.66C439.818 149.138 425.95 154.874 414.078 156.87C410.786 157.369 407.893 157.618 405.399 157.618C399.413 157.618 394.025 156.421 389.237 154.026C381.854 150.235 376.866 144.249 374.272 136.069C373.174 132.277 372.626 128.337 372.626 124.246C372.626 115.766 374.621 106.588 378.612 96.7109C382.103 87.9315 387.99 77.905 396.27 66.6315C407.045 52.1654 417.82 40.842 428.594 32.6612C439.369 24.4804 450.892 17.2473 463.163 10.9621C470.047 7.47025 476.632 4.82645 482.917 3.03066C489.202 1.13511 494.839 0.187335 499.827 0.187335C503.818 0.187335 507.11 0.736046 509.704 1.83347C511.001 2.3323 512.497 3.18031 514.193 4.37751C517.186 6.77189 519.132 9.56533 520.03 12.7578C520.329 13.955 520.479 15.2021 520.479 16.4991C520.479 20.789 518.882 25.2785 515.69 29.9675C511.6 36.153 505.913 42.0392 498.63 47.6261C490.748 53.8115 482.119 58.9495 472.741 63.0399C463.363 67.0305 454.434 69.1755 445.954 69.4748ZM527.672 96.4116C527.672 97.0102 527.373 97.3095 526.775 97.3095H526.326C525.727 97.11 525.078 96.7608 524.38 96.262C523.782 95.6634 523.333 95.0149 523.033 94.3165C522.335 93.6182 521.287 93.269 519.891 93.269C518.294 93.269 516.499 93.7179 514.503 94.6158C512.608 95.414 511.111 96.262 510.014 97.1599C504.826 101.35 501.384 106.937 499.688 113.921C501.384 113.422 503.978 111.526 507.47 108.234C510.962 104.942 514.653 101.051 518.544 96.5613C518.843 96.262 519.292 96.2121 519.891 96.4116C520.489 96.6112 521.138 97.0601 521.836 97.7585C522.734 98.8559 523.183 99.7538 523.183 100.452C523.183 100.751 523.133 100.951 523.033 101.051C522.036 103.046 521.537 105.191 521.537 107.486C521.537 107.885 521.637 108.683 521.836 109.88C522.135 111.975 525.527 110.379 532.012 105.091C538.597 99.8037 541.989 97.11 542.188 97.0102C542.687 96.5114 543.236 96.262 543.834 96.262C544.333 96.262 544.782 96.4615 545.181 96.8606C545.78 97.5589 546.079 98.2074 546.079 98.806C546.079 99.3048 545.93 99.7039 545.63 100.003C539.644 105.291 535.305 109.082 532.611 111.377C529.917 113.571 527.672 115.168 525.877 116.165C523.782 117.263 521.786 117.811 519.891 117.811C517.995 117.811 516.499 117.163 515.401 115.866C514.304 114.569 513.805 112.723 513.905 110.329C508.019 116.016 503.729 118.859 501.035 118.859C500.736 118.859 500.287 118.759 499.688 118.56C498.89 118.26 497.892 117.512 496.695 116.315C495.199 114.419 494.6 112.324 494.899 110.03C494.999 108.334 495.548 106.438 496.545 104.343C497.543 102.148 498.89 100.003 500.586 97.9081C502.182 95.7133 503.928 93.8676 505.824 92.3711C507.32 91.1739 509.066 90.2261 511.061 89.5278C513.057 88.8294 515.052 88.4802 517.047 88.4802C519.541 88.4802 521.736 89.0289 523.632 90.1264C525.527 91.2238 526.775 92.9198 527.373 95.2144L527.672 96.4116ZM546.49 85.4872C546.689 85.0882 547.088 84.9884 547.687 85.188C548.285 85.3875 548.884 85.7865 549.483 86.3851C550.68 87.3828 551.278 88.3805 551.278 89.3781C551.278 89.6774 551.229 89.877 551.129 89.9767L548.435 94.6158C553.822 89.3282 557.813 86.2355 560.407 85.3376C561.504 84.9385 562.502 84.739 563.4 84.739C566.094 84.739 567.44 86.5847 567.44 90.276C567.44 93.4685 566.692 97.2098 565.196 101.5L566.692 100.751C568.289 100.053 569.486 99.7039 570.284 99.7039C572.778 99.5044 574.674 100.801 575.97 103.595C576.27 104.293 576.419 105.191 576.419 106.288C576.419 107.585 576.12 109.232 575.522 111.227L584.65 103.894L591.684 98.2074C592.582 97.3095 593.28 96.8606 593.779 96.8606C594.178 96.8606 594.527 97.0102 594.826 97.3095C595.525 97.9081 595.874 98.5067 595.874 99.1053C595.874 99.4046 595.724 99.7039 595.425 100.003C590.935 104.493 586.346 108.832 581.657 113.023C577.068 117.113 573.426 119.158 570.733 119.158C569.236 119.158 568.488 118.111 568.488 116.016C568.488 114.22 569.236 111.227 570.733 107.037L571.182 105.391L570.583 105.69C568.588 106.688 566.493 108.084 564.298 109.88C562.103 111.676 560.756 113.023 560.257 113.921V114.07C560.058 114.469 559.659 114.619 559.06 114.519C558.462 114.419 557.813 114.07 557.115 113.472C555.918 112.274 555.319 111.227 555.319 110.329L555.469 109.88L557.414 105.54C558.91 102.348 560.407 99.0055 561.903 95.5137C563.5 92.0219 564.248 90.3259 564.148 90.4257C561.754 91.2238 558.362 93.8177 553.972 98.2074C549.582 102.497 545.492 106.837 541.701 111.227C537.91 115.517 535.465 118.36 534.368 119.757C534.169 120.056 533.769 120.106 533.171 119.907C532.572 119.707 531.974 119.358 531.375 118.859C530.876 118.36 530.477 117.861 530.178 117.362C529.879 116.764 529.729 116.265 529.729 115.866C529.729 115.567 529.779 115.367 529.879 115.267L546.49 85.4872ZM573.706 147.143C574.803 145.347 576.3 142.803 578.195 139.511C579.991 136.218 581.537 133.375 582.834 130.981C583.234 130.182 583.782 129.285 584.481 128.287C585.079 127.189 585.728 125.942 586.426 124.546C592.412 113.172 597.799 103.844 602.588 96.5613C607.477 89.1786 611.667 85.2378 615.159 84.739L616.655 84.5894C619.449 84.5894 621.544 85.587 622.94 87.5823C624.337 89.4779 625.035 91.8723 625.035 94.7655C625.035 97.4592 624.437 100.103 623.24 102.697C621.743 106.688 619.498 110.379 616.505 113.771C613.512 117.163 611.018 118.859 609.023 118.859C606.928 118.859 605.032 118.31 603.336 117.213C601.74 116.115 600.393 114.769 599.296 113.172C595.106 120.056 588.072 132.527 578.195 150.585L576.998 152.68C575.701 157.069 574.255 159.264 572.658 159.264C571.561 159.264 570.713 158.267 570.114 156.271C569.416 154.276 569.067 151.882 569.067 149.088C569.067 147.392 569.216 145.696 569.516 144C569.915 141.705 572.658 135.42 577.746 125.144C582.735 114.769 587.823 104.543 593.011 94.4662C598.298 84.2901 601.94 77.4062 603.935 73.8146C604.134 73.4156 604.783 73.4156 605.88 73.8146C606.978 74.1139 607.975 74.6128 608.873 75.3111C609.871 76.0095 610.27 76.5083 610.071 76.8076L573.706 147.143ZM618.601 89.9767C615.109 90.3758 609.322 97.0102 601.241 109.88C602.538 112.374 604.134 113.621 606.03 113.621C607.427 113.621 609.223 112.025 611.417 108.832C613.712 105.54 615.608 101.949 617.104 98.0578C618.201 95.3641 618.85 93.3688 619.05 92.0718C619.249 90.3758 619.149 89.2784 618.75 88.7795C618.65 88.58 618.65 88.7296 618.75 89.2285C618.85 89.6275 618.8 89.877 618.601 89.9767ZM632.9 102.847C632.302 103.445 631.603 103.744 630.805 103.744C630.207 103.744 629.708 103.545 629.309 103.146C628.61 102.348 628.86 101.4 630.057 100.302C631.154 99.2051 631.753 98.6065 631.853 98.5067L643.076 84.8887C644.274 83.5917 645.421 82.4943 646.518 81.5964C646.818 81.2971 647.266 81.2971 647.865 81.5964C648.563 81.7959 649.162 82.2449 649.661 82.9432C650.659 83.9409 651.157 84.8388 651.157 85.6369C651.157 85.9362 651.058 86.1856 650.858 86.3851L647.266 89.8271C645.67 91.6229 644.274 93.7179 643.076 96.1123C641.879 98.5067 641.281 101.001 641.281 103.595C641.281 104.991 641.38 106.039 641.58 106.737C641.879 108.334 642.029 109.78 642.029 111.077C642.029 113.272 641.63 115.267 640.832 117.063C640.233 118.161 639.285 119.258 637.988 120.355C636.891 121.154 635.744 121.702 634.546 122.002C634.147 122.101 633.499 122.151 632.601 122.151C631.204 122.151 629.907 121.852 628.71 121.253C625.318 119.458 623.622 116.914 623.622 113.621C623.622 112.125 623.821 110.928 624.221 110.03C624.62 109.032 624.819 108.483 624.819 108.384C625.019 107.984 625.418 107.885 626.016 108.084C626.615 108.184 627.263 108.533 627.962 109.132C629.159 110.329 629.758 111.377 629.758 112.274L629.608 112.723C629.508 112.923 629.159 113.621 628.56 114.818C627.962 116.016 627.712 116.664 627.812 116.764C628.012 116.864 628.411 116.914 629.009 116.914C629.807 116.914 630.406 116.864 630.805 116.764C631.903 116.564 632.9 116.115 633.798 115.417C634.796 114.719 635.544 113.821 636.043 112.723C636.741 111.426 637.09 109.78 637.09 107.785C637.09 106.388 636.991 105.291 636.791 104.493C636.791 104.094 636.741 103.744 636.641 103.445C636.542 103.046 636.492 102.697 636.492 102.398C636.492 101.001 637.34 98.806 639.036 95.813L632.9 102.847Z" fill="white"/>
</svg>
