<svg width="76" height="62" viewBox="0 0 76 62" fill="none" xmlns="http://www.w3.org/2000/svg">
<path fill-rule="evenodd" clip-rule="evenodd" d="M2.73793 15.2541C1.93242 15.633 1.25135 16.2333 0.774308 16.9848C0.297265 17.7364 0.0439453 18.6082 0.0439453 19.4983C0.0439453 20.3885 0.297265 21.2603 0.774308 22.0118C1.25135 22.7634 1.93242 23.3636 2.73793 23.7425L9.45163 26.9116V45.3155C9.45163 48.7992 10.5831 52.6865 13.8836 55.0809C18.0433 58.0857 25.6208 61.7477 37.6398 61.7477C49.6587 61.7477 57.2175 58.0622 61.3959 55.0809C64.6965 52.6959 65.8279 48.8367 65.8279 45.3155V26.9116L70.5228 24.6909V45.3015C70.5228 45.924 70.7701 46.5211 71.2104 46.9614C71.6506 47.4016 72.2477 47.6489 72.8703 47.6489C73.4928 47.6489 74.0899 47.4016 74.5302 46.9614C74.9704 46.5211 75.2177 45.924 75.2177 45.3015V19.4795C75.2179 18.5904 74.9656 17.7195 74.4902 16.9682C74.0148 16.2168 73.3358 15.6159 72.5322 15.2354L45.6774 2.55914C43.1675 1.37222 40.4256 0.756592 37.6492 0.756592C34.8727 0.756592 32.1308 1.37222 29.6209 2.55914L2.7661 15.2354L2.73793 15.2541ZM14.1465 45.3015V29.1041L29.5927 36.4281C32.1027 37.615 34.8446 38.2307 37.621 38.2307C40.3974 38.2307 43.1393 37.615 45.6493 36.4281L61.0955 29.1041V45.3015C61.0955 47.9118 60.2504 50.0433 58.6072 51.217C55.2081 53.6725 48.6071 57.0387 37.621 57.0387C26.6349 57.0387 20.0151 53.6959 16.6348 51.217C14.9963 50.0339 14.1465 47.8883 14.1465 45.3015ZM31.6115 6.80333C33.4899 5.91354 35.5425 5.45198 37.621 5.45198C39.6995 5.45198 41.7521 5.91354 43.6305 6.80333L70.4853 19.4795L43.6305 32.1558C41.7521 33.0455 39.6995 33.5071 37.621 33.5071C35.5425 33.5071 33.4899 33.0455 31.6115 32.1558L4.75674 19.4795L31.6115 6.80333Z" fill="#00712D"/>
</svg>
