<svg width="61" height="62" viewBox="0 0 61 62" fill="none" xmlns="http://www.w3.org/2000/svg">
<path d="M15.2517 0.853799C18.744 3.3989 21.4632 6.87284 23.7853 10.1971L25.1358 12.1647L26.4099 14.0437C27.0472 14.9748 27.3196 16.1078 27.1754 17.2268C27.0312 18.3458 26.4803 19.3727 25.6277 20.1117L19.6667 24.5389C19.3787 24.7468 19.176 25.0523 19.0962 25.3984C19.0164 25.7446 19.065 26.1079 19.2328 26.421C20.5833 28.8744 22.9848 32.5286 25.7346 35.2784C28.4844 38.0282 32.3128 40.5886 34.9373 42.0918C35.2664 42.2766 35.6537 42.3282 36.0197 42.2361C36.3857 42.1441 36.7025 41.9153 36.905 41.5969L40.7853 35.6909C41.4987 34.7433 42.551 34.1084 43.722 33.9193C44.893 33.7303 46.0917 34.0016 47.0671 34.6765L49.0928 36.0789C52.8784 38.7065 56.945 41.6916 60.0554 45.6727C60.5486 46.3076 60.8624 47.0633 60.964 47.8608C61.0656 48.6584 60.9512 49.4686 60.6328 50.2069C58.0755 56.174 51.6043 61.255 44.8733 61.0075L43.9567 60.9556L43.2448 60.8945L42.4566 60.8028L41.598 60.6867L40.6661 60.5339L40.1773 60.4423L39.1507 60.2223L38.6129 60.1001L37.4947 59.8129L36.3184 59.4768L35.0901 59.0796C29.4499 57.1669 22.2913 53.4089 14.9462 46.0638C7.60113 38.7187 3.84611 31.5631 1.93346 25.9229L1.53626 24.6947L1.20017 23.5184L0.912973 22.4001L0.674655 21.343C0.605902 21.0119 0.541734 20.6798 0.482168 20.3469L0.329401 19.415L0.207187 18.5565L0.118582 17.7682L0.0574745 17.0563L0.00858914 16.1397C-0.238894 9.43016 4.89715 2.9131 10.8367 0.367999C11.5516 0.0593074 12.3345 -0.0582209 13.1085 0.026947C13.8825 0.112115 14.6211 0.397052 15.2517 0.853799ZM40.107 11.8378L40.4614 11.8775C42.6854 12.2698 44.7281 13.3561 46.2968 14.9808C47.8655 16.6054 48.8795 18.6849 49.1936 20.9213C49.3056 21.6949 49.1169 22.4819 48.6662 23.1206C48.2156 23.7592 47.5374 24.2009 46.771 24.3547C46.0047 24.5085 45.2086 24.3628 44.5464 23.9475C43.8842 23.5322 43.4064 22.8789 43.2112 22.1221L43.141 21.7707C43.018 20.8941 42.6439 20.0719 42.0637 19.4034C41.4836 18.7349 40.7223 18.2486 39.8717 18.0035L39.3982 17.8965C38.6309 17.7606 37.9447 17.3366 37.4797 16.7114C37.0147 16.0862 36.8062 15.3069 36.8967 14.533C36.9873 13.7592 37.37 13.0491 37.9668 12.5481C38.5635 12.0471 39.3291 11.793 40.107 11.8378ZM40.1314 2.54952C44.9934 2.54952 49.6562 4.48093 53.0942 7.91886C56.5321 11.3568 58.4635 16.0196 58.4635 20.8816C58.4627 21.6604 58.1645 22.4094 57.6299 22.9757C57.0953 23.5419 56.3646 23.8827 55.5872 23.9283C54.8098 23.974 54.0443 23.721 53.4472 23.2212C52.85 22.7214 52.4662 22.0124 52.3742 21.2391L52.3528 20.8816C52.3525 17.7791 51.1722 14.7928 49.0514 12.5284C46.9305 10.264 44.0278 8.89093 40.9319 8.68771L40.1314 8.66022C39.3211 8.66022 38.544 8.33831 37.971 7.76532C37.398 7.19234 37.0761 6.4152 37.0761 5.60487C37.0761 4.79454 37.398 4.0174 37.971 3.44441C38.544 2.87142 39.3211 2.54952 40.1314 2.54952Z" fill="#00712D"/>
</svg>
