<svg width="634" height="162" viewBox="0 0 634 162" fill="none" xmlns="http://www.w3.org/2000/svg">
<path d="M4.84855 30.1569C4.34971 30.2567 3.75111 30.107 3.05274 29.7079C2.35438 29.2091 1.80566 28.6105 1.4066 27.9122C0.907762 27.3135 0.658344 26.6651 0.658344 25.9667C0.658344 25.3681 0.857878 25.0189 1.25695 24.9191C15.2243 22.3252 31.3366 20.3299 49.5939 18.9332C67.8512 17.5364 88.6525 16.4889 111.998 15.7905C113.993 12.7975 114.991 11.301 114.991 11.301C116.787 8.40777 117.685 6.96115 117.685 6.96115C117.884 6.56208 118.283 6.46231 118.882 6.66185C119.48 6.86138 120.129 7.26045 120.827 7.85905C121.925 9.15601 122.473 10.1537 122.473 10.852C122.473 11.1514 122.424 11.3509 122.324 11.4507L119.63 15.4912L153.9 14.743C188.319 14.0446 215.805 13.1467 236.357 12.0493C236.856 11.9495 237.405 12.149 238.003 12.6479C238.702 13.1467 239.3 13.7952 239.799 14.5933C240.198 15.0921 240.398 15.6408 240.398 16.2395C240.398 16.7383 240.198 17.0376 239.799 17.1373L227.528 22.5248C227.029 22.7243 226.43 22.6744 225.732 22.3751C225.133 21.976 224.585 21.4273 224.086 20.7289C223.387 19.6315 223.038 18.8833 223.038 18.4842L223.188 18.0352C214.907 18.4343 205.479 18.7835 194.904 19.0828C184.329 19.2823 176.996 19.432 172.905 19.5317L157.043 19.9807L116.188 20.8786C64.4092 101.59 38.8191 142.345 39.4177 143.143C39.6172 143.342 42.0116 140.848 46.6009 135.66C46.9002 135.361 47.3491 135.311 47.9477 135.511C48.6461 135.71 49.2946 136.159 49.8932 136.857C50.8909 137.855 51.3897 138.753 51.3897 139.551C51.3897 139.85 51.2899 140.1 51.0904 140.299C49.3944 142.095 47.5986 143.592 45.703 144.789C43.9072 145.986 42.2112 146.585 40.6149 146.585C39.1184 146.585 37.8214 145.986 36.724 144.789C34.3296 141.796 58.2736 100.592 108.556 21.1779C86.8069 21.8763 67.3524 22.9238 50.1925 24.3205C33.0326 25.6175 17.918 27.563 4.84855 30.1569ZM118.645 92.4113C118.645 93.0099 118.345 93.3092 117.747 93.3092H117.298C116.699 93.1097 116.051 92.7605 115.352 92.2617C114.754 91.663 114.305 91.0146 114.005 90.3162C113.307 89.6178 112.259 89.2686 110.863 89.2686C109.266 89.2686 107.471 89.7176 105.475 90.6155C103.58 91.4136 102.083 92.2616 100.986 93.1595C95.7979 97.3497 92.356 102.937 90.66 109.92C92.356 109.422 94.9499 107.526 98.4418 104.234C101.934 100.941 105.625 97.0505 109.516 92.561C109.815 92.2616 110.264 92.2118 110.863 92.4113C111.461 92.6108 112.11 93.0598 112.808 93.7581C113.706 94.8556 114.155 95.7535 114.155 96.4519C114.155 96.7511 114.105 96.9507 114.005 97.0505C113.008 99.0458 112.509 101.191 112.509 103.485C112.509 103.884 112.609 104.683 112.808 105.88C113.107 107.975 116.5 106.379 122.984 101.091C129.569 95.8034 132.961 93.1097 133.161 93.0099C133.659 92.5111 134.208 92.2617 134.807 92.2617C135.306 92.2617 135.754 92.4612 136.154 92.8602C136.752 93.5586 137.051 94.2071 137.051 94.8057C137.051 95.3045 136.902 95.7036 136.603 96.0029C130.617 101.291 126.277 105.082 123.583 107.376C120.889 109.571 118.645 111.167 116.849 112.165C114.754 113.263 112.758 113.811 110.863 113.811C108.967 113.811 107.471 113.163 106.373 111.866C105.276 110.569 104.777 108.723 104.877 106.329C98.9905 112.015 94.7005 114.859 92.0068 114.859C91.7075 114.859 91.2586 114.759 90.66 114.56C89.8618 114.26 88.8642 113.512 87.667 112.315C86.1705 110.419 85.5719 108.324 85.8712 106.029C85.9709 104.333 86.5196 102.438 87.5173 100.343C88.515 98.1479 89.8618 96.0029 91.5579 93.9078C93.1541 91.7129 94.9 89.8672 96.7956 88.3707C98.2921 87.1735 100.038 86.2258 102.033 85.5274C104.029 84.829 106.024 84.4798 108.019 84.4798C110.514 84.4798 112.708 85.0286 114.604 86.126C116.5 87.2234 117.747 88.9195 118.345 91.2141L118.645 92.4113ZM137.462 81.4868C137.661 81.0878 138.06 80.988 138.659 81.1876C139.258 81.3871 139.856 81.7861 140.455 82.3847C141.652 83.3824 142.251 84.3801 142.251 85.3778C142.251 85.677 142.201 85.8766 142.101 85.9763L139.407 90.6155C144.795 85.3279 148.785 82.2351 151.379 81.3372C152.477 80.9381 153.474 80.7386 154.372 80.7386C157.066 80.7386 158.413 82.5843 158.413 86.2756C158.413 89.4682 157.665 93.2094 156.168 97.4994L157.665 96.7512C159.261 96.0528 160.458 95.7036 161.256 95.7036C163.75 95.5041 165.646 96.801 166.943 99.5945C167.242 100.293 167.392 101.191 167.392 102.288C167.392 103.585 167.093 105.231 166.494 107.227L175.623 99.8938L182.656 94.2071C183.554 93.3092 184.252 92.8602 184.751 92.8602C185.15 92.8602 185.499 93.0099 185.799 93.3092C186.497 93.9078 186.846 94.5064 186.846 95.105C186.846 95.4043 186.697 95.7036 186.397 96.0029C181.908 100.492 177.319 104.832 172.63 109.022C168.04 113.113 164.399 115.158 161.705 115.158C160.209 115.158 159.46 114.111 159.46 112.015C159.46 110.22 160.209 107.227 161.705 103.036L162.154 101.39L161.555 101.69C159.56 102.687 157.465 104.084 155.27 105.88C153.075 107.676 151.728 109.022 151.23 109.92V110.07C151.03 110.469 150.631 110.619 150.032 110.519C149.434 110.419 148.785 110.07 148.087 109.471C146.89 108.274 146.291 107.227 146.291 106.329L146.441 105.88L148.386 101.54C149.883 98.3474 151.379 95.0052 152.876 91.5134C154.472 88.0216 155.22 86.3255 155.121 86.4253C152.726 87.2234 149.334 89.8174 144.944 94.2071C140.555 98.4971 136.464 102.837 132.673 107.227C128.882 111.517 126.438 114.36 125.34 115.757C125.141 116.056 124.742 116.106 124.143 115.906C123.544 115.707 122.946 115.358 122.347 114.859C121.848 114.36 121.449 113.861 121.15 113.362C120.851 112.764 120.701 112.265 120.701 111.866C120.701 111.566 120.751 111.367 120.851 111.267L137.462 81.4868ZM208.376 92.4113C208.376 93.0099 208.077 93.3092 207.478 93.3092H207.029C206.431 93.1097 205.782 92.7605 205.084 92.2617C204.485 91.663 204.036 91.0146 203.737 90.3162C203.039 89.6178 201.991 89.2686 200.594 89.2686C198.998 89.2686 197.202 89.7176 195.207 90.6155C193.311 91.4136 191.815 92.2616 190.717 93.1595C185.529 97.3497 182.088 102.937 180.391 109.92C182.088 109.422 184.681 107.526 188.173 104.234C191.665 100.941 195.356 97.0505 199.247 92.561C199.547 92.2616 199.996 92.2118 200.594 92.4113C201.193 92.6108 201.841 93.0598 202.54 93.7581C203.438 94.8556 203.887 95.7535 203.887 96.4519C203.887 96.7511 203.837 96.9507 203.737 97.0505C202.739 99.0458 202.24 101.191 202.24 103.485C202.24 103.884 202.34 104.683 202.54 105.88C202.839 107.975 206.231 106.379 212.716 101.091C219.3 95.8034 222.693 93.1097 222.892 93.0099C223.391 92.5111 223.94 92.2617 224.538 92.2617C225.037 92.2617 225.486 92.4612 225.885 92.8602C226.484 93.5586 226.783 94.2071 226.783 94.8057C226.783 95.3045 226.633 95.7036 226.334 96.0029C220.348 101.291 216.008 105.082 213.314 107.376C210.621 109.571 208.376 111.167 206.58 112.165C204.485 113.263 202.49 113.811 200.594 113.811C198.699 113.811 197.202 113.163 196.105 111.866C195.007 110.569 194.508 108.723 194.608 106.329C188.722 112.015 184.432 114.859 181.738 114.859C181.439 114.859 180.99 114.759 180.391 114.56C179.593 114.26 178.596 113.512 177.398 112.315C175.902 110.419 175.303 108.324 175.603 106.029C175.702 104.333 176.251 102.438 177.249 100.343C178.247 98.1479 179.593 96.0029 181.289 93.9078C182.886 91.7129 184.632 89.8672 186.527 88.3707C188.024 87.1735 189.77 86.2258 191.765 85.5274C193.76 84.829 195.756 84.4798 197.751 84.4798C200.245 84.4798 202.44 85.0286 204.335 86.126C206.231 87.2234 207.478 88.9195 208.077 91.2141L208.376 92.4113ZM226.744 85.3778C226.944 84.9787 227.343 84.8789 227.942 85.0785C228.64 85.1782 229.288 85.5274 229.887 86.126C230.984 87.0239 231.533 88.0216 231.533 89.119C231.533 89.4183 231.483 89.6178 231.384 89.7176L227.642 96.4519C238.417 87.4729 245.151 83.3325 247.845 84.0309H248.144C251.237 85.0286 252.784 86.7745 252.784 89.2686C252.784 90.1665 252.634 91.0645 252.335 91.9624C252.135 92.7605 251.736 93.808 251.137 95.105C250.539 96.402 250.09 97.2999 249.791 97.7987L245.6 106.029C245.999 106.329 246.598 106.478 247.396 106.478C250.888 106.478 254.928 104.583 259.518 100.792C264.207 97.0006 266.601 95.0551 266.701 94.9553C266.9 94.656 267.2 94.3069 267.599 93.9078C268.098 93.5087 268.597 93.3092 269.095 93.3092C269.395 93.3092 269.694 93.4589 269.993 93.7581C270.492 94.257 270.742 94.6062 270.742 94.8057C270.742 95.0052 270.592 95.2048 270.293 95.4043C270.093 95.6038 269.943 95.8034 269.844 96.0029C266.152 100.193 262.361 103.785 258.47 106.778C254.679 109.671 251.437 111.118 248.743 111.118C247.646 111.118 246.648 110.818 245.75 110.22C243.156 108.524 241.859 106.279 241.859 103.485C241.859 101.191 242.956 97.8486 245.151 93.4588C245.949 91.8626 246.498 90.6654 246.798 89.8673C243.206 91.7628 238.068 95.6537 231.384 101.54C224.699 107.426 220.16 111.566 217.765 113.961C217.566 114.26 217.167 114.31 216.568 114.111C215.97 113.911 215.371 113.562 214.772 113.063C213.675 111.766 213.126 110.768 213.126 110.07C213.126 109.771 213.176 109.571 213.276 109.471L226.744 85.3778ZM279.571 28.81C279.371 29.1094 278.972 29.1592 278.374 28.9597C277.675 28.7602 277.027 28.3611 276.428 27.7625C275.331 26.8646 274.782 25.8669 274.782 24.7695C274.782 24.4702 274.832 24.2707 274.932 24.1709L276.279 22.5248C278.972 19.1327 282.863 15.6907 287.951 12.1989C292.94 8.6073 298.327 5.76395 304.113 3.66884C310.399 1.47398 316.235 0.376551 321.623 0.376551C330.003 0.376551 337.635 2.82083 344.519 7.7094L347.213 9.65485C353.199 14.5434 356.192 22.2255 356.192 32.701C356.192 46.6683 350.854 65.5741 340.179 89.4183C357.239 67.3699 374.649 47.9154 392.407 31.0548C410.165 14.0945 424.681 5.6143 435.955 5.6143C438.649 5.6143 441.093 6.2129 443.288 7.4101C447.378 9.70473 449.424 14.0446 449.424 20.4297C449.424 29.4086 445.034 43.6753 436.254 63.2296L431.915 72.8071C425.929 85.8766 421.389 96.6015 418.296 104.982C415.204 113.263 413.657 120.446 413.657 126.532C413.657 133.016 415.852 137.556 420.242 140.15C420.94 140.549 421.539 141.147 422.038 141.945C422.636 142.744 422.936 143.442 422.936 144.041C422.936 144.639 422.636 144.938 422.038 144.938C421.738 144.938 421.339 144.789 420.84 144.489C412.959 139.9 409.018 132.218 409.018 121.443C409.018 113.462 410.764 104.483 414.256 94.5064C417.847 84.5297 422.936 72.1587 429.52 57.3932L430.717 54.5498C435.706 43.376 439.347 34.796 441.642 28.81C444.036 22.7243 445.233 18.1849 445.233 15.1919C445.233 13.3961 444.784 12.2987 443.887 11.8996C442.191 10.9019 440.195 10.4031 437.901 10.4031C427.824 10.4031 414.306 18.8334 397.345 35.694C380.385 52.5545 364.971 69.864 351.104 87.6225C337.336 105.281 327.509 118.301 321.623 126.681C321.423 127.08 321.024 127.23 320.425 127.13C319.827 126.931 319.178 126.531 318.48 125.933C317.382 125.035 316.834 124.037 316.834 122.94C316.834 122.641 316.884 122.441 316.983 122.341C317.981 120.246 321.473 113.462 327.459 101.989C333.545 90.5157 339.181 77.9451 344.369 64.2771C349.557 50.5093 352.151 38.8366 352.151 29.259C352.151 21.6767 350.206 16.2893 346.315 13.0968L344.22 11.6003C338.533 7.60963 332.048 5.6143 324.765 5.6143C319.278 5.6143 313.641 6.66185 307.855 8.75695C302.268 10.7523 297.08 13.4959 292.291 16.9877C287.403 20.4795 283.562 23.8716 280.768 27.1639C279.97 28.1616 279.571 28.7103 279.571 28.81ZM445.109 92.8602C446.905 92.3614 449.15 91.5134 451.844 90.3162C454.737 88.8197 457.231 86.2757 459.326 82.684L460.074 81.0379C458.478 81.7363 456.533 82.9335 454.238 84.6295C450.347 87.5227 447.304 90.2663 445.109 92.8602ZM455.735 95.2546C452.742 96.7511 449.649 97.8985 446.456 98.6966C443.264 99.395 441.219 99.7441 440.321 99.7441C439.223 102.238 438.675 104.184 438.675 105.581C438.675 108.574 440.57 110.07 444.361 110.07C447.354 110.07 451.095 109.172 455.585 107.376C460.074 105.58 464.215 103.485 468.006 101.091C471.797 98.5968 474.191 96.4518 475.189 94.6561C475.688 93.7582 476.336 93.3092 477.135 93.3092C477.633 93.3092 478.082 93.5087 478.481 93.9078C479.18 94.6062 479.529 95.2048 479.529 95.7036C479.529 95.9031 479.429 96.2024 479.23 96.6015C478.032 98.7964 475.488 101.39 471.598 104.383C467.806 107.376 463.616 109.97 459.027 112.165C454.438 114.36 450.347 115.457 446.756 115.457C444.461 115.457 442.665 115.058 441.368 114.26C439.173 113.063 437.427 111.367 436.13 109.172C434.734 106.977 434.035 104.633 434.035 102.139C434.035 99.9437 434.634 97.6989 435.831 95.4043C436.929 93.0099 438.425 90.7153 440.321 88.5204C443.413 85.0286 446.656 82.0855 450.048 79.691C452.243 78.1945 454.238 77.0472 456.034 76.2491C457.929 75.3512 459.276 75.002 460.074 75.2015C461.471 75.5009 462.668 76.2491 463.666 77.4463C465.163 79.1423 465.761 80.9381 465.462 82.8337C465.362 83.8314 464.863 85.2281 463.965 87.0239C463.067 88.7199 461.87 90.3162 460.374 91.8127C458.977 93.2094 457.431 94.3567 455.735 95.2546ZM554.086 123.239C554.685 123.339 555.283 123.688 555.882 124.287C556.58 124.786 557.129 125.384 557.528 126.083C557.827 126.681 557.977 127.18 557.977 127.579C557.977 128.178 557.628 128.477 556.93 128.477C542.463 127.28 529.643 126.681 518.47 126.681C505.6 126.681 494.426 127.38 484.948 128.776C479.261 138.354 474.073 146.285 469.384 152.571C464.596 158.856 461.004 161.999 458.61 161.999C455.217 161.899 452.125 161.001 449.331 159.305C446.438 157.709 444.243 155.564 442.747 152.87C441.649 150.875 441.1 148.779 441.1 146.585C441.1 145.387 441.25 144.24 441.549 143.143C442.647 139.85 445.091 136.907 448.882 134.313C455.766 129.425 466.391 125.883 480.758 123.688C481.755 122.092 484.748 116.804 489.737 107.825C491.233 105.132 492.031 103.685 492.131 103.485C489.837 105.88 486.744 108.025 482.853 109.92C479.062 111.716 476.318 112.415 474.622 112.015C472.527 111.616 471.03 110.968 470.133 110.07C469.235 109.072 468.786 107.775 468.786 106.179C468.786 105.68 468.886 104.832 469.085 103.635C469.584 101.141 470.831 98.5968 472.826 96.0029C474.722 93.3092 477.016 91.1143 479.71 89.4183C482.504 87.7223 485.247 86.8742 487.941 86.8742C491.433 86.8742 494.426 88.4206 496.92 91.5134C499.015 89.0192 500.861 86.7246 502.457 84.6295C502.657 84.2304 503.056 84.1307 503.654 84.3302C504.253 84.5297 504.851 84.8789 505.45 85.3778C506.647 86.575 507.246 87.6225 507.246 88.5204L507.096 88.9693L505.45 91.8127L505.3 91.9624C504.402 93.7582 502.357 97.6491 499.165 103.635C495.972 109.521 492.43 115.906 488.54 122.79C496.421 121.892 505.55 121.443 515.925 121.443C527 121.443 539.72 122.042 554.086 123.239ZM477.016 130.123C466.242 132.418 458.26 135.461 453.072 139.252C449.581 141.646 447.336 144.29 446.338 147.183C446.039 148.081 445.889 148.979 445.889 149.877C445.889 150.974 446.139 152.022 446.638 153.02C447.336 154.117 448.483 154.965 450.079 155.564C451.576 156.262 453.372 156.661 455.467 156.761C457.362 156.761 460.256 154.267 464.147 149.278C467.938 144.39 472.228 138.005 477.016 130.123ZM494.825 94.0575C493.827 92.6607 492.48 91.9624 490.784 91.9624C488.689 91.9624 486.345 92.9101 483.751 94.8057C481.157 96.7013 478.912 98.8961 477.016 101.39C475.121 103.785 474.173 105.73 474.173 107.227C474.173 108.324 474.822 108.873 476.119 108.873C477.515 108.873 479.461 108.174 481.955 106.778C484.549 105.281 487.043 103.386 489.437 101.091C491.832 98.7964 493.628 96.4518 494.825 94.0575ZM538.22 92.4113C538.22 93.0099 537.921 93.3092 537.322 93.3092H536.873C536.274 93.1097 535.626 92.7605 534.928 92.2617C534.329 91.663 533.88 91.0146 533.581 90.3162C532.882 89.6178 531.835 89.2686 530.438 89.2686C528.842 89.2686 527.046 89.7176 525.051 90.6155C523.155 91.4136 521.659 92.2616 520.561 93.1595C515.373 97.3497 511.931 102.937 510.235 109.92C511.931 109.422 514.525 107.526 518.017 104.234C521.509 100.941 525.2 97.0505 529.091 92.561C529.39 92.2616 529.839 92.2118 530.438 92.4113C531.037 92.6108 531.685 93.0598 532.383 93.7581C533.281 94.8556 533.73 95.7535 533.73 96.4519C533.73 96.7511 533.68 96.9507 533.581 97.0505C532.583 99.0458 532.084 101.191 532.084 103.485C532.084 103.884 532.184 104.683 532.383 105.88C532.683 107.975 536.075 106.379 542.56 101.091C549.144 95.8034 552.536 93.1097 552.736 93.0099C553.235 92.5111 553.783 92.2617 554.382 92.2617C554.881 92.2617 555.33 92.4612 555.729 92.8602C556.327 93.5586 556.627 94.2071 556.627 94.8057C556.627 95.3045 556.477 95.7036 556.178 96.0029C550.192 101.291 545.852 105.082 543.158 107.376C540.465 109.571 538.22 111.167 536.424 112.165C534.329 113.263 532.334 113.811 530.438 113.811C528.542 113.811 527.046 113.163 525.949 111.866C524.851 110.569 524.352 108.723 524.452 106.329C518.566 112.015 514.276 114.859 511.582 114.859C511.283 114.859 510.834 114.759 510.235 114.56C509.437 114.26 508.439 113.512 507.242 112.315C505.746 110.419 505.147 108.324 505.446 106.029C505.546 104.333 506.095 102.438 507.093 100.343C508.09 98.1479 509.437 96.0029 511.133 93.9078C512.729 91.7129 514.475 89.8672 516.371 88.3707C517.867 87.1735 519.613 86.2258 521.609 85.5274C523.604 84.829 525.599 84.4798 527.595 84.4798C530.089 84.4798 532.284 85.0286 534.179 86.126C536.075 87.2234 537.322 88.9195 537.921 91.2141L538.22 92.4113ZM561.227 77.8952C561.427 77.4962 561.826 77.3964 562.424 77.5959C563.123 77.7955 563.771 78.1945 564.37 78.7932C565.467 79.6911 566.016 80.6887 566.016 81.7861C566.016 82.0855 565.966 82.285 565.866 82.3847L560.329 91.2141C564.52 89.119 568.061 88.0715 570.955 88.0715C573.149 88.0715 574.746 88.7199 575.743 90.0169C576.142 90.416 576.442 91.1642 576.641 92.2617C576.941 93.2593 577.19 94.0076 577.389 94.5064C577.689 94.9055 578.088 95.105 578.587 95.105C581.679 95.3045 585.371 94.7558 589.661 93.4588C590.559 93.1595 591.058 93.0099 591.157 93.0099C591.556 93.0099 591.955 93.2593 592.354 93.7581C592.754 94.257 592.953 94.7059 592.953 95.105C592.953 95.4043 592.604 95.6537 591.906 95.8532C589.81 96.4519 587.366 97.0505 584.573 97.649C581.879 98.1479 579.734 98.3973 578.138 98.3973C575.943 98.3973 574.297 98.098 573.199 97.4994C572.202 96.801 570.755 95.3544 568.859 93.1595C568.161 92.2616 566.315 92.7605 563.322 94.6561C560.429 96.4518 557.087 98.9959 553.296 102.288C552.298 103.685 550.852 106.029 548.956 109.322C547.06 112.514 545.564 115.058 544.466 116.954C544.267 117.353 543.868 117.453 543.269 117.253C542.571 117.054 541.922 116.655 541.324 116.056C540.226 115.158 539.678 114.16 539.678 113.063C539.678 112.764 539.728 112.564 539.827 112.464L561.227 77.8952ZM615.091 92.4113C615.091 93.0099 614.791 93.3092 614.193 93.3092H613.744C613.145 93.1097 612.497 92.7605 611.798 92.2617C611.2 91.663 610.751 91.0146 610.452 90.3162C609.753 89.6178 608.706 89.2686 607.309 89.2686C605.713 89.2686 603.917 89.7176 601.922 90.6155C600.026 91.4136 598.53 92.2616 597.432 93.1595C592.244 97.3497 588.802 102.937 587.106 109.92C588.802 109.422 591.396 107.526 594.888 104.234C598.38 100.941 602.071 97.0505 605.962 92.561C606.261 92.2616 606.71 92.2118 607.309 92.4113C607.908 92.6108 608.556 93.0598 609.254 93.7581C610.152 94.8556 610.601 95.7535 610.601 96.4519C610.601 96.7511 610.551 96.9507 610.452 97.0505C609.454 99.0458 608.955 101.191 608.955 103.485C608.955 103.884 609.055 104.683 609.254 105.88C609.554 107.975 612.946 106.379 619.431 101.091C626.015 95.8034 629.407 93.1097 629.607 93.0099C630.106 92.5111 630.654 92.2617 631.253 92.2617C631.752 92.2617 632.201 92.4612 632.6 92.8602C633.198 93.5586 633.498 94.2071 633.498 94.8057C633.498 95.3045 633.348 95.7036 633.049 96.0029C627.063 101.291 622.723 105.082 620.029 107.376C617.336 109.571 615.091 111.167 613.295 112.165C611.2 113.263 609.205 113.811 607.309 113.811C605.413 113.811 603.917 113.163 602.819 111.866C601.722 110.569 601.223 108.723 601.323 106.329C595.437 112.015 591.147 114.859 588.453 114.859C588.154 114.859 587.705 114.759 587.106 114.56C586.308 114.26 585.31 113.512 584.113 112.315C582.617 110.419 582.018 108.324 582.317 106.029C582.417 104.333 582.966 102.438 583.964 100.343C584.961 98.1479 586.308 96.0029 588.004 93.9078C589.6 91.7129 591.346 89.8672 593.242 88.3707C594.738 87.1735 596.484 86.2258 598.48 85.5274C600.475 84.829 602.47 84.4798 604.466 84.4798C606.96 84.4798 609.155 85.0286 611.05 86.126C612.946 87.2234 614.193 88.9195 614.791 91.2141L615.091 92.4113Z" fill="white"/>
</svg>
