<svg width="27" height="28" viewBox="0 0 27 28" fill="none" xmlns="http://www.w3.org/2000/svg">
<path fill-rule="evenodd" clip-rule="evenodd" d="M5.01198 0.833984C3.72986 0.833984 2.50025 1.34331 1.59365 2.2499C0.687055 3.1565 0.177734 4.38611 0.177734 5.66823V22.5881C0.177734 23.8702 0.687055 25.0998 1.59365 26.0064C2.50025 26.913 3.72986 27.4223 5.01198 27.4223H21.9318C23.214 27.4223 24.4436 26.913 25.3502 26.0064C26.2568 25.0998 26.7661 23.8702 26.7661 22.5881V5.66823C26.7661 4.38611 26.2568 3.1565 25.3502 2.2499C24.4436 1.34331 23.214 0.833984 21.9318 0.833984H5.01198ZM13.8828 5.06395H16.7677C16.7677 6.99765 18.4016 9.18515 20.8889 9.18515V12.0688C19.1763 11.9503 17.7128 11.6699 16.7677 10.8324V18.2481C16.7677 20.3087 15.1385 23.1924 11.4125 23.1924C6.86108 23.1924 6.05618 19.0712 6.05618 17.836C6.05618 16.6009 6.78131 12.4797 11.8234 12.4797V15.3645C10.5049 15.0853 8.93981 16.1876 8.93981 17.836C8.93981 19.8966 10.1762 20.3087 11.4125 20.3087C12.6489 20.3087 13.884 19.0724 13.884 17.836L13.8828 5.06395Z" fill="white"/>
</svg>
