<svg width="48" height="47" viewBox="0 0 48 47" fill="none" xmlns="http://www.w3.org/2000/svg">
<rect x="0.727051" y="0.000488281" width="47" height="47" rx="8.54545" fill="black"/>
<path d="M31.4387 18.6084C33.6209 20.1675 36.2943 21.0849 39.1817 21.0849V15.5318C38.6352 15.532 38.0902 15.475 37.5556 15.3617V19.7328C34.6685 19.7328 31.9954 18.8155 29.8127 17.2565V28.589C29.8127 34.2582 25.2145 38.8535 19.5429 38.8535C17.4267 38.8535 15.4596 38.2141 13.8257 37.1174C15.6906 39.0233 18.2913 40.2056 21.1685 40.2056C26.8406 40.2056 31.4389 35.6102 31.4389 29.9408V18.6084H31.4387ZM33.4447 13.0059C32.3294 11.7881 31.5971 10.2144 31.4387 8.47447V7.76025H29.8977C30.2856 9.97159 31.6088 11.8608 33.4447 13.0059ZM17.413 32.7671C16.7898 31.9507 16.453 30.9517 16.4546 29.9245C16.4546 27.3317 18.5577 25.2294 21.1525 25.2294C21.636 25.2292 22.1167 25.3034 22.5776 25.4494V19.7721C22.0389 19.6983 21.4954 19.6669 20.9521 19.6785V24.0974C20.491 23.9513 20.0101 23.8771 19.5264 23.8775C16.9317 23.8775 14.8287 25.9796 14.8287 28.5728C14.8287 30.4064 15.8799 31.9938 17.413 32.7671Z" fill="#FF004F"/>
<path d="M29.8129 17.2564C31.9957 18.8154 34.6685 19.7327 37.5558 19.7327V15.3615C35.9441 15.0184 34.5175 14.1767 33.4448 13.0059C31.6087 11.8607 30.2858 9.97147 29.8979 7.76025H25.8504V29.9406C25.8412 32.5263 23.7417 34.62 21.1525 34.62C19.6268 34.62 18.2713 33.8932 17.4129 32.767C15.8801 31.9938 14.8288 30.4063 14.8288 28.5729C14.8288 25.98 16.9318 23.8776 19.5265 23.8776C20.0236 23.8776 20.5028 23.955 20.9522 24.0975V19.6786C15.3801 19.7937 10.8989 24.3442 10.8989 29.9407C10.8989 32.7344 12.0148 35.2671 13.826 37.1176C15.4599 38.2141 17.4268 38.8538 19.5432 38.8538C25.2149 38.8538 29.813 34.2581 29.813 28.589L29.8129 17.2564Z" fill="white"/>
<path d="M37.5553 15.3627V14.1811C36.102 14.1832 34.6774 13.7764 33.4443 13.0072C34.5358 14.2015 35.973 15.0251 37.5553 15.363M29.8973 7.76145C29.8604 7.55016 29.832 7.33746 29.8123 7.12388V6.40967H24.2236V28.5902C24.2147 31.1758 22.1152 33.2694 19.5259 33.2694C18.7919 33.2705 18.0678 33.099 17.4124 32.7686C18.2707 33.8945 19.6263 34.6212 21.1519 34.6212C23.741 34.6212 25.8407 32.5278 25.8498 29.942V7.76157L29.8973 7.76145ZM20.952 19.6798V18.4216C20.485 18.3578 20.0142 18.3259 19.5428 18.326C13.8705 18.326 9.27246 22.9216 9.27246 28.5902C9.27246 32.1442 11.0795 35.2763 13.8256 37.1187C12.0145 35.2683 10.8986 32.7355 10.8986 29.9419C10.8986 24.3455 15.3797 19.7949 20.952 19.6798Z" fill="#00F2EA"/>
</svg>
