<svg width="42" height="60" viewBox="0 0 42 60" fill="none" xmlns="http://www.w3.org/2000/svg">
<path d="M21 0C9.39 0 0 9.39 0 21C0 36.75 21 60 21 60C21 60 42 36.75 42 21C42 9.39 32.61 0 21 0ZM21 28.5C19.0109 28.5 17.1032 27.7098 15.6967 26.3033C14.2902 24.8968 13.5 22.9891 13.5 21C13.5 19.0109 14.2902 17.1032 15.6967 15.6967C17.1032 14.2902 19.0109 13.5 21 13.5C22.9891 13.5 24.8968 14.2902 26.3033 15.6967C27.7098 17.1032 28.5 19.0109 28.5 21C28.5 22.9891 27.7098 24.8968 26.3033 26.3033C24.8968 27.7098 22.9891 28.5 21 28.5Z" fill="#00712D"/>
</svg>
