<svg width="20" height="21" viewBox="0 0 20 21" fill="none" xmlns="http://www.w3.org/2000/svg">
<path d="M20.0028 10.3832C20.0042 10.9369 19.8444 11.4789 19.5428 11.9432C19.2507 12.4125 18.8262 12.7848 18.3228 13.0132L4.17279 19.8732C3.77899 20.0718 3.34384 20.1746 2.90279 20.1732C2.71745 20.1732 2.53412 20.1532 2.35279 20.1132C1.73504 19.9972 1.17273 19.6809 0.752785 19.2132C0.329813 18.746 0.0699354 18.1542 0.0122284 17.5266C-0.0454785 16.899 0.102104 16.2697 0.432785 15.7332L3.87279 10.9532C3.95279 10.7632 3.99279 10.5592 3.99279 10.3532C3.99429 10.131 3.94287 9.91161 3.84279 9.71321L0.662785 5.21321C0.334208 4.66671 0.196988 4.02636 0.272785 3.39321C0.34113 2.78525 0.600646 2.21466 1.01397 1.7636C1.42729 1.31254 1.97309 1.00428 2.57279 0.883209C3.17585 0.764961 3.80069 0.834775 4.36279 1.08321L18.3628 7.75321C18.8547 7.99442 19.2691 8.36872 19.559 8.8336C19.8489 9.29849 20.0026 9.83534 20.0028 10.3832Z" fill="white"/>
</svg>
