<svg width="34" height="28" viewBox="0 0 34 28" fill="none" xmlns="http://www.w3.org/2000/svg">
<path fill-rule="evenodd" clip-rule="evenodd" d="M17.3833 0.833984C18.8042 0.833984 20.2615 0.870544 21.674 0.930367L23.3425 1.01013L24.9394 1.10485L26.435 1.20622L27.801 1.31257C29.2836 1.42539 30.6789 2.05777 31.741 3.09832C32.8031 4.13887 33.464 5.52084 33.6072 7.00082L33.6737 7.70707L33.7983 9.21929C33.9147 10.7863 34.0011 12.4946 34.0011 14.1282C34.0011 15.7617 33.9147 17.47 33.7983 19.037L33.6737 20.5493L33.6072 21.2555C33.4639 22.7357 32.8028 24.1179 31.7404 25.1585C30.6779 26.1991 29.2822 26.8313 27.7993 26.9438L26.4367 27.0484L24.9411 27.1515L23.3425 27.2462L21.674 27.326C20.2446 27.3879 18.8141 27.42 17.3833 27.4223C15.9526 27.42 14.5221 27.3879 13.0927 27.326L11.4242 27.2462L9.82727 27.1515L8.33167 27.0484L6.9657 26.9438C5.48309 26.8309 4.08784 26.1986 3.02571 25.158C1.96358 24.1175 1.30269 22.7355 1.15947 21.2555L1.09299 20.5493L0.968361 19.037C0.841789 17.4037 0.774166 15.7664 0.765625 14.1282C0.765625 12.4946 0.852037 10.7863 0.968361 9.21929L1.09299 7.70707L1.15947 7.00082C1.30264 5.5211 1.96328 4.13934 3.02508 3.09882C4.08687 2.05831 5.48172 1.42577 6.96404 1.31257L8.32835 1.20622L9.82395 1.10485L11.4226 1.01013L13.091 0.930367C14.521 0.868428 15.952 0.836294 17.3833 0.833984ZM14.0598 10.0984V18.158C14.0598 18.9257 14.8907 19.4043 15.5554 19.0221L22.5348 14.9923C22.6867 14.9049 22.8129 14.779 22.9006 14.6272C22.9883 14.4755 23.0345 14.3034 23.0345 14.1282C23.0345 13.9529 22.9883 13.7808 22.9006 13.6291C22.8129 13.4774 22.6867 13.3515 22.5348 13.264L15.5554 9.2359C15.4038 9.14837 15.2318 9.1023 15.0567 9.10232C14.8816 9.10235 14.7097 9.14848 14.5581 9.23606C14.4065 9.32365 14.2806 9.44961 14.1931 9.60127C14.1057 9.75293 14.0597 9.92495 14.0598 10.1V10.0984Z" fill="white"/>
</svg>
