<svg width="48" height="47" viewBox="0 0 48 47" fill="none" xmlns="http://www.w3.org/2000/svg">
<rect x="0.0908203" y="0.000488281" width="47" height="47" rx="8.54545" fill="white"/>
<path d="M41.2743 15.0578C41.062 14.2735 40.6481 13.5585 40.0735 12.9839C39.499 12.4094 38.784 11.9953 37.9997 11.7831C35.1284 11 23.5724 11 23.5724 11C23.5724 11 12.0157 11.0237 9.14444 11.8068C8.36013 12.0191 7.64511 12.4331 7.07059 13.0077C6.49607 13.5822 6.08209 14.2973 5.86988 15.0816C5.00138 20.1834 4.66447 27.9573 5.89373 32.8549C6.10596 33.6392 6.51995 34.3543 7.09447 34.9288C7.66899 35.5034 8.38399 35.9174 9.16829 36.1296C12.0396 36.9127 23.5959 36.9127 23.5959 36.9127C23.5959 36.9127 35.1521 36.9127 38.0233 36.1296C38.8076 35.9174 39.5226 35.5034 40.0972 34.9288C40.6717 34.3543 41.0857 33.6393 41.298 32.8549C42.214 27.746 42.4963 19.9768 41.2743 15.0578Z" fill="#FF0000"/>
<path d="M19.894 29.5092L29.4807 23.9565L19.894 18.4038V29.5092Z" fill="white"/>
</svg>
